<svg width="292" height="72" viewBox="0 0 292 72" fill="none" xmlns="http://www.w3.org/2000/svg">
<path d="M86.952 47.048H74.376L72.36 53H63.768L75.96 19.304H85.464L97.656 53H88.968L86.952 47.048ZM84.84 40.712L80.664 28.376L76.536 40.712H84.84ZM106.935 17.48V53H98.7266V17.48H106.935ZM135.491 39.176C135.491 39.944 135.443 40.744 135.347 41.576H116.771C116.899 43.24 117.427 44.52 118.355 45.416C119.315 46.28 120.483 46.712 121.859 46.712C123.907 46.712 125.331 45.848 126.131 44.12H134.867C134.419 45.88 133.603 47.464 132.419 48.872C131.267 50.28 129.811 51.384 128.051 52.184C126.291 52.984 124.323 53.384 122.147 53.384C119.523 53.384 117.187 52.824 115.139 51.704C113.091 50.584 111.491 48.984 110.339 46.904C109.187 44.824 108.611 42.392 108.611 39.608C108.611 36.824 109.171 34.392 110.291 32.312C111.443 30.232 113.043 28.632 115.091 27.512C117.139 26.392 119.491 25.832 122.147 25.832C124.739 25.832 127.043 26.376 129.059 27.464C131.075 28.552 132.643 30.104 133.763 32.12C134.915 34.136 135.491 36.488 135.491 39.176ZM127.091 37.016C127.091 35.608 126.611 34.488 125.651 33.656C124.691 32.824 123.491 32.408 122.051 32.408C120.675 32.408 119.507 32.808 118.547 33.608C117.619 34.408 117.043 35.544 116.819 37.016H127.091ZM153.021 53L147.885 45.56L143.565 53H134.685L143.517 39.32L134.445 26.216H143.661L148.797 33.608L153.117 26.216H161.997L153.021 39.704L162.237 53H153.021ZM187 19.304V25.88H178.072V53H169.864V25.88H160.936V19.304H187ZM192.607 23.432C191.167 23.432 189.983 23.016 189.055 22.184C188.159 21.32 187.711 20.264 187.711 19.016C187.711 17.736 188.159 16.68 189.055 15.848C189.983 14.984 191.167 14.552 192.607 14.552C194.015 14.552 195.167 14.984 196.063 15.848C196.991 16.68 197.455 17.736 197.455 19.016C197.455 20.264 196.991 21.32 196.063 22.184C195.167 23.016 194.015 23.432 192.607 23.432ZM196.687 26.216V53H188.479V26.216H196.687ZM208.203 30.68C209.163 29.208 210.363 28.056 211.803 27.224C213.243 26.36 214.843 25.928 216.603 25.928V34.616H214.347C212.299 34.616 210.763 35.064 209.739 35.96C208.715 36.824 208.203 38.36 208.203 40.568V53H199.995V26.216H208.203V30.68ZM222.015 23.432C220.575 23.432 219.391 23.016 218.463 22.184C217.567 21.32 217.119 20.264 217.119 19.016C217.119 17.736 217.567 16.68 218.463 15.848C219.391 14.984 220.575 14.552 222.015 14.552C223.423 14.552 224.575 14.984 225.471 15.848C226.399 16.68 226.863 17.736 226.863 19.016C226.863 20.264 226.399 21.32 225.471 22.184C224.575 23.016 223.423 23.432 222.015 23.432ZM226.095 26.216V53H217.887V26.216H226.095ZM263.579 25.928C266.907 25.928 269.547 26.936 271.499 28.952C273.483 30.968 274.475 33.768 274.475 37.352V53H266.315V38.456C266.315 36.728 265.851 35.4 264.923 34.472C264.027 33.512 262.779 33.032 261.179 33.032C259.579 33.032 258.315 33.512 257.387 34.472C256.491 35.4 256.043 36.728 256.043 38.456V53H247.883V38.456C247.883 36.728 247.419 35.4 246.491 34.472C245.595 33.512 244.347 33.032 242.747 33.032C241.147 33.032 239.883 33.512 238.955 34.472C238.059 35.4 237.611 36.728 237.611 38.456V53H229.403V26.216H237.611V29.576C238.443 28.456 239.531 27.576 240.875 26.936C242.219 26.264 243.739 25.928 245.435 25.928C247.451 25.928 249.243 26.36 250.811 27.224C252.411 28.088 253.659 29.32 254.555 30.92C255.483 29.448 256.747 28.248 258.347 27.32C259.947 26.392 261.691 25.928 263.579 25.928Z" fill="#000"/>
<path d="M267.776 50C321.483 56.8824 282.674 67 153.776 67C-7.34521 67 -18.5852 47.2941 18.7764 6" stroke="#000"/>
</svg>
