<svg width="224" height="62" viewBox="0 0 224 62" fill="none" xmlns="http://www.w3.org/2000/svg">
<g clip-path="url(#clip0_20_313)">
<path d="M99.6684 17.7476L96.1584 15.2169L95.8886 12.6827L98.8588 10.1448L115.059 10.1269L115.869 17.7296L109.389 17.7368L107.634 16.4715L106.149 17.7404L104.529 17.7422L102.774 16.4769L101.288 17.7458L99.6684 17.7476Z" fill="#FFA000"/>
<path d="M127.101 22.7863C128.525 22.4679 129.477 21.5164 129.767 20.4389C130.01 18.9179 130.328 16.5731 130.044 13.9121C129.761 11.2511 128.944 8.90759 128.377 7.38748C127.858 6.31087 126.703 5.3617 125.212 5.04653C123.801 4.73127 121.823 4.41664 119.717 4.41898C117.611 4.42131 115.701 4.74024 114.357 5.05855C112.933 5.37695 111.975 6.2651 111.772 7.40587C111.448 8.92696 111.131 11.2718 111.414 13.9327C111.697 16.5937 112.514 18.9373 113.081 20.4574C113.526 21.5974 114.755 22.4831 116.166 22.7984C117.576 23.1137 119.554 23.4283 121.66 23.426C123.847 23.4235 125.757 23.1046 127.101 22.7863ZM122.281 17.0889L121.607 10.7533C121.533 10.0563 122.201 9.48533 123.092 9.48434L124.712 9.48255C125.198 9.48201 125.731 11.4457 125.994 13.9166C126.257 16.3875 126.143 18.3519 125.656 18.3524L124.036 18.3542C123.145 18.3552 122.356 17.7858 122.281 17.0889Z" fill="#FFA000"/>
<path d="M110.372 14.5953L110.507 15.8624L95.1167 15.8794L94.9818 14.6123L110.372 14.5953Z" fill="#D68600"/>
</g>
<path d="M12.376 6.53275C12.376 7.05408 12.3307 7.50742 12.24 7.89275C12.3307 8.25542 12.376 8.70875 12.376 9.25275C12.376 9.77408 12.3307 10.2274 12.24 10.6128H10.88C10.9707 10.9754 11.016 11.4288 11.016 11.9728C11.016 12.4941 10.9707 12.9474 10.88 13.3328H4.08C4.17067 13.6954 4.216 14.1488 4.216 14.6928C4.216 15.2141 4.17067 15.6674 4.08 16.0528C4.17067 16.4154 4.216 16.8688 4.216 17.4128C4.216 17.9341 4.17067 18.3874 4.08 18.7728C4.17067 19.1354 4.216 19.5888 4.216 20.1328C4.216 20.6541 4.17067 21.1074 4.08 21.4928H1.36C1.26933 21.1074 1.224 20.6541 1.224 20.1328C1.224 19.5888 1.26933 19.1354 1.36 18.7728C1.26933 18.3874 1.224 17.9341 1.224 17.4128C1.224 16.8688 1.26933 16.4154 1.36 16.0528C1.26933 15.6674 1.224 15.2141 1.224 14.6928C1.224 14.1488 1.26933 13.6954 1.36 13.3328C1.26933 12.9474 1.224 12.4941 1.224 11.9728C1.224 11.4288 1.26933 10.9754 1.36 10.6128C1.26933 10.2274 1.224 9.77408 1.224 9.25275C1.224 8.70875 1.26933 8.25542 1.36 7.89275C1.26933 7.50742 1.224 7.05408 1.224 6.53275C1.224 5.98875 1.26933 5.53542 1.36 5.17275C1.26933 4.78742 1.224 4.33408 1.224 3.81275C1.224 3.26875 1.26933 2.81542 1.36 2.45275H10.88C10.9707 2.81542 11.016 3.26875 11.016 3.81275C11.016 4.33408 10.9707 4.78742 10.88 5.17275H12.24C12.3307 5.53542 12.376 5.98875 12.376 6.53275ZM9.52 10.6128C9.42933 10.2274 9.384 9.77408 9.384 9.25275C9.384 8.70875 9.42933 8.25542 9.52 7.89275C9.42933 7.50742 9.384 7.05408 9.384 6.53275C9.384 5.98875 9.42933 5.53542 9.52 5.17275H4.08C4.17067 5.53542 4.216 5.98875 4.216 6.53275C4.216 7.05408 4.17067 7.50742 4.08 7.89275C4.17067 8.25542 4.216 8.70875 4.216 9.25275C4.216 9.77408 4.17067 10.2274 4.08 10.6128H9.52ZM23.8133 18.7728C23.9039 19.1354 23.9493 19.5888 23.9493 20.1328C23.9493 20.6541 23.9039 21.1074 23.8133 21.4928H15.6533C15.5626 21.1074 15.5173 20.6541 15.5173 20.1328C15.5173 19.5888 15.5626 19.1354 15.6533 18.7728H18.3733C18.2826 18.3874 18.2373 17.9341 18.2373 17.4128C18.2373 16.8688 18.2826 16.4154 18.3733 16.0528C18.2826 15.6674 18.2373 15.2141 18.2373 14.6928C18.2373 14.1488 18.2826 13.6954 18.3733 13.3328C18.2826 12.9474 18.2373 12.4941 18.2373 11.9728C18.2373 11.4288 18.2826 10.9754 18.3733 10.6128C18.2826 10.2274 18.2373 9.77408 18.2373 9.25275C18.2373 8.70875 18.2826 8.25542 18.3733 7.89275C18.2826 7.50742 18.2373 7.05408 18.2373 6.53275C18.2373 5.98875 18.2826 5.53542 18.3733 5.17275H16.3333C16.2426 4.78742 16.1973 4.33408 16.1973 3.81275C16.1973 3.26875 16.2426 2.81542 16.3333 2.45275H21.0933C21.1839 2.81542 21.2293 3.26875 21.2293 3.81275C21.2293 4.33408 21.1839 4.78742 21.0933 5.17275C21.1839 5.53542 21.2293 5.98875 21.2293 6.53275C21.2293 7.05408 21.1839 7.50742 21.0933 7.89275C21.1839 8.25542 21.2293 8.70875 21.2293 9.25275C21.2293 9.77408 21.1839 10.2274 21.0933 10.6128C21.1839 10.9754 21.2293 11.4288 21.2293 11.9728C21.2293 12.4941 21.1839 12.9474 21.0933 13.3328C21.1839 13.6954 21.2293 14.1488 21.2293 14.6928C21.2293 15.2141 21.1839 15.6674 21.0933 16.0528C21.1839 16.4154 21.2293 16.8688 21.2293 17.4128C21.2293 17.9341 21.1839 18.3874 21.0933 18.7728H23.8133ZM31.1026 17.4128C31.1026 17.9341 31.0572 18.3874 30.9666 18.7728H34.3666C34.4572 19.1354 34.5026 19.5888 34.5026 20.1328C34.5026 20.6541 34.4572 21.1074 34.3666 21.4928H28.9266C28.8359 21.1074 28.7906 20.6541 28.7906 20.1328C28.7906 19.5888 28.8359 19.1354 28.9266 18.7728H27.2266C27.1359 18.3874 27.0906 17.9341 27.0906 17.4128C27.0906 16.8688 27.1359 16.4154 27.2266 16.0528C27.1359 15.6674 27.0906 15.2141 27.0906 14.6928C27.0906 14.1488 27.1359 13.6954 27.2266 13.3328C27.1359 12.9474 27.0906 12.4941 27.0906 11.9728C27.0906 11.4288 27.1359 10.9754 27.2266 10.6128C27.1359 10.2274 27.0906 9.77408 27.0906 9.25275C27.0906 8.70875 27.1359 8.25542 27.2266 7.89275H29.9466C30.0372 8.25542 30.0826 8.70875 30.0826 9.25275C30.0826 9.77408 30.0372 10.2274 29.9466 10.6128C30.0372 10.9754 30.0826 11.4288 30.0826 11.9728C30.0826 12.4941 30.0372 12.9474 29.9466 13.3328C30.0372 13.6954 30.0826 14.1488 30.0826 14.6928C30.0826 15.2141 30.0372 15.6674 29.9466 16.0528H30.9666C31.0572 16.4154 31.1026 16.8688 31.1026 17.4128ZM38.1066 10.6128C38.1972 10.9754 38.2426 11.4288 38.2426 11.9728C38.2426 12.4941 38.1972 12.9474 38.1066 13.3328C38.1972 13.6954 38.2426 14.1488 38.2426 14.6928C38.2426 15.2141 38.1972 15.6674 38.1066 16.0528C38.1972 16.4154 38.2426 16.8688 38.2426 17.4128C38.2426 17.9341 38.1972 18.3874 38.1066 18.7728C38.1972 19.1354 38.2426 19.5888 38.2426 20.1328C38.2426 20.6541 38.1972 21.1074 38.1066 21.4928H35.3866C35.2959 21.1074 35.2506 20.6541 35.2506 20.1328C35.2506 19.5888 35.2959 19.1354 35.3866 18.7728H34.3666C34.2759 18.3874 34.2306 17.9341 34.2306 17.4128C34.2306 16.8688 34.2759 16.4154 34.3666 16.0528H35.3866C35.2959 15.6674 35.2506 15.2141 35.2506 14.6928C35.2506 14.1488 35.2959 13.6954 35.3866 13.3328C35.2959 12.9474 35.2506 12.4941 35.2506 11.9728C35.2506 11.4288 35.2959 10.9754 35.3866 10.6128C35.2959 10.2274 35.2506 9.77408 35.2506 9.25275C35.2506 8.70875 35.2959 8.25542 35.3866 7.89275H38.1066C38.1972 8.25542 38.2426 8.70875 38.2426 9.25275C38.2426 9.77408 38.1972 10.2274 38.1066 10.6128ZM51.0398 10.6128C51.1305 10.9754 51.1758 11.4288 51.1758 11.9728C51.1758 12.4941 51.1305 12.9474 51.0398 13.3328C51.1305 13.6954 51.1758 14.1488 51.1758 14.6928C51.1758 15.2141 51.1305 15.6674 51.0398 16.0528C51.1305 16.4154 51.1758 16.8688 51.1758 17.4128C51.1758 17.9341 51.1305 18.3874 51.0398 18.7728C51.1305 19.1354 51.1758 19.5888 51.1758 20.1328C51.1758 20.6541 51.1305 21.1074 51.0398 21.4928H49.6798C49.7705 21.8554 49.8158 22.3088 49.8158 22.8528C49.8158 23.3741 49.7705 23.8274 49.6798 24.2128H48.3198C48.4105 24.5754 48.4558 25.0288 48.4558 25.5728C48.4558 26.0941 48.4105 26.5474 48.3198 26.9328H42.8798C42.7892 26.5474 42.7438 26.0941 42.7438 25.5728C42.7438 25.0288 42.7892 24.5754 42.8798 24.2128H46.9598C46.8692 23.8274 46.8238 23.3741 46.8238 22.8528C46.8238 22.3088 46.8692 21.8554 46.9598 21.4928H48.3198C48.2292 21.1074 48.1838 20.6541 48.1838 20.1328C48.1838 19.5888 48.2292 19.1354 48.3198 18.7728H46.9598C46.8692 18.3874 46.8238 17.9341 46.8238 17.4128C46.8238 16.8688 46.8692 16.4154 46.9598 16.0528H48.3198C48.2292 15.6674 48.1838 15.2141 48.1838 14.6928C48.1838 14.1488 48.2292 13.6954 48.3198 13.3328C48.2292 12.9474 48.1838 12.4941 48.1838 11.9728C48.1838 11.4288 48.2292 10.9754 48.3198 10.6128H43.8998C43.9905 10.9754 44.0358 11.4288 44.0358 11.9728C44.0358 12.4941 43.9905 12.9474 43.8998 13.3328H42.8798C42.9705 13.6954 43.0158 14.1488 43.0158 14.6928C43.0158 15.2141 42.9705 15.6674 42.8798 16.0528H43.8998C43.9905 16.4154 44.0358 16.8688 44.0358 17.4128C44.0358 17.9341 43.9905 18.3874 43.8998 18.7728H46.9598C47.0505 19.1354 47.0958 19.5888 47.0958 20.1328C47.0958 20.6541 47.0505 21.1074 46.9598 21.4928H42.8798C42.7892 21.1074 42.7438 20.6541 42.7438 20.1328C42.7438 19.5888 42.7892 19.1354 42.8798 18.7728H41.1798C41.0892 18.3874 41.0438 17.9341 41.0438 17.4128C41.0438 16.8688 41.0892 16.4154 41.1798 16.0528H40.1598C40.0692 15.6674 40.0238 15.2141 40.0238 14.6928C40.0238 14.1488 40.0692 13.6954 40.1598 13.3328H41.1798C41.0892 12.9474 41.0438 12.4941 41.0438 11.9728C41.0438 11.4288 41.0892 10.9754 41.1798 10.6128H42.8798C42.7892 10.2274 42.7438 9.77408 42.7438 9.25275C42.7438 8.70875 42.7892 8.25542 42.8798 7.89275H51.0398C51.1305 8.25542 51.1758 8.70875 51.1758 9.25275C51.1758 9.77408 51.1305 10.2274 51.0398 10.6128ZM57.1731 5.17275C57.0825 4.78742 57.0371 4.33408 57.0371 3.81275C57.0371 3.26875 57.0825 2.81542 57.1731 2.45275H59.8931C59.9838 2.81542 60.0291 3.26875 60.0291 3.81275C60.0291 4.33408 59.9838 4.78742 59.8931 5.17275H57.1731ZM62.6131 18.7728C62.7038 19.1354 62.7491 19.5888 62.7491 20.1328C62.7491 20.6541 62.7038 21.1074 62.6131 21.4928H54.4531C54.3625 21.1074 54.3171 20.6541 54.3171 20.1328C54.3171 19.5888 54.3625 19.1354 54.4531 18.7728H57.1731C57.0825 18.3874 57.0371 17.9341 57.0371 17.4128C57.0371 16.8688 57.0825 16.4154 57.1731 16.0528C57.0825 15.6674 57.0371 15.2141 57.0371 14.6928C57.0371 14.1488 57.0825 13.6954 57.1731 13.3328C57.0825 12.9474 57.0371 12.4941 57.0371 11.9728C57.0371 11.4288 57.0825 10.9754 57.1731 10.6128H55.1331C55.0425 10.2274 54.9971 9.77408 54.9971 9.25275C54.9971 8.70875 55.0425 8.25542 55.1331 7.89275H59.8931C59.9838 8.25542 60.0291 8.70875 60.0291 9.25275C60.0291 9.77408 59.9838 10.2274 59.8931 10.6128C59.9838 10.9754 60.0291 11.4288 60.0291 11.9728C60.0291 12.4941 59.9838 12.9474 59.8931 13.3328C59.9838 13.6954 60.0291 14.1488 60.0291 14.6928C60.0291 15.2141 59.9838 15.6674 59.8931 16.0528C59.9838 16.4154 60.0291 16.8688 60.0291 17.4128C60.0291 17.9341 59.9838 18.3874 59.8931 18.7728H62.6131ZM68.5424 9.25275C68.5424 9.77408 68.4971 10.2274 68.4064 10.6128H69.7664C69.8571 10.9754 69.9024 11.4288 69.9024 11.9728C69.9024 12.4941 69.8571 12.9474 69.7664 13.3328H68.7464C68.8371 13.6954 68.8824 14.1488 68.8824 14.6928C68.8824 15.2141 68.8371 15.6674 68.7464 16.0528C68.8371 16.4154 68.8824 16.8688 68.8824 17.4128C68.8824 17.9341 68.8371 18.3874 68.7464 18.7728C68.8371 19.1354 68.8824 19.5888 68.8824 20.1328C68.8824 20.6541 68.8371 21.1074 68.7464 21.4928H66.0264C65.9357 21.1074 65.8904 20.6541 65.8904 20.1328C65.8904 19.5888 65.9357 19.1354 66.0264 18.7728C65.9357 18.3874 65.8904 17.9341 65.8904 17.4128C65.8904 16.8688 65.9357 16.4154 66.0264 16.0528C65.9357 15.6674 65.8904 15.2141 65.8904 14.6928C65.8904 14.1488 65.9357 13.6954 66.0264 13.3328C65.9357 12.9474 65.8904 12.4941 65.8904 11.9728C65.8904 11.4288 65.9357 10.9754 66.0264 10.6128C65.9357 10.2274 65.8904 9.77408 65.8904 9.25275C65.8904 8.70875 65.9357 8.25542 66.0264 7.89275H68.4064C68.4971 8.25542 68.5424 8.70875 68.5424 9.25275ZM76.9064 13.3328C76.9971 13.6954 77.0424 14.1488 77.0424 14.6928C77.0424 15.2141 76.9971 15.6674 76.9064 16.0528C76.9971 16.4154 77.0424 16.8688 77.0424 17.4128C77.0424 17.9341 76.9971 18.3874 76.9064 18.7728C76.9971 19.1354 77.0424 19.5888 77.0424 20.1328C77.0424 20.6541 76.9971 21.1074 76.9064 21.4928H74.1864C74.0957 21.1074 74.0504 20.6541 74.0504 20.1328C74.0504 19.5888 74.0957 19.1354 74.1864 18.7728C74.0957 18.3874 74.0504 17.9341 74.0504 17.4128C74.0504 16.8688 74.0957 16.4154 74.1864 16.0528C74.0957 15.6674 74.0504 15.2141 74.0504 14.6928C74.0504 14.1488 74.0957 13.6954 74.1864 13.3328C74.0957 12.9474 74.0504 12.4941 74.0504 11.9728C74.0504 11.4288 74.0957 10.9754 74.1864 10.6128H69.7664C69.6757 10.2274 69.6304 9.77408 69.6304 9.25275C69.6304 8.70875 69.6757 8.25542 69.7664 7.89275H75.2064C75.2971 8.25542 75.3424 8.70875 75.3424 9.25275C75.3424 9.77408 75.2971 10.2274 75.2064 10.6128H76.9064C76.9971 10.9754 77.0424 11.4288 77.0424 11.9728C77.0424 12.4941 76.9971 12.9474 76.9064 13.3328ZM89.8397 44.6128C89.9304 44.9754 89.9757 45.4288 89.9757 45.9728C89.9757 46.4941 89.9304 46.9474 89.8397 47.3328C89.9304 47.6954 89.9757 48.1488 89.9757 48.6928C89.9757 49.2141 89.9304 49.6674 89.8397 50.0528H88.4797C88.5704 50.4154 88.6157 50.8688 88.6157 51.4128C88.6157 51.9341 88.5704 52.3874 88.4797 52.7728H87.1197C87.2104 53.1354 87.2557 53.5888 87.2557 54.1328C87.2557 54.6541 87.2104 55.1074 87.1197 55.4928H78.9597C78.869 55.1074 78.8237 54.6541 78.8237 54.1328C78.8237 53.5888 78.869 53.1354 78.9597 52.7728C78.869 52.3874 78.8237 51.9341 78.8237 51.4128C78.8237 50.8688 78.869 50.4154 78.9597 50.0528C78.869 49.6674 78.8237 49.2141 78.8237 48.6928C78.8237 48.1488 78.869 47.6954 78.9597 47.3328C78.869 46.9474 78.8237 46.4941 78.8237 45.9728C78.8237 45.4288 78.869 44.9754 78.9597 44.6128C78.869 44.2274 78.8237 43.7741 78.8237 43.2528C78.8237 42.7088 78.869 42.2554 78.9597 41.8928C78.869 41.5074 78.8237 41.0541 78.8237 40.5328C78.8237 39.9888 78.869 39.5354 78.9597 39.1728C78.869 38.7874 78.8237 38.3341 78.8237 37.8128C78.8237 37.2688 78.869 36.8154 78.9597 36.4528H87.1197C87.2104 36.8154 87.2557 37.2688 87.2557 37.8128C87.2557 38.3341 87.2104 38.7874 87.1197 39.1728H88.4797C88.5704 39.5354 88.6157 39.9888 88.6157 40.5328C88.6157 41.0541 88.5704 41.5074 88.4797 41.8928H89.8397C89.9304 42.2554 89.9757 42.7088 89.9757 43.2528C89.9757 43.7741 89.9304 44.2274 89.8397 44.6128ZM87.1197 50.0528C87.029 49.6674 86.9837 49.2141 86.9837 48.6928C86.9837 48.1488 87.029 47.6954 87.1197 47.3328C87.029 46.9474 86.9837 46.4941 86.9837 45.9728C86.9837 45.4288 87.029 44.9754 87.1197 44.6128C87.029 44.2274 86.9837 43.7741 86.9837 43.2528C86.9837 42.7088 87.029 42.2554 87.1197 41.8928H85.7597C85.669 41.5074 85.6237 41.0541 85.6237 40.5328C85.6237 39.9888 85.669 39.5354 85.7597 39.1728H81.6797C81.7704 39.5354 81.8157 39.9888 81.8157 40.5328C81.8157 41.0541 81.7704 41.5074 81.6797 41.8928C81.7704 42.2554 81.8157 42.7088 81.8157 43.2528C81.8157 43.7741 81.7704 44.2274 81.6797 44.6128C81.7704 44.9754 81.8157 45.4288 81.8157 45.9728C81.8157 46.4941 81.7704 46.9474 81.6797 47.3328C81.7704 47.6954 81.8157 48.1488 81.8157 48.6928C81.8157 49.2141 81.7704 49.6674 81.6797 50.0528C81.7704 50.4154 81.8157 50.8688 81.8157 51.4128C81.8157 51.9341 81.7704 52.3874 81.6797 52.7728H85.7597C85.669 52.3874 85.6237 51.9341 85.6237 51.4128C85.6237 50.8688 85.669 50.4154 85.7597 50.0528H87.1197ZM102.909 45.9728C102.909 46.4941 102.864 46.9474 102.773 47.3328C102.864 47.6954 102.909 48.1488 102.909 48.6928C102.909 49.2141 102.864 49.6674 102.773 50.0528H95.633C95.7236 50.4154 95.769 50.8688 95.769 51.4128C95.769 51.9341 95.7236 52.3874 95.633 52.7728H101.413C101.504 53.1354 101.549 53.5888 101.549 54.1328C101.549 54.6541 101.504 55.1074 101.413 55.4928H94.613C94.5223 55.1074 94.477 54.6541 94.477 54.1328C94.477 53.5888 94.5223 53.1354 94.613 52.7728H92.913C92.8223 52.3874 92.777 51.9341 92.777 51.4128C92.777 50.8688 92.8223 50.4154 92.913 50.0528H91.893C91.8023 49.6674 91.757 49.2141 91.757 48.6928C91.757 48.1488 91.8023 47.6954 91.893 47.3328H92.913C92.8223 46.9474 92.777 46.4941 92.777 45.9728C92.777 45.4288 92.8223 44.9754 92.913 44.6128H94.613C94.5223 44.2274 94.477 43.7741 94.477 43.2528C94.477 42.7088 94.5223 42.2554 94.613 41.8928H101.413C101.504 42.2554 101.549 42.7088 101.549 43.2528C101.549 43.7741 101.504 44.2274 101.413 44.6128H102.773C102.864 44.9754 102.909 45.4288 102.909 45.9728ZM100.053 47.3328C99.9623 46.9474 99.917 46.4941 99.917 45.9728C99.917 45.4288 99.9623 44.9754 100.053 44.6128H95.633C95.7236 44.9754 95.769 45.4288 95.769 45.9728C95.769 46.4941 95.7236 46.9474 95.633 47.3328H100.053ZM115.842 43.2528C115.842 43.7741 115.797 44.2274 115.706 44.6128H114.686C114.777 44.9754 114.822 45.4288 114.822 45.9728C114.822 46.4941 114.777 46.9474 114.686 47.3328H113.666C113.757 47.6954 113.802 48.1488 113.802 48.6928C113.802 49.2141 113.757 49.6674 113.666 50.0528H112.986C113.077 50.4154 113.122 50.8688 113.122 51.4128C113.122 51.9341 113.077 52.3874 112.986 52.7728H111.626C111.717 53.1354 111.762 53.5888 111.762 54.1328C111.762 54.6541 111.717 55.1074 111.626 55.4928H108.906C108.816 55.1074 108.77 54.6541 108.77 54.1328C108.77 53.5888 108.816 53.1354 108.906 52.7728H107.546C107.456 52.3874 107.41 51.9341 107.41 51.4128C107.41 50.8688 107.456 50.4154 107.546 50.0528H106.866C106.776 49.6674 106.73 49.2141 106.73 48.6928C106.73 48.1488 106.776 47.6954 106.866 47.3328H105.846C105.756 46.9474 105.71 46.4941 105.71 45.9728C105.71 45.4288 105.756 44.9754 105.846 44.6128H104.826C104.736 44.2274 104.69 43.7741 104.69 43.2528C104.69 42.7088 104.736 42.2554 104.826 41.8928H107.546C107.637 42.2554 107.682 42.7088 107.682 43.2528C107.682 43.7741 107.637 44.2274 107.546 44.6128H108.566C108.657 44.9754 108.702 45.4288 108.702 45.9728C108.702 46.4941 108.657 46.9474 108.566 47.3328H109.586C109.677 47.6954 109.722 48.1488 109.722 48.6928C109.722 49.2141 109.677 49.6674 109.586 50.0528H110.946C110.856 49.6674 110.81 49.2141 110.81 48.6928C110.81 48.1488 110.856 47.6954 110.946 47.3328H111.966C111.876 46.9474 111.83 46.4941 111.83 45.9728C111.83 45.4288 111.876 44.9754 111.966 44.6128H112.986C112.896 44.2274 112.85 43.7741 112.85 43.2528C112.85 42.7088 112.896 42.2554 112.986 41.8928H115.706C115.797 42.2554 115.842 42.7088 115.842 43.2528ZM128.776 45.9728C128.776 46.4941 128.73 46.9474 128.64 47.3328C128.73 47.6954 128.776 48.1488 128.776 48.6928C128.776 49.2141 128.73 49.6674 128.64 50.0528H121.5C121.59 50.4154 121.636 50.8688 121.636 51.4128C121.636 51.9341 121.59 52.3874 121.5 52.7728H127.28C127.37 53.1354 127.416 53.5888 127.416 54.1328C127.416 54.6541 127.37 55.1074 127.28 55.4928H120.48C120.389 55.1074 120.344 54.6541 120.344 54.1328C120.344 53.5888 120.389 53.1354 120.48 52.7728H118.78C118.689 52.3874 118.644 51.9341 118.644 51.4128C118.644 50.8688 118.689 50.4154 118.78 50.0528H117.76C117.669 49.6674 117.624 49.2141 117.624 48.6928C117.624 48.1488 117.669 47.6954 117.76 47.3328H118.78C118.689 46.9474 118.644 46.4941 118.644 45.9728C118.644 45.4288 118.689 44.9754 118.78 44.6128H120.48C120.389 44.2274 120.344 43.7741 120.344 43.2528C120.344 42.7088 120.389 42.2554 120.48 41.8928H127.28C127.37 42.2554 127.416 42.7088 127.416 43.2528C127.416 43.7741 127.37 44.2274 127.28 44.6128H128.64C128.73 44.9754 128.776 45.4288 128.776 45.9728ZM125.92 47.3328C125.829 46.9474 125.784 46.4941 125.784 45.9728C125.784 45.4288 125.829 44.9754 125.92 44.6128H121.5C121.59 44.9754 121.636 45.4288 121.636 45.9728C121.636 46.4941 121.59 46.9474 121.5 47.3328H125.92ZM140.213 52.7728C140.303 53.1354 140.349 53.5888 140.349 54.1328C140.349 54.6541 140.303 55.1074 140.213 55.4928H132.053C131.962 55.1074 131.917 54.6541 131.917 54.1328C131.917 53.5888 131.962 53.1354 132.053 52.7728H134.773C134.682 52.3874 134.637 51.9341 134.637 51.4128C134.637 50.8688 134.682 50.4154 134.773 50.0528C134.682 49.6674 134.637 49.2141 134.637 48.6928C134.637 48.1488 134.682 47.6954 134.773 47.3328C134.682 46.9474 134.637 46.4941 134.637 45.9728C134.637 45.4288 134.682 44.9754 134.773 44.6128C134.682 44.2274 134.637 43.7741 134.637 43.2528C134.637 42.7088 134.682 42.2554 134.773 41.8928C134.682 41.5074 134.637 41.0541 134.637 40.5328C134.637 39.9888 134.682 39.5354 134.773 39.1728H132.733C132.642 38.7874 132.597 38.3341 132.597 37.8128C132.597 37.2688 132.642 36.8154 132.733 36.4528H137.493C137.583 36.8154 137.629 37.2688 137.629 37.8128C137.629 38.3341 137.583 38.7874 137.493 39.1728C137.583 39.5354 137.629 39.9888 137.629 40.5328C137.629 41.0541 137.583 41.5074 137.493 41.8928C137.583 42.2554 137.629 42.7088 137.629 43.2528C137.629 43.7741 137.583 44.2274 137.493 44.6128C137.583 44.9754 137.629 45.4288 137.629 45.9728C137.629 46.4941 137.583 46.9474 137.493 47.3328C137.583 47.6954 137.629 48.1488 137.629 48.6928C137.629 49.2141 137.583 49.6674 137.493 50.0528C137.583 50.4154 137.629 50.8688 137.629 51.4128C137.629 51.9341 137.583 52.3874 137.493 52.7728H140.213ZM154.642 48.6928C154.642 49.2141 154.597 49.6674 154.506 50.0528H153.486C153.577 50.4154 153.622 50.8688 153.622 51.4128C153.622 51.9341 153.577 52.3874 153.486 52.7728H151.786C151.877 53.1354 151.922 53.5888 151.922 54.1328C151.922 54.6541 151.877 55.1074 151.786 55.4928H146.346C146.255 55.1074 146.21 54.6541 146.21 54.1328C146.21 53.5888 146.255 53.1354 146.346 52.7728H144.646C144.555 52.3874 144.51 51.9341 144.51 51.4128C144.51 50.8688 144.555 50.4154 144.646 50.0528H143.626C143.535 49.6674 143.49 49.2141 143.49 48.6928C143.49 48.1488 143.535 47.6954 143.626 47.3328H144.646C144.555 46.9474 144.51 46.4941 144.51 45.9728C144.51 45.4288 144.555 44.9754 144.646 44.6128H146.346C146.255 44.2274 146.21 43.7741 146.21 43.2528C146.21 42.7088 146.255 42.2554 146.346 41.8928H151.786C151.877 42.2554 151.922 42.7088 151.922 43.2528C151.922 43.7741 151.877 44.2274 151.786 44.6128H153.486C153.577 44.9754 153.622 45.4288 153.622 45.9728C153.622 46.4941 153.577 46.9474 153.486 47.3328H154.506C154.597 47.6954 154.642 48.1488 154.642 48.6928ZM151.786 50.0528C151.695 49.6674 151.65 49.2141 151.65 48.6928C151.65 48.1488 151.695 47.6954 151.786 47.3328H150.766C150.675 46.9474 150.63 46.4941 150.63 45.9728C150.63 45.4288 150.675 44.9754 150.766 44.6128H147.366C147.457 44.9754 147.502 45.4288 147.502 45.9728C147.502 46.4941 147.457 46.9474 147.366 47.3328H146.346C146.437 47.6954 146.482 48.1488 146.482 48.6928C146.482 49.2141 146.437 49.6674 146.346 50.0528H147.366C147.457 50.4154 147.502 50.8688 147.502 51.4128C147.502 51.9341 147.457 52.3874 147.366 52.7728H150.766C150.675 52.3874 150.63 51.9341 150.63 51.4128C150.63 50.8688 150.675 50.4154 150.766 50.0528H151.786ZM167.575 48.6928C167.575 49.2141 167.53 49.6674 167.439 50.0528H166.079C166.17 50.4154 166.215 50.8688 166.215 51.4128C166.215 51.9341 166.17 52.3874 166.079 52.7728H164.719C164.81 53.1354 164.855 53.5888 164.855 54.1328C164.855 54.6541 164.81 55.1074 164.719 55.4928H159.279C159.37 55.8554 159.415 56.3088 159.415 56.8528C159.415 57.3741 159.37 57.8274 159.279 58.2128C159.37 58.5754 159.415 59.0288 159.415 59.5728C159.415 60.0941 159.37 60.5474 159.279 60.9328H156.559C156.469 60.5474 156.423 60.0941 156.423 59.5728C156.423 59.0288 156.469 58.5754 156.559 58.2128C156.469 57.8274 156.423 57.3741 156.423 56.8528C156.423 56.3088 156.469 55.8554 156.559 55.4928C156.469 55.1074 156.423 54.6541 156.423 54.1328C156.423 53.5888 156.469 53.1354 156.559 52.7728C156.469 52.3874 156.423 51.9341 156.423 51.4128C156.423 50.8688 156.469 50.4154 156.559 50.0528C156.469 49.6674 156.423 49.2141 156.423 48.6928C156.423 48.1488 156.469 47.6954 156.559 47.3328C156.469 46.9474 156.423 46.4941 156.423 45.9728C156.423 45.4288 156.469 44.9754 156.559 44.6128C156.469 44.2274 156.423 43.7741 156.423 43.2528C156.423 42.7088 156.469 42.2554 156.559 41.8928H159.279C159.37 42.2554 159.415 42.7088 159.415 43.2528C159.415 43.7741 159.37 44.2274 159.279 44.6128H160.639C160.73 44.9754 160.775 45.4288 160.775 45.9728C160.775 46.4941 160.73 46.9474 160.639 47.3328H159.279C159.37 47.6954 159.415 48.1488 159.415 48.6928C159.415 49.2141 159.37 49.6674 159.279 50.0528C159.37 50.4154 159.415 50.8688 159.415 51.4128C159.415 51.9341 159.37 52.3874 159.279 52.7728H163.359C163.269 52.3874 163.223 51.9341 163.223 51.4128C163.223 50.8688 163.269 50.4154 163.359 50.0528H164.719C164.629 49.6674 164.583 49.2141 164.583 48.6928C164.583 48.1488 164.629 47.6954 164.719 47.3328H163.359C163.269 46.9474 163.223 46.4941 163.223 45.9728C163.223 45.4288 163.269 44.9754 163.359 44.6128H160.639C160.549 44.2274 160.503 43.7741 160.503 43.2528C160.503 42.7088 160.549 42.2554 160.639 41.8928H164.719C164.81 42.2554 164.855 42.7088 164.855 43.2528C164.855 43.7741 164.81 44.2274 164.719 44.6128H166.079C166.17 44.9754 166.215 45.4288 166.215 45.9728C166.215 46.4941 166.17 46.9474 166.079 47.3328H167.439C167.53 47.6954 167.575 48.1488 167.575 48.6928ZM171.329 43.2528C171.329 43.7741 171.283 44.2274 171.193 44.6128H172.213C172.303 44.9754 172.349 45.4288 172.349 45.9728C172.349 46.4941 172.303 46.9474 172.213 47.3328C172.303 47.6954 172.349 48.1488 172.349 48.6928C172.349 49.2141 172.303 49.6674 172.213 50.0528C172.303 50.4154 172.349 50.8688 172.349 51.4128C172.349 51.9341 172.303 52.3874 172.213 52.7728C172.303 53.1354 172.349 53.5888 172.349 54.1328C172.349 54.6541 172.303 55.1074 172.213 55.4928H169.493C169.402 55.1074 169.357 54.6541 169.357 54.1328C169.357 53.5888 169.402 53.1354 169.493 52.7728C169.402 52.3874 169.357 51.9341 169.357 51.4128C169.357 50.8688 169.402 50.4154 169.493 50.0528C169.402 49.6674 169.357 49.2141 169.357 48.6928C169.357 48.1488 169.402 47.6954 169.493 47.3328C169.402 46.9474 169.357 46.4941 169.357 45.9728C169.357 45.4288 169.402 44.9754 169.493 44.6128C169.402 44.2274 169.357 43.7741 169.357 43.2528C169.357 42.7088 169.402 42.2554 169.493 41.8928H171.193C171.283 42.2554 171.329 42.7088 171.329 43.2528ZM175.069 43.2528C175.069 43.7741 175.023 44.2274 174.933 44.6128H175.953C176.043 44.9754 176.089 45.4288 176.089 45.9728C176.089 46.4941 176.043 46.9474 175.953 47.3328C176.043 47.6954 176.089 48.1488 176.089 48.6928C176.089 49.2141 176.043 49.6674 175.953 50.0528C176.043 50.4154 176.089 50.8688 176.089 51.4128C176.089 51.9341 176.043 52.3874 175.953 52.7728C176.043 53.1354 176.089 53.5888 176.089 54.1328C176.089 54.6541 176.043 55.1074 175.953 55.4928H173.913C173.822 55.1074 173.777 54.6541 173.777 54.1328C173.777 53.5888 173.822 53.1354 173.913 52.7728C173.822 52.3874 173.777 51.9341 173.777 51.4128C173.777 50.8688 173.822 50.4154 173.913 50.0528C173.822 49.6674 173.777 49.2141 173.777 48.6928C173.777 48.1488 173.822 47.6954 173.913 47.3328C173.822 46.9474 173.777 46.4941 173.777 45.9728C173.777 45.4288 173.822 44.9754 173.913 44.6128H172.213C172.122 44.2274 172.077 43.7741 172.077 43.2528C172.077 42.7088 172.122 42.2554 172.213 41.8928H174.933C175.023 42.2554 175.069 42.7088 175.069 43.2528ZM180.373 47.3328C180.463 47.6954 180.509 48.1488 180.509 48.6928C180.509 49.2141 180.463 49.6674 180.373 50.0528C180.463 50.4154 180.509 50.8688 180.509 51.4128C180.509 51.9341 180.463 52.3874 180.373 52.7728C180.463 53.1354 180.509 53.5888 180.509 54.1328C180.509 54.6541 180.463 55.1074 180.373 55.4928H177.653C177.562 55.1074 177.517 54.6541 177.517 54.1328C177.517 53.5888 177.562 53.1354 177.653 52.7728C177.562 52.3874 177.517 51.9341 177.517 51.4128C177.517 50.8688 177.562 50.4154 177.653 50.0528C177.562 49.6674 177.517 49.2141 177.517 48.6928C177.517 48.1488 177.562 47.6954 177.653 47.3328C177.562 46.9474 177.517 46.4941 177.517 45.9728C177.517 45.4288 177.562 44.9754 177.653 44.6128H175.953C175.862 44.2274 175.817 43.7741 175.817 43.2528C175.817 42.7088 175.862 42.2554 175.953 41.8928H179.013C179.103 42.2554 179.149 42.7088 179.149 43.2528C179.149 43.7741 179.103 44.2274 179.013 44.6128H180.373C180.463 44.9754 180.509 45.4288 180.509 45.9728C180.509 46.4941 180.463 46.9474 180.373 47.3328ZM193.442 45.9728C193.442 46.4941 193.397 46.9474 193.306 47.3328C193.397 47.6954 193.442 48.1488 193.442 48.6928C193.442 49.2141 193.397 49.6674 193.306 50.0528H186.166C186.257 50.4154 186.302 50.8688 186.302 51.4128C186.302 51.9341 186.257 52.3874 186.166 52.7728H191.946C192.037 53.1354 192.082 53.5888 192.082 54.1328C192.082 54.6541 192.037 55.1074 191.946 55.4928H185.146C185.055 55.1074 185.01 54.6541 185.01 54.1328C185.01 53.5888 185.055 53.1354 185.146 52.7728H183.446C183.355 52.3874 183.31 51.9341 183.31 51.4128C183.31 50.8688 183.355 50.4154 183.446 50.0528H182.426C182.335 49.6674 182.29 49.2141 182.29 48.6928C182.29 48.1488 182.335 47.6954 182.426 47.3328H183.446C183.355 46.9474 183.31 46.4941 183.31 45.9728C183.31 45.4288 183.355 44.9754 183.446 44.6128H185.146C185.055 44.2274 185.01 43.7741 185.01 43.2528C185.01 42.7088 185.055 42.2554 185.146 41.8928H191.946C192.037 42.2554 192.082 42.7088 192.082 43.2528C192.082 43.7741 192.037 44.2274 191.946 44.6128H193.306C193.397 44.9754 193.442 45.4288 193.442 45.9728ZM190.586 47.3328C190.495 46.9474 190.45 46.4941 190.45 45.9728C190.45 45.4288 190.495 44.9754 190.586 44.6128H186.166C186.257 44.9754 186.302 45.4288 186.302 45.9728C186.302 46.4941 186.257 46.9474 186.166 47.3328H190.586ZM197.875 43.2528C197.875 43.7741 197.83 44.2274 197.739 44.6128H199.099C199.19 44.9754 199.235 45.4288 199.235 45.9728C199.235 46.4941 199.19 46.9474 199.099 47.3328H198.079C198.17 47.6954 198.215 48.1488 198.215 48.6928C198.215 49.2141 198.17 49.6674 198.079 50.0528C198.17 50.4154 198.215 50.8688 198.215 51.4128C198.215 51.9341 198.17 52.3874 198.079 52.7728C198.17 53.1354 198.215 53.5888 198.215 54.1328C198.215 54.6541 198.17 55.1074 198.079 55.4928H195.359C195.269 55.1074 195.223 54.6541 195.223 54.1328C195.223 53.5888 195.269 53.1354 195.359 52.7728C195.269 52.3874 195.223 51.9341 195.223 51.4128C195.223 50.8688 195.269 50.4154 195.359 50.0528C195.269 49.6674 195.223 49.2141 195.223 48.6928C195.223 48.1488 195.269 47.6954 195.359 47.3328C195.269 46.9474 195.223 46.4941 195.223 45.9728C195.223 45.4288 195.269 44.9754 195.359 44.6128C195.269 44.2274 195.223 43.7741 195.223 43.2528C195.223 42.7088 195.269 42.2554 195.359 41.8928H197.739C197.83 42.2554 197.875 42.7088 197.875 43.2528ZM206.239 47.3328C206.33 47.6954 206.375 48.1488 206.375 48.6928C206.375 49.2141 206.33 49.6674 206.239 50.0528C206.33 50.4154 206.375 50.8688 206.375 51.4128C206.375 51.9341 206.33 52.3874 206.239 52.7728C206.33 53.1354 206.375 53.5888 206.375 54.1328C206.375 54.6541 206.33 55.1074 206.239 55.4928H203.519C203.429 55.1074 203.383 54.6541 203.383 54.1328C203.383 53.5888 203.429 53.1354 203.519 52.7728C203.429 52.3874 203.383 51.9341 203.383 51.4128C203.383 50.8688 203.429 50.4154 203.519 50.0528C203.429 49.6674 203.383 49.2141 203.383 48.6928C203.383 48.1488 203.429 47.6954 203.519 47.3328C203.429 46.9474 203.383 46.4941 203.383 45.9728C203.383 45.4288 203.429 44.9754 203.519 44.6128H199.099C199.009 44.2274 198.963 43.7741 198.963 43.2528C198.963 42.7088 199.009 42.2554 199.099 41.8928H204.539C204.63 42.2554 204.675 42.7088 204.675 43.2528C204.675 43.7741 204.63 44.2274 204.539 44.6128H206.239C206.33 44.9754 206.375 45.4288 206.375 45.9728C206.375 46.4941 206.33 46.9474 206.239 47.3328ZM217.812 52.7728C217.903 53.1354 217.948 53.5888 217.948 54.1328C217.948 54.6541 217.903 55.1074 217.812 55.4928H212.372C212.282 55.1074 212.236 54.6541 212.236 54.1328C212.236 53.5888 212.282 53.1354 212.372 52.7728H211.012C210.922 52.3874 210.876 51.9341 210.876 51.4128C210.876 50.8688 210.922 50.4154 211.012 50.0528C210.922 49.6674 210.876 49.2141 210.876 48.6928C210.876 48.1488 210.922 47.6954 211.012 47.3328C210.922 46.9474 210.876 46.4941 210.876 45.9728C210.876 45.4288 210.922 44.9754 211.012 44.6128H208.292C208.202 44.2274 208.156 43.7741 208.156 43.2528C208.156 42.7088 208.202 42.2554 208.292 41.8928H211.012C210.922 41.5074 210.876 41.0541 210.876 40.5328C210.876 39.9888 210.922 39.5354 211.012 39.1728C210.922 38.7874 210.876 38.3341 210.876 37.8128C210.876 37.2688 210.922 36.8154 211.012 36.4528H213.732C213.823 36.8154 213.868 37.2688 213.868 37.8128C213.868 38.3341 213.823 38.7874 213.732 39.1728C213.823 39.5354 213.868 39.9888 213.868 40.5328C213.868 41.0541 213.823 41.5074 213.732 41.8928H217.812C217.903 42.2554 217.948 42.7088 217.948 43.2528C217.948 43.7741 217.903 44.2274 217.812 44.6128H213.732C213.823 44.9754 213.868 45.4288 213.868 45.9728C213.868 46.4941 213.823 46.9474 213.732 47.3328C213.823 47.6954 213.868 48.1488 213.868 48.6928C213.868 49.2141 213.823 49.6674 213.732 50.0528C213.823 50.4154 213.868 50.8688 213.868 51.4128C213.868 51.9341 213.823 52.3874 213.732 52.7728H217.812Z" fill="white"/>
<defs>
<clipPath id="clip0_20_313">
<rect width="30.583" height="38.881" fill="white" transform="matrix(0.105889 0.994378 -0.999999 0.00110743 129.881 0)"/>
</clipPath>
</defs>
</svg>
