<svg width="224" height="62" viewBox="0 0 224 62" fill="none" xmlns="http://www.w3.org/2000/svg">
<path d="M12.24 12.3328C12.3307 12.6954 12.376 13.1488 12.376 13.6928C12.376 14.2141 12.3307 14.6674 12.24 15.0528C12.3307 15.4154 12.376 15.8688 12.376 16.4128C12.376 16.9341 12.3307 17.3874 12.24 17.7728H10.88C10.9707 18.1354 11.016 18.5888 11.016 19.1328C11.016 19.6541 10.9707 20.1074 10.88 20.4928H2.72C2.62933 20.1074 2.584 19.6541 2.584 19.1328C2.584 18.5888 2.62933 18.1354 2.72 17.7728H1.36C1.26933 17.3874 1.224 16.9341 1.224 16.4128C1.224 15.8688 1.26933 15.4154 1.36 15.0528H4.08C4.17067 15.4154 4.216 15.8688 4.216 16.4128C4.216 16.9341 4.17067 17.3874 4.08 17.7728H9.52C9.42933 17.3874 9.384 16.9341 9.384 16.4128C9.384 15.8688 9.42933 15.4154 9.52 15.0528C9.42933 14.6674 9.384 14.2141 9.384 13.6928C9.384 13.1488 9.42933 12.6954 9.52 12.3328H2.72C2.62933 11.9474 2.584 11.4941 2.584 10.9728C2.584 10.4288 2.62933 9.97542 2.72 9.61275H1.36C1.26933 9.22742 1.224 8.77408 1.224 8.25275C1.224 7.70875 1.26933 7.25542 1.36 6.89275C1.26933 6.50742 1.224 6.05408 1.224 5.53275C1.224 4.98875 1.26933 4.53542 1.36 4.17275H2.72C2.62933 3.78742 2.584 3.33408 2.584 2.81275C2.584 2.26875 2.62933 1.81542 2.72 1.45275H10.88C10.9707 1.81542 11.016 2.26875 11.016 2.81275C11.016 3.33408 10.9707 3.78742 10.88 4.17275H12.24C12.3307 4.53542 12.376 4.98875 12.376 5.53275C12.376 6.05408 12.3307 6.50742 12.24 6.89275H9.52C9.42933 6.50742 9.384 6.05408 9.384 5.53275C9.384 4.98875 9.42933 4.53542 9.52 4.17275H4.08C4.17067 4.53542 4.216 4.98875 4.216 5.53275C4.216 6.05408 4.17067 6.50742 4.08 6.89275C4.17067 7.25542 4.216 7.70875 4.216 8.25275C4.216 8.77408 4.17067 9.22742 4.08 9.61275H10.88C10.9707 9.97542 11.016 10.4288 11.016 10.9728C11.016 11.4941 10.9707 11.9474 10.88 12.3328H12.24ZM18.3733 4.17275C18.2826 3.78742 18.2373 3.33408 18.2373 2.81275C18.2373 2.26875 18.2826 1.81542 18.3733 1.45275H21.0933C21.1839 1.81542 21.2293 2.26875 21.2293 2.81275C21.2293 3.33408 21.1839 3.78742 21.0933 4.17275H18.3733ZM23.8133 17.7728C23.9039 18.1354 23.9493 18.5888 23.9493 19.1328C23.9493 19.6541 23.9039 20.1074 23.8133 20.4928H15.6533C15.5626 20.1074 15.5173 19.6541 15.5173 19.1328C15.5173 18.5888 15.5626 18.1354 15.6533 17.7728H18.3733C18.2826 17.3874 18.2373 16.9341 18.2373 16.4128C18.2373 15.8688 18.2826 15.4154 18.3733 15.0528C18.2826 14.6674 18.2373 14.2141 18.2373 13.6928C18.2373 13.1488 18.2826 12.6954 18.3733 12.3328C18.2826 11.9474 18.2373 11.4941 18.2373 10.9728C18.2373 10.4288 18.2826 9.97542 18.3733 9.61275H16.3333C16.2426 9.22742 16.1973 8.77408 16.1973 8.25275C16.1973 7.70875 16.2426 7.25542 16.3333 6.89275H21.0933C21.1839 7.25542 21.2293 7.70875 21.2293 8.25275C21.2293 8.77408 21.1839 9.22742 21.0933 9.61275C21.1839 9.97542 21.2293 10.4288 21.2293 10.9728C21.2293 11.4941 21.1839 11.9474 21.0933 12.3328C21.1839 12.6954 21.2293 13.1488 21.2293 13.6928C21.2293 14.2141 21.1839 14.6674 21.0933 15.0528C21.1839 15.4154 21.2293 15.8688 21.2293 16.4128C21.2293 16.9341 21.1839 17.3874 21.0933 17.7728H23.8133ZM36.7466 17.7728C36.8372 18.1354 36.8826 18.5888 36.8826 19.1328C36.8826 19.6541 36.8372 20.1074 36.7466 20.4928H31.3066C31.2159 20.1074 31.1706 19.6541 31.1706 19.1328C31.1706 18.5888 31.2159 18.1354 31.3066 17.7728H29.9466C29.8559 17.3874 29.8106 16.9341 29.8106 16.4128C29.8106 15.8688 29.8559 15.4154 29.9466 15.0528C29.8559 14.6674 29.8106 14.2141 29.8106 13.6928C29.8106 13.1488 29.8559 12.6954 29.9466 12.3328C29.8559 11.9474 29.8106 11.4941 29.8106 10.9728C29.8106 10.4288 29.8559 9.97542 29.9466 9.61275H27.2266C27.1359 9.22742 27.0906 8.77408 27.0906 8.25275C27.0906 7.70875 27.1359 7.25542 27.2266 6.89275H29.9466C29.8559 6.50742 29.8106 6.05408 29.8106 5.53275C29.8106 4.98875 29.8559 4.53542 29.9466 4.17275C29.8559 3.78742 29.8106 3.33408 29.8106 2.81275C29.8106 2.26875 29.8559 1.81542 29.9466 1.45275H32.6666C32.7572 1.81542 32.8026 2.26875 32.8026 2.81275C32.8026 3.33408 32.7572 3.78742 32.6666 4.17275C32.7572 4.53542 32.8026 4.98875 32.8026 5.53275C32.8026 6.05408 32.7572 6.50742 32.6666 6.89275H36.7466C36.8372 7.25542 36.8826 7.70875 36.8826 8.25275C36.8826 8.77408 36.8372 9.22742 36.7466 9.61275H32.6666C32.7572 9.97542 32.8026 10.4288 32.8026 10.9728C32.8026 11.4941 32.7572 11.9474 32.6666 12.3328C32.7572 12.6954 32.8026 13.1488 32.8026 13.6928C32.8026 14.2141 32.7572 14.6674 32.6666 15.0528C32.7572 15.4154 32.8026 15.8688 32.8026 16.4128C32.8026 16.9341 32.7572 17.3874 32.6666 17.7728H36.7466ZM51.1758 10.9728C51.1758 11.4941 51.1305 11.9474 51.0398 12.3328C51.1305 12.6954 51.1758 13.1488 51.1758 13.6928C51.1758 14.2141 51.1305 14.6674 51.0398 15.0528H43.8998C43.9905 15.4154 44.0358 15.8688 44.0358 16.4128C44.0358 16.9341 43.9905 17.3874 43.8998 17.7728H49.6798C49.7705 18.1354 49.8158 18.5888 49.8158 19.1328C49.8158 19.6541 49.7705 20.1074 49.6798 20.4928H42.8798C42.7892 20.1074 42.7438 19.6541 42.7438 19.1328C42.7438 18.5888 42.7892 18.1354 42.8798 17.7728H41.1798C41.0892 17.3874 41.0438 16.9341 41.0438 16.4128C41.0438 15.8688 41.0892 15.4154 41.1798 15.0528H40.1598C40.0692 14.6674 40.0238 14.2141 40.0238 13.6928C40.0238 13.1488 40.0692 12.6954 40.1598 12.3328H41.1798C41.0892 11.9474 41.0438 11.4941 41.0438 10.9728C41.0438 10.4288 41.0892 9.97542 41.1798 9.61275H42.8798C42.7892 9.22742 42.7438 8.77408 42.7438 8.25275C42.7438 7.70875 42.7892 7.25542 42.8798 6.89275H49.6798C49.7705 7.25542 49.8158 7.70875 49.8158 8.25275C49.8158 8.77408 49.7705 9.22742 49.6798 9.61275H51.0398C51.1305 9.97542 51.1758 10.4288 51.1758 10.9728ZM48.3198 12.3328C48.2292 11.9474 48.1838 11.4941 48.1838 10.9728C48.1838 10.4288 48.2292 9.97542 48.3198 9.61275H43.8998C43.9905 9.97542 44.0358 10.4288 44.0358 10.9728C44.0358 11.4941 43.9905 11.9474 43.8998 12.3328H48.3198ZM63.9731 43.6128C64.0638 43.9754 64.1091 44.4288 64.1091 44.9728C64.1091 45.4941 64.0638 45.9474 63.9731 46.3328C64.0638 46.6954 64.1091 47.1488 64.1091 47.6928C64.1091 48.2141 64.0638 48.6674 63.9731 49.0528H62.6131C62.7038 49.4154 62.7491 49.8688 62.7491 50.4128C62.7491 50.9341 62.7038 51.3874 62.6131 51.7728H61.2531C61.3438 52.1354 61.3891 52.5888 61.3891 53.1328C61.3891 53.6541 61.3438 54.1074 61.2531 54.4928H53.0931C53.0025 54.1074 52.9571 53.6541 52.9571 53.1328C52.9571 52.5888 53.0025 52.1354 53.0931 51.7728C53.0025 51.3874 52.9571 50.9341 52.9571 50.4128C52.9571 49.8688 53.0025 49.4154 53.0931 49.0528C53.0025 48.6674 52.9571 48.2141 52.9571 47.6928C52.9571 47.1488 53.0025 46.6954 53.0931 46.3328C53.0025 45.9474 52.9571 45.4941 52.9571 44.9728C52.9571 44.4288 53.0025 43.9754 53.0931 43.6128C53.0025 43.2274 52.9571 42.7741 52.9571 42.2528C52.9571 41.7088 53.0025 41.2554 53.0931 40.8928C53.0025 40.5074 52.9571 40.0541 52.9571 39.5328C52.9571 38.9888 53.0025 38.5354 53.0931 38.1728C53.0025 37.7874 52.9571 37.3341 52.9571 36.8128C52.9571 36.2688 53.0025 35.8154 53.0931 35.4528H61.2531C61.3438 35.8154 61.3891 36.2688 61.3891 36.8128C61.3891 37.3341 61.3438 37.7874 61.2531 38.1728H62.6131C62.7038 38.5354 62.7491 38.9888 62.7491 39.5328C62.7491 40.0541 62.7038 40.5074 62.6131 40.8928H63.9731C64.0638 41.2554 64.1091 41.7088 64.1091 42.2528C64.1091 42.7741 64.0638 43.2274 63.9731 43.6128ZM61.2531 49.0528C61.1625 48.6674 61.1171 48.2141 61.1171 47.6928C61.1171 47.1488 61.1625 46.6954 61.2531 46.3328C61.1625 45.9474 61.1171 45.4941 61.1171 44.9728C61.1171 44.4288 61.1625 43.9754 61.2531 43.6128C61.1625 43.2274 61.1171 42.7741 61.1171 42.2528C61.1171 41.7088 61.1625 41.2554 61.2531 40.8928H59.8931C59.8025 40.5074 59.7571 40.0541 59.7571 39.5328C59.7571 38.9888 59.8025 38.5354 59.8931 38.1728H55.8131C55.9038 38.5354 55.9491 38.9888 55.9491 39.5328C55.9491 40.0541 55.9038 40.5074 55.8131 40.8928C55.9038 41.2554 55.9491 41.7088 55.9491 42.2528C55.9491 42.7741 55.9038 43.2274 55.8131 43.6128C55.9038 43.9754 55.9491 44.4288 55.9491 44.9728C55.9491 45.4941 55.9038 45.9474 55.8131 46.3328C55.9038 46.6954 55.9491 47.1488 55.9491 47.6928C55.9491 48.2141 55.9038 48.6674 55.8131 49.0528C55.9038 49.4154 55.9491 49.8688 55.9491 50.4128C55.9491 50.9341 55.9038 51.3874 55.8131 51.7728H59.8931C59.8025 51.3874 59.7571 50.9341 59.7571 50.4128C59.7571 49.8688 59.8025 49.4154 59.8931 49.0528H61.2531ZM77.0424 44.9728C77.0424 45.4941 76.9971 45.9474 76.9064 46.3328C76.9971 46.6954 77.0424 47.1488 77.0424 47.6928C77.0424 48.2141 76.9971 48.6674 76.9064 49.0528H69.7664C69.8571 49.4154 69.9024 49.8688 69.9024 50.4128C69.9024 50.9341 69.8571 51.3874 69.7664 51.7728H75.5464C75.6371 52.1354 75.6824 52.5888 75.6824 53.1328C75.6824 53.6541 75.6371 54.1074 75.5464 54.4928H68.7464C68.6557 54.1074 68.6104 53.6541 68.6104 53.1328C68.6104 52.5888 68.6557 52.1354 68.7464 51.7728H67.0464C66.9557 51.3874 66.9104 50.9341 66.9104 50.4128C66.9104 49.8688 66.9557 49.4154 67.0464 49.0528H66.0264C65.9357 48.6674 65.8904 48.2141 65.8904 47.6928C65.8904 47.1488 65.9357 46.6954 66.0264 46.3328H67.0464C66.9557 45.9474 66.9104 45.4941 66.9104 44.9728C66.9104 44.4288 66.9557 43.9754 67.0464 43.6128H68.7464C68.6557 43.2274 68.6104 42.7741 68.6104 42.2528C68.6104 41.7088 68.6557 41.2554 68.7464 40.8928H75.5464C75.6371 41.2554 75.6824 41.7088 75.6824 42.2528C75.6824 42.7741 75.6371 43.2274 75.5464 43.6128H76.9064C76.9971 43.9754 77.0424 44.4288 77.0424 44.9728ZM74.1864 46.3328C74.0957 45.9474 74.0504 45.4941 74.0504 44.9728C74.0504 44.4288 74.0957 43.9754 74.1864 43.6128H69.7664C69.8571 43.9754 69.9024 44.4288 69.9024 44.9728C69.9024 45.4941 69.8571 45.9474 69.7664 46.3328H74.1864ZM89.9757 42.2528C89.9757 42.7741 89.9304 43.2274 89.8397 43.6128H88.8197C88.9104 43.9754 88.9557 44.4288 88.9557 44.9728C88.9557 45.4941 88.9104 45.9474 88.8197 46.3328H87.7997C87.8904 46.6954 87.9357 47.1488 87.9357 47.6928C87.9357 48.2141 87.8904 48.6674 87.7997 49.0528H87.1197C87.2104 49.4154 87.2557 49.8688 87.2557 50.4128C87.2557 50.9341 87.2104 51.3874 87.1197 51.7728H85.7597C85.8504 52.1354 85.8957 52.5888 85.8957 53.1328C85.8957 53.6541 85.8504 54.1074 85.7597 54.4928H83.0397C82.949 54.1074 82.9037 53.6541 82.9037 53.1328C82.9037 52.5888 82.949 52.1354 83.0397 51.7728H81.6797C81.589 51.3874 81.5437 50.9341 81.5437 50.4128C81.5437 49.8688 81.589 49.4154 81.6797 49.0528H80.9997C80.909 48.6674 80.8637 48.2141 80.8637 47.6928C80.8637 47.1488 80.909 46.6954 80.9997 46.3328H79.9797C79.889 45.9474 79.8437 45.4941 79.8437 44.9728C79.8437 44.4288 79.889 43.9754 79.9797 43.6128H78.9597C78.869 43.2274 78.8237 42.7741 78.8237 42.2528C78.8237 41.7088 78.869 41.2554 78.9597 40.8928H81.6797C81.7704 41.2554 81.8157 41.7088 81.8157 42.2528C81.8157 42.7741 81.7704 43.2274 81.6797 43.6128H82.6997C82.7904 43.9754 82.8357 44.4288 82.8357 44.9728C82.8357 45.4941 82.7904 45.9474 82.6997 46.3328H83.7197C83.8104 46.6954 83.8557 47.1488 83.8557 47.6928C83.8557 48.2141 83.8104 48.6674 83.7197 49.0528H85.0797C84.989 48.6674 84.9437 48.2141 84.9437 47.6928C84.9437 47.1488 84.989 46.6954 85.0797 46.3328H86.0997C86.009 45.9474 85.9637 45.4941 85.9637 44.9728C85.9637 44.4288 86.009 43.9754 86.0997 43.6128H87.1197C87.029 43.2274 86.9837 42.7741 86.9837 42.2528C86.9837 41.7088 87.029 41.2554 87.1197 40.8928H89.8397C89.9304 41.2554 89.9757 41.7088 89.9757 42.2528ZM102.909 44.9728C102.909 45.4941 102.864 45.9474 102.773 46.3328C102.864 46.6954 102.909 47.1488 102.909 47.6928C102.909 48.2141 102.864 48.6674 102.773 49.0528H95.633C95.7236 49.4154 95.769 49.8688 95.769 50.4128C95.769 50.9341 95.7236 51.3874 95.633 51.7728H101.413C101.504 52.1354 101.549 52.5888 101.549 53.1328C101.549 53.6541 101.504 54.1074 101.413 54.4928H94.613C94.5223 54.1074 94.477 53.6541 94.477 53.1328C94.477 52.5888 94.5223 52.1354 94.613 51.7728H92.913C92.8223 51.3874 92.777 50.9341 92.777 50.4128C92.777 49.8688 92.8223 49.4154 92.913 49.0528H91.893C91.8023 48.6674 91.757 48.2141 91.757 47.6928C91.757 47.1488 91.8023 46.6954 91.893 46.3328H92.913C92.8223 45.9474 92.777 45.4941 92.777 44.9728C92.777 44.4288 92.8223 43.9754 92.913 43.6128H94.613C94.5223 43.2274 94.477 42.7741 94.477 42.2528C94.477 41.7088 94.5223 41.2554 94.613 40.8928H101.413C101.504 41.2554 101.549 41.7088 101.549 42.2528C101.549 42.7741 101.504 43.2274 101.413 43.6128H102.773C102.864 43.9754 102.909 44.4288 102.909 44.9728ZM100.053 46.3328C99.9623 45.9474 99.917 45.4941 99.917 44.9728C99.917 44.4288 99.9623 43.9754 100.053 43.6128H95.633C95.7236 43.9754 95.769 44.4288 95.769 44.9728C95.769 45.4941 95.7236 45.9474 95.633 46.3328H100.053ZM114.346 51.7728C114.437 52.1354 114.482 52.5888 114.482 53.1328C114.482 53.6541 114.437 54.1074 114.346 54.4928H106.186C106.096 54.1074 106.05 53.6541 106.05 53.1328C106.05 52.5888 106.096 52.1354 106.186 51.7728H108.906C108.816 51.3874 108.77 50.9341 108.77 50.4128C108.77 49.8688 108.816 49.4154 108.906 49.0528C108.816 48.6674 108.77 48.2141 108.77 47.6928C108.77 47.1488 108.816 46.6954 108.906 46.3328C108.816 45.9474 108.77 45.4941 108.77 44.9728C108.77 44.4288 108.816 43.9754 108.906 43.6128C108.816 43.2274 108.77 42.7741 108.77 42.2528C108.77 41.7088 108.816 41.2554 108.906 40.8928C108.816 40.5074 108.77 40.0541 108.77 39.5328C108.77 38.9888 108.816 38.5354 108.906 38.1728H106.866C106.776 37.7874 106.73 37.3341 106.73 36.8128C106.73 36.2688 106.776 35.8154 106.866 35.4528H111.626C111.717 35.8154 111.762 36.2688 111.762 36.8128C111.762 37.3341 111.717 37.7874 111.626 38.1728C111.717 38.5354 111.762 38.9888 111.762 39.5328C111.762 40.0541 111.717 40.5074 111.626 40.8928C111.717 41.2554 111.762 41.7088 111.762 42.2528C111.762 42.7741 111.717 43.2274 111.626 43.6128C111.717 43.9754 111.762 44.4288 111.762 44.9728C111.762 45.4941 111.717 45.9474 111.626 46.3328C111.717 46.6954 111.762 47.1488 111.762 47.6928C111.762 48.2141 111.717 48.6674 111.626 49.0528C111.717 49.4154 111.762 49.8688 111.762 50.4128C111.762 50.9341 111.717 51.3874 111.626 51.7728H114.346ZM128.776 47.6928C128.776 48.2141 128.73 48.6674 128.64 49.0528H127.62C127.71 49.4154 127.756 49.8688 127.756 50.4128C127.756 50.9341 127.71 51.3874 127.62 51.7728H125.92C126.01 52.1354 126.056 52.5888 126.056 53.1328C126.056 53.6541 126.01 54.1074 125.92 54.4928H120.48C120.389 54.1074 120.344 53.6541 120.344 53.1328C120.344 52.5888 120.389 52.1354 120.48 51.7728H118.78C118.689 51.3874 118.644 50.9341 118.644 50.4128C118.644 49.8688 118.689 49.4154 118.78 49.0528H117.76C117.669 48.6674 117.624 48.2141 117.624 47.6928C117.624 47.1488 117.669 46.6954 117.76 46.3328H118.78C118.689 45.9474 118.644 45.4941 118.644 44.9728C118.644 44.4288 118.689 43.9754 118.78 43.6128H120.48C120.389 43.2274 120.344 42.7741 120.344 42.2528C120.344 41.7088 120.389 41.2554 120.48 40.8928H125.92C126.01 41.2554 126.056 41.7088 126.056 42.2528C126.056 42.7741 126.01 43.2274 125.92 43.6128H127.62C127.71 43.9754 127.756 44.4288 127.756 44.9728C127.756 45.4941 127.71 45.9474 127.62 46.3328H128.64C128.73 46.6954 128.776 47.1488 128.776 47.6928ZM125.92 49.0528C125.829 48.6674 125.784 48.2141 125.784 47.6928C125.784 47.1488 125.829 46.6954 125.92 46.3328H124.9C124.809 45.9474 124.764 45.4941 124.764 44.9728C124.764 44.4288 124.809 43.9754 124.9 43.6128H121.5C121.59 43.9754 121.636 44.4288 121.636 44.9728C121.636 45.4941 121.59 45.9474 121.5 46.3328H120.48C120.57 46.6954 120.616 47.1488 120.616 47.6928C120.616 48.2141 120.57 48.6674 120.48 49.0528H121.5C121.59 49.4154 121.636 49.8688 121.636 50.4128C121.636 50.9341 121.59 51.3874 121.5 51.7728H124.9C124.809 51.3874 124.764 50.9341 124.764 50.4128C124.764 49.8688 124.809 49.4154 124.9 49.0528H125.92ZM141.709 47.6928C141.709 48.2141 141.663 48.6674 141.573 49.0528H140.213C140.303 49.4154 140.349 49.8688 140.349 50.4128C140.349 50.9341 140.303 51.3874 140.213 51.7728H138.853C138.943 52.1354 138.989 52.5888 138.989 53.1328C138.989 53.6541 138.943 54.1074 138.853 54.4928H133.413C133.503 54.8554 133.549 55.3088 133.549 55.8528C133.549 56.3741 133.503 56.8274 133.413 57.2128C133.503 57.5754 133.549 58.0288 133.549 58.5728C133.549 59.0941 133.503 59.5474 133.413 59.9328H130.693C130.602 59.5474 130.557 59.0941 130.557 58.5728C130.557 58.0288 130.602 57.5754 130.693 57.2128C130.602 56.8274 130.557 56.3741 130.557 55.8528C130.557 55.3088 130.602 54.8554 130.693 54.4928C130.602 54.1074 130.557 53.6541 130.557 53.1328C130.557 52.5888 130.602 52.1354 130.693 51.7728C130.602 51.3874 130.557 50.9341 130.557 50.4128C130.557 49.8688 130.602 49.4154 130.693 49.0528C130.602 48.6674 130.557 48.2141 130.557 47.6928C130.557 47.1488 130.602 46.6954 130.693 46.3328C130.602 45.9474 130.557 45.4941 130.557 44.9728C130.557 44.4288 130.602 43.9754 130.693 43.6128C130.602 43.2274 130.557 42.7741 130.557 42.2528C130.557 41.7088 130.602 41.2554 130.693 40.8928H133.413C133.503 41.2554 133.549 41.7088 133.549 42.2528C133.549 42.7741 133.503 43.2274 133.413 43.6128H134.773C134.863 43.9754 134.909 44.4288 134.909 44.9728C134.909 45.4941 134.863 45.9474 134.773 46.3328H133.413C133.503 46.6954 133.549 47.1488 133.549 47.6928C133.549 48.2141 133.503 48.6674 133.413 49.0528C133.503 49.4154 133.549 49.8688 133.549 50.4128C133.549 50.9341 133.503 51.3874 133.413 51.7728H137.493C137.402 51.3874 137.357 50.9341 137.357 50.4128C137.357 49.8688 137.402 49.4154 137.493 49.0528H138.853C138.762 48.6674 138.717 48.2141 138.717 47.6928C138.717 47.1488 138.762 46.6954 138.853 46.3328H137.493C137.402 45.9474 137.357 45.4941 137.357 44.9728C137.357 44.4288 137.402 43.9754 137.493 43.6128H134.773C134.682 43.2274 134.637 42.7741 134.637 42.2528C134.637 41.7088 134.682 41.2554 134.773 40.8928H138.853C138.943 41.2554 138.989 41.7088 138.989 42.2528C138.989 42.7741 138.943 43.2274 138.853 43.6128H140.213C140.303 43.9754 140.349 44.4288 140.349 44.9728C140.349 45.4941 140.303 45.9474 140.213 46.3328H141.573C141.663 46.6954 141.709 47.1488 141.709 47.6928ZM145.462 42.2528C145.462 42.7741 145.417 43.2274 145.326 43.6128H146.346C146.437 43.9754 146.482 44.4288 146.482 44.9728C146.482 45.4941 146.437 45.9474 146.346 46.3328C146.437 46.6954 146.482 47.1488 146.482 47.6928C146.482 48.2141 146.437 48.6674 146.346 49.0528C146.437 49.4154 146.482 49.8688 146.482 50.4128C146.482 50.9341 146.437 51.3874 146.346 51.7728C146.437 52.1354 146.482 52.5888 146.482 53.1328C146.482 53.6541 146.437 54.1074 146.346 54.4928H143.626C143.535 54.1074 143.49 53.6541 143.49 53.1328C143.49 52.5888 143.535 52.1354 143.626 51.7728C143.535 51.3874 143.49 50.9341 143.49 50.4128C143.49 49.8688 143.535 49.4154 143.626 49.0528C143.535 48.6674 143.49 48.2141 143.49 47.6928C143.49 47.1488 143.535 46.6954 143.626 46.3328C143.535 45.9474 143.49 45.4941 143.49 44.9728C143.49 44.4288 143.535 43.9754 143.626 43.6128C143.535 43.2274 143.49 42.7741 143.49 42.2528C143.49 41.7088 143.535 41.2554 143.626 40.8928H145.326C145.417 41.2554 145.462 41.7088 145.462 42.2528ZM149.202 42.2528C149.202 42.7741 149.157 43.2274 149.066 43.6128H150.086C150.177 43.9754 150.222 44.4288 150.222 44.9728C150.222 45.4941 150.177 45.9474 150.086 46.3328C150.177 46.6954 150.222 47.1488 150.222 47.6928C150.222 48.2141 150.177 48.6674 150.086 49.0528C150.177 49.4154 150.222 49.8688 150.222 50.4128C150.222 50.9341 150.177 51.3874 150.086 51.7728C150.177 52.1354 150.222 52.5888 150.222 53.1328C150.222 53.6541 150.177 54.1074 150.086 54.4928H148.046C147.955 54.1074 147.91 53.6541 147.91 53.1328C147.91 52.5888 147.955 52.1354 148.046 51.7728C147.955 51.3874 147.91 50.9341 147.91 50.4128C147.91 49.8688 147.955 49.4154 148.046 49.0528C147.955 48.6674 147.91 48.2141 147.91 47.6928C147.91 47.1488 147.955 46.6954 148.046 46.3328C147.955 45.9474 147.91 45.4941 147.91 44.9728C147.91 44.4288 147.955 43.9754 148.046 43.6128H146.346C146.255 43.2274 146.21 42.7741 146.21 42.2528C146.21 41.7088 146.255 41.2554 146.346 40.8928H149.066C149.157 41.2554 149.202 41.7088 149.202 42.2528ZM154.506 46.3328C154.597 46.6954 154.642 47.1488 154.642 47.6928C154.642 48.2141 154.597 48.6674 154.506 49.0528C154.597 49.4154 154.642 49.8688 154.642 50.4128C154.642 50.9341 154.597 51.3874 154.506 51.7728C154.597 52.1354 154.642 52.5888 154.642 53.1328C154.642 53.6541 154.597 54.1074 154.506 54.4928H151.786C151.695 54.1074 151.65 53.6541 151.65 53.1328C151.65 52.5888 151.695 52.1354 151.786 51.7728C151.695 51.3874 151.65 50.9341 151.65 50.4128C151.65 49.8688 151.695 49.4154 151.786 49.0528C151.695 48.6674 151.65 48.2141 151.65 47.6928C151.65 47.1488 151.695 46.6954 151.786 46.3328C151.695 45.9474 151.65 45.4941 151.65 44.9728C151.65 44.4288 151.695 43.9754 151.786 43.6128H150.086C149.995 43.2274 149.95 42.7741 149.95 42.2528C149.95 41.7088 149.995 41.2554 150.086 40.8928H153.146C153.237 41.2554 153.282 41.7088 153.282 42.2528C153.282 42.7741 153.237 43.2274 153.146 43.6128H154.506C154.597 43.9754 154.642 44.4288 154.642 44.9728C154.642 45.4941 154.597 45.9474 154.506 46.3328ZM167.575 44.9728C167.575 45.4941 167.53 45.9474 167.439 46.3328C167.53 46.6954 167.575 47.1488 167.575 47.6928C167.575 48.2141 167.53 48.6674 167.439 49.0528H160.299C160.39 49.4154 160.435 49.8688 160.435 50.4128C160.435 50.9341 160.39 51.3874 160.299 51.7728H166.079C166.17 52.1354 166.215 52.5888 166.215 53.1328C166.215 53.6541 166.17 54.1074 166.079 54.4928H159.279C159.189 54.1074 159.143 53.6541 159.143 53.1328C159.143 52.5888 159.189 52.1354 159.279 51.7728H157.579C157.489 51.3874 157.443 50.9341 157.443 50.4128C157.443 49.8688 157.489 49.4154 157.579 49.0528H156.559C156.469 48.6674 156.423 48.2141 156.423 47.6928C156.423 47.1488 156.469 46.6954 156.559 46.3328H157.579C157.489 45.9474 157.443 45.4941 157.443 44.9728C157.443 44.4288 157.489 43.9754 157.579 43.6128H159.279C159.189 43.2274 159.143 42.7741 159.143 42.2528C159.143 41.7088 159.189 41.2554 159.279 40.8928H166.079C166.17 41.2554 166.215 41.7088 166.215 42.2528C166.215 42.7741 166.17 43.2274 166.079 43.6128H167.439C167.53 43.9754 167.575 44.4288 167.575 44.9728ZM164.719 46.3328C164.629 45.9474 164.583 45.4941 164.583 44.9728C164.583 44.4288 164.629 43.9754 164.719 43.6128H160.299C160.39 43.9754 160.435 44.4288 160.435 44.9728C160.435 45.4941 160.39 45.9474 160.299 46.3328H164.719ZM172.009 42.2528C172.009 42.7741 171.963 43.2274 171.873 43.6128H173.233C173.323 43.9754 173.369 44.4288 173.369 44.9728C173.369 45.4941 173.323 45.9474 173.233 46.3328H172.213C172.303 46.6954 172.349 47.1488 172.349 47.6928C172.349 48.2141 172.303 48.6674 172.213 49.0528C172.303 49.4154 172.349 49.8688 172.349 50.4128C172.349 50.9341 172.303 51.3874 172.213 51.7728C172.303 52.1354 172.349 52.5888 172.349 53.1328C172.349 53.6541 172.303 54.1074 172.213 54.4928H169.493C169.402 54.1074 169.357 53.6541 169.357 53.1328C169.357 52.5888 169.402 52.1354 169.493 51.7728C169.402 51.3874 169.357 50.9341 169.357 50.4128C169.357 49.8688 169.402 49.4154 169.493 49.0528C169.402 48.6674 169.357 48.2141 169.357 47.6928C169.357 47.1488 169.402 46.6954 169.493 46.3328C169.402 45.9474 169.357 45.4941 169.357 44.9728C169.357 44.4288 169.402 43.9754 169.493 43.6128C169.402 43.2274 169.357 42.7741 169.357 42.2528C169.357 41.7088 169.402 41.2554 169.493 40.8928H171.873C171.963 41.2554 172.009 41.7088 172.009 42.2528ZM180.373 46.3328C180.463 46.6954 180.509 47.1488 180.509 47.6928C180.509 48.2141 180.463 48.6674 180.373 49.0528C180.463 49.4154 180.509 49.8688 180.509 50.4128C180.509 50.9341 180.463 51.3874 180.373 51.7728C180.463 52.1354 180.509 52.5888 180.509 53.1328C180.509 53.6541 180.463 54.1074 180.373 54.4928H177.653C177.562 54.1074 177.517 53.6541 177.517 53.1328C177.517 52.5888 177.562 52.1354 177.653 51.7728C177.562 51.3874 177.517 50.9341 177.517 50.4128C177.517 49.8688 177.562 49.4154 177.653 49.0528C177.562 48.6674 177.517 48.2141 177.517 47.6928C177.517 47.1488 177.562 46.6954 177.653 46.3328C177.562 45.9474 177.517 45.4941 177.517 44.9728C177.517 44.4288 177.562 43.9754 177.653 43.6128H173.233C173.142 43.2274 173.097 42.7741 173.097 42.2528C173.097 41.7088 173.142 41.2554 173.233 40.8928H178.673C178.763 41.2554 178.809 41.7088 178.809 42.2528C178.809 42.7741 178.763 43.2274 178.673 43.6128H180.373C180.463 43.9754 180.509 44.4288 180.509 44.9728C180.509 45.4941 180.463 45.9474 180.373 46.3328ZM191.946 51.7728C192.037 52.1354 192.082 52.5888 192.082 53.1328C192.082 53.6541 192.037 54.1074 191.946 54.4928H186.506C186.415 54.1074 186.37 53.6541 186.37 53.1328C186.37 52.5888 186.415 52.1354 186.506 51.7728H185.146C185.055 51.3874 185.01 50.9341 185.01 50.4128C185.01 49.8688 185.055 49.4154 185.146 49.0528C185.055 48.6674 185.01 48.2141 185.01 47.6928C185.01 47.1488 185.055 46.6954 185.146 46.3328C185.055 45.9474 185.01 45.4941 185.01 44.9728C185.01 44.4288 185.055 43.9754 185.146 43.6128H182.426C182.335 43.2274 182.29 42.7741 182.29 42.2528C182.29 41.7088 182.335 41.2554 182.426 40.8928H185.146C185.055 40.5074 185.01 40.0541 185.01 39.5328C185.01 38.9888 185.055 38.5354 185.146 38.1728C185.055 37.7874 185.01 37.3341 185.01 36.8128C185.01 36.2688 185.055 35.8154 185.146 35.4528H187.866C187.957 35.8154 188.002 36.2688 188.002 36.8128C188.002 37.3341 187.957 37.7874 187.866 38.1728C187.957 38.5354 188.002 38.9888 188.002 39.5328C188.002 40.0541 187.957 40.5074 187.866 40.8928H191.946C192.037 41.2554 192.082 41.7088 192.082 42.2528C192.082 42.7741 192.037 43.2274 191.946 43.6128H187.866C187.957 43.9754 188.002 44.4288 188.002 44.9728C188.002 45.4941 187.957 45.9474 187.866 46.3328C187.957 46.6954 188.002 47.1488 188.002 47.6928C188.002 48.2141 187.957 48.6674 187.866 49.0528C187.957 49.4154 188.002 49.8688 188.002 50.4128C188.002 50.9341 187.957 51.3874 187.866 51.7728H191.946Z" fill="white"/>
<path d="M100 21.536H99.8218C100.273 21.536 100.638 21.1967 100.638 20.7784V2.75764C100.638 2.33873 100.273 2 99.8218 2H70.195C69.7438 2 69.3778 2.33873 69.3778 2.75764V20.7789C69.3778 21.1973 69.7438 21.5365 70.195 21.5365H70L67 24.1831C67 25.0913 67.8088 26 68.7982 26H101.202C102.135 26 103 25.0935 103 24.1825L100 21.536ZM85.0084 2.42273C85.071 2.42065 85.1334 2.43006 85.1919 2.45039C85.2504 2.47072 85.3038 2.50156 85.3489 2.54106C85.394 2.58057 85.4299 2.62793 85.4544 2.68032C85.4789 2.73271 85.4916 2.78905 85.4916 2.84599C85.4917 2.90293 85.4791 2.95929 85.4546 3.0117C85.4302 3.06412 85.3944 3.11153 85.3493 3.15108C85.3043 3.19064 85.2509 3.22154 85.1925 3.24194C85.134 3.26234 85.0716 3.27182 85.009 3.26982C84.8883 3.26595 84.774 3.21967 84.6901 3.14072C84.6062 3.06177 84.5593 2.95631 84.5592 2.84654C84.5591 2.73676 84.6059 2.63125 84.6897 2.5522C84.7735 2.47315 84.8877 2.42673 85.0084 2.42273ZM70.243 22.0815H99.7564L101.519 23.6371H88.3252L88.0864 23.3491H81.9304L81.691 23.6371H68.4796L70.243 22.0815ZM87.5896 25.3662H82.4092C82.2316 25.3662 81.7588 25.3662 81.7588 24.8164H88.2406C88.2406 25.3662 87.7582 25.3662 87.5896 25.3662Z" fill="#F8F8F8"/>
</svg>
