<svg width="224" height="67" viewBox="0 0 224 67" fill="none" xmlns="http://www.w3.org/2000/svg">
<path d="M55.5 25.5V10.5C55.5 9.70435 55.8161 8.94129 56.3787 8.37868C56.9413 7.81607 57.7044 7.5 58.5 7.5H79.5C80.2956 7.5 81.0587 7.81607 81.6213 8.37868C82.1839 8.94129 82.5 9.70435 82.5 10.5V25.5C82.5 26.2956 82.1839 27.0587 81.6213 27.6213C81.0587 28.1839 80.2956 28.5 79.5 28.5H58.5C57.7044 28.5 56.9413 28.1839 56.3787 27.6213C55.8161 27.0587 55.5 26.2956 55.5 25.5Z" stroke="#F8F8F8" stroke-width="1.5"/>
<path d="M60 12H61.5" stroke="#F8F8F8" stroke-width="1.5" stroke-linecap="round" stroke-linejoin="round"/>
<path d="M12.24 10.1728C12.3307 10.5354 12.376 10.9888 12.376 11.5328C12.376 12.0541 12.3307 12.5074 12.24 12.8928C12.3307 13.2554 12.376 13.7088 12.376 14.2528C12.376 14.7741 12.3307 15.2274 12.24 15.6128C12.3307 15.9754 12.376 16.4288 12.376 16.9728C12.376 17.4941 12.3307 17.9474 12.24 18.3328H11.22C11.3107 18.6954 11.356 19.1488 11.356 19.6928C11.356 20.2141 11.3107 20.6674 11.22 21.0528C11.3107 21.4154 11.356 21.8688 11.356 22.4128C11.356 22.9341 11.3107 23.3874 11.22 23.7728H10.54C10.6307 24.1354 10.676 24.5888 10.676 25.1328C10.676 25.6541 10.6307 26.1074 10.54 26.4928H8.5C8.40933 26.1074 8.364 25.6541 8.364 25.1328C8.364 24.5888 8.40933 24.1354 8.5 23.7728H7.82C7.72933 23.3874 7.684 22.9341 7.684 22.4128C7.684 21.8688 7.72933 21.4154 7.82 21.0528H5.78C5.87067 21.4154 5.916 21.8688 5.916 22.4128C5.916 22.9341 5.87067 23.3874 5.78 23.7728H5.1C5.19067 24.1354 5.236 24.5888 5.236 25.1328C5.236 25.6541 5.19067 26.1074 5.1 26.4928H3.06C2.96933 26.1074 2.924 25.6541 2.924 25.1328C2.924 24.5888 2.96933 24.1354 3.06 23.7728H2.38C2.28933 23.3874 2.244 22.9341 2.244 22.4128C2.244 21.8688 2.28933 21.4154 2.38 21.0528C2.28933 20.6674 2.244 20.2141 2.244 19.6928C2.244 19.1488 2.28933 18.6954 2.38 18.3328H1.36C1.26933 17.9474 1.224 17.4941 1.224 16.9728C1.224 16.4288 1.26933 15.9754 1.36 15.6128C1.26933 15.2274 1.224 14.7741 1.224 14.2528C1.224 13.7088 1.26933 13.2554 1.36 12.8928C1.26933 12.5074 1.224 12.0541 1.224 11.5328C1.224 10.9888 1.26933 10.5354 1.36 10.1728C1.26933 9.78742 1.224 9.33408 1.224 8.81275C1.224 8.26875 1.26933 7.81542 1.36 7.45275H4.08C4.17067 7.81542 4.216 8.26875 4.216 8.81275C4.216 9.33408 4.17067 9.78742 4.08 10.1728C4.17067 10.5354 4.216 10.9888 4.216 11.5328C4.216 12.0541 4.17067 12.5074 4.08 12.8928C4.17067 13.2554 4.216 13.7088 4.216 14.2528C4.216 14.7741 4.17067 15.2274 4.08 15.6128C4.17067 15.9754 4.216 16.4288 4.216 16.9728C4.216 17.4941 4.17067 17.9474 4.08 18.3328C4.17067 18.6954 4.216 19.1488 4.216 19.6928C4.216 20.2141 4.17067 20.6674 4.08 21.0528H5.1C5.00933 20.6674 4.964 20.2141 4.964 19.6928C4.964 19.1488 5.00933 18.6954 5.1 18.3328H5.78C5.68933 17.9474 5.644 17.4941 5.644 16.9728C5.644 16.4288 5.68933 15.9754 5.78 15.6128C5.68933 15.2274 5.644 14.7741 5.644 14.2528C5.644 13.7088 5.68933 13.2554 5.78 12.8928C5.68933 12.5074 5.644 12.0541 5.644 11.5328C5.644 10.9888 5.68933 10.5354 5.78 10.1728C5.68933 9.78742 5.644 9.33408 5.644 8.81275C5.644 8.26875 5.68933 7.81542 5.78 7.45275H7.82C7.91067 7.81542 7.956 8.26875 7.956 8.81275C7.956 9.33408 7.91067 9.78742 7.82 10.1728C7.91067 10.5354 7.956 10.9888 7.956 11.5328C7.956 12.0541 7.91067 12.5074 7.82 12.8928C7.91067 13.2554 7.956 13.7088 7.956 14.2528C7.956 14.7741 7.91067 15.2274 7.82 15.6128C7.91067 15.9754 7.956 16.4288 7.956 16.9728C7.956 17.4941 7.91067 17.9474 7.82 18.3328H8.5C8.59067 18.6954 8.636 19.1488 8.636 19.6928C8.636 20.2141 8.59067 20.6674 8.5 21.0528H9.52C9.42933 20.6674 9.384 20.2141 9.384 19.6928C9.384 19.1488 9.42933 18.6954 9.52 18.3328C9.42933 17.9474 9.384 17.4941 9.384 16.9728C9.384 16.4288 9.42933 15.9754 9.52 15.6128C9.42933 15.2274 9.384 14.7741 9.384 14.2528C9.384 13.7088 9.42933 13.2554 9.52 12.8928C9.42933 12.5074 9.384 12.0541 9.384 11.5328C9.384 10.9888 9.42933 10.5354 9.52 10.1728C9.42933 9.78742 9.384 9.33408 9.384 8.81275C9.384 8.26875 9.42933 7.81542 9.52 7.45275H12.24C12.3307 7.81542 12.376 8.26875 12.376 8.81275C12.376 9.33408 12.3307 9.78742 12.24 10.1728ZM25.3093 16.9728C25.3093 17.4941 25.2639 17.9474 25.1733 18.3328C25.2639 18.6954 25.3093 19.1488 25.3093 19.6928C25.3093 20.2141 25.2639 20.6674 25.1733 21.0528H18.0333C18.1239 21.4154 18.1693 21.8688 18.1693 22.4128C18.1693 22.9341 18.1239 23.3874 18.0333 23.7728H23.8133C23.9039 24.1354 23.9493 24.5888 23.9493 25.1328C23.9493 25.6541 23.9039 26.1074 23.8133 26.4928H17.0133C16.9226 26.1074 16.8773 25.6541 16.8773 25.1328C16.8773 24.5888 16.9226 24.1354 17.0133 23.7728H15.3133C15.2226 23.3874 15.1773 22.9341 15.1773 22.4128C15.1773 21.8688 15.2226 21.4154 15.3133 21.0528H14.2933C14.2026 20.6674 14.1573 20.2141 14.1573 19.6928C14.1573 19.1488 14.2026 18.6954 14.2933 18.3328H15.3133C15.2226 17.9474 15.1773 17.4941 15.1773 16.9728C15.1773 16.4288 15.2226 15.9754 15.3133 15.6128H17.0133C16.9226 15.2274 16.8773 14.7741 16.8773 14.2528C16.8773 13.7088 16.9226 13.2554 17.0133 12.8928H23.8133C23.9039 13.2554 23.9493 13.7088 23.9493 14.2528C23.9493 14.7741 23.9039 15.2274 23.8133 15.6128H25.1733C25.2639 15.9754 25.3093 16.4288 25.3093 16.9728ZM22.4533 18.3328C22.3626 17.9474 22.3173 17.4941 22.3173 16.9728C22.3173 16.4288 22.3626 15.9754 22.4533 15.6128H18.0333C18.1239 15.9754 18.1693 16.4288 18.1693 16.9728C18.1693 17.4941 18.1239 17.9474 18.0333 18.3328H22.4533ZM29.9466 21.0528C30.0372 21.4154 30.0826 21.8688 30.0826 22.4128C30.0826 22.9341 30.0372 23.3874 29.9466 23.7728H28.5866C28.6772 24.1354 28.7226 24.5888 28.7226 25.1328C28.7226 25.6541 28.6772 26.1074 28.5866 26.4928H27.2266C27.1359 26.1074 27.0906 25.6541 27.0906 25.1328C27.0906 24.5888 27.1359 24.1354 27.2266 23.7728C27.1359 23.3874 27.0906 22.9341 27.0906 22.4128C27.0906 21.8688 27.1359 21.4154 27.2266 21.0528C27.1359 20.6674 27.0906 20.2141 27.0906 19.6928C27.0906 19.1488 27.1359 18.6954 27.2266 18.3328C27.1359 17.9474 27.0906 17.4941 27.0906 16.9728C27.0906 16.4288 27.1359 15.9754 27.2266 15.6128C27.1359 15.2274 27.0906 14.7741 27.0906 14.2528C27.0906 13.7088 27.1359 13.2554 27.2266 12.8928C27.1359 12.5074 27.0906 12.0541 27.0906 11.5328C27.0906 10.9888 27.1359 10.5354 27.2266 10.1728C27.1359 9.78742 27.0906 9.33408 27.0906 8.81275C27.0906 8.26875 27.1359 7.81542 27.2266 7.45275H29.9466C30.0372 7.81542 30.0826 8.26875 30.0826 8.81275C30.0826 9.33408 30.0372 9.78742 29.9466 10.1728C30.0372 10.5354 30.0826 10.9888 30.0826 11.5328C30.0826 12.0541 30.0372 12.5074 29.9466 12.8928C30.0372 13.2554 30.0826 13.7088 30.0826 14.2528C30.0826 14.7741 30.0372 15.2274 29.9466 15.6128H31.3066C31.3972 15.9754 31.4426 16.4288 31.4426 16.9728C31.4426 17.4941 31.3972 17.9474 31.3066 18.3328H29.9466C30.0372 18.6954 30.0826 19.1488 30.0826 19.6928C30.0826 20.2141 30.0372 20.6674 29.9466 21.0528ZM38.2426 19.6928C38.2426 20.2141 38.1972 20.6674 38.1066 21.0528H36.7466C36.8372 21.4154 36.8826 21.8688 36.8826 22.4128C36.8826 22.9341 36.8372 23.3874 36.7466 23.7728H34.0266C33.9359 23.3874 33.8906 22.9341 33.8906 22.4128C33.8906 21.8688 33.9359 21.4154 34.0266 21.0528H35.3866C35.2959 20.6674 35.2506 20.2141 35.2506 19.6928C35.2506 19.1488 35.2959 18.6954 35.3866 18.3328H34.0266C33.9359 17.9474 33.8906 17.4941 33.8906 16.9728C33.8906 16.4288 33.9359 15.9754 34.0266 15.6128H31.3066C31.2159 15.2274 31.1706 14.7741 31.1706 14.2528C31.1706 13.7088 31.2159 13.2554 31.3066 12.8928H35.3866C35.4772 13.2554 35.5226 13.7088 35.5226 14.2528C35.5226 14.7741 35.4772 15.2274 35.3866 15.6128H36.7466C36.8372 15.9754 36.8826 16.4288 36.8826 16.9728C36.8826 17.4941 36.8372 17.9474 36.7466 18.3328H38.1066C38.1972 18.6954 38.2426 19.1488 38.2426 19.6928ZM29.8106 25.1328C29.8106 24.5888 29.8559 24.1354 29.9466 23.7728H34.0266C34.1172 24.1354 34.1626 24.5888 34.1626 25.1328C34.1626 25.6541 34.1172 26.1074 34.0266 26.4928H29.9466C29.8559 26.1074 29.8106 25.6541 29.8106 25.1328ZM51.0398 49.6128C51.1305 49.9754 51.1758 50.4288 51.1758 50.9728C51.1758 51.4941 51.1305 51.9474 51.0398 52.3328C51.1305 52.6954 51.1758 53.1488 51.1758 53.6928C51.1758 54.2141 51.1305 54.6674 51.0398 55.0528H49.6798C49.7705 55.4154 49.8158 55.8688 49.8158 56.4128C49.8158 56.9341 49.7705 57.3874 49.6798 57.7728H48.3198C48.4105 58.1354 48.4558 58.5888 48.4558 59.1328C48.4558 59.6541 48.4105 60.1074 48.3198 60.4928H40.1598C40.0692 60.1074 40.0238 59.6541 40.0238 59.1328C40.0238 58.5888 40.0692 58.1354 40.1598 57.7728C40.0692 57.3874 40.0238 56.9341 40.0238 56.4128C40.0238 55.8688 40.0692 55.4154 40.1598 55.0528C40.0692 54.6674 40.0238 54.2141 40.0238 53.6928C40.0238 53.1488 40.0692 52.6954 40.1598 52.3328C40.0692 51.9474 40.0238 51.4941 40.0238 50.9728C40.0238 50.4288 40.0692 49.9754 40.1598 49.6128C40.0692 49.2274 40.0238 48.7741 40.0238 48.2528C40.0238 47.7088 40.0692 47.2554 40.1598 46.8928C40.0692 46.5074 40.0238 46.0541 40.0238 45.5328C40.0238 44.9888 40.0692 44.5354 40.1598 44.1728C40.0692 43.7874 40.0238 43.3341 40.0238 42.8128C40.0238 42.2688 40.0692 41.8154 40.1598 41.4528H48.3198C48.4105 41.8154 48.4558 42.2688 48.4558 42.8128C48.4558 43.3341 48.4105 43.7874 48.3198 44.1728H49.6798C49.7705 44.5354 49.8158 44.9888 49.8158 45.5328C49.8158 46.0541 49.7705 46.5074 49.6798 46.8928H51.0398C51.1305 47.2554 51.1758 47.7088 51.1758 48.2528C51.1758 48.7741 51.1305 49.2274 51.0398 49.6128ZM48.3198 55.0528C48.2292 54.6674 48.1838 54.2141 48.1838 53.6928C48.1838 53.1488 48.2292 52.6954 48.3198 52.3328C48.2292 51.9474 48.1838 51.4941 48.1838 50.9728C48.1838 50.4288 48.2292 49.9754 48.3198 49.6128C48.2292 49.2274 48.1838 48.7741 48.1838 48.2528C48.1838 47.7088 48.2292 47.2554 48.3198 46.8928H46.9598C46.8692 46.5074 46.8238 46.0541 46.8238 45.5328C46.8238 44.9888 46.8692 44.5354 46.9598 44.1728H42.8798C42.9705 44.5354 43.0158 44.9888 43.0158 45.5328C43.0158 46.0541 42.9705 46.5074 42.8798 46.8928C42.9705 47.2554 43.0158 47.7088 43.0158 48.2528C43.0158 48.7741 42.9705 49.2274 42.8798 49.6128C42.9705 49.9754 43.0158 50.4288 43.0158 50.9728C43.0158 51.4941 42.9705 51.9474 42.8798 52.3328C42.9705 52.6954 43.0158 53.1488 43.0158 53.6928C43.0158 54.2141 42.9705 54.6674 42.8798 55.0528C42.9705 55.4154 43.0158 55.8688 43.0158 56.4128C43.0158 56.9341 42.9705 57.3874 42.8798 57.7728H46.9598C46.8692 57.3874 46.8238 56.9341 46.8238 56.4128C46.8238 55.8688 46.8692 55.4154 46.9598 55.0528H48.3198ZM64.1091 50.9728C64.1091 51.4941 64.0638 51.9474 63.9731 52.3328C64.0638 52.6954 64.1091 53.1488 64.1091 53.6928C64.1091 54.2141 64.0638 54.6674 63.9731 55.0528H56.8331C56.9238 55.4154 56.9691 55.8688 56.9691 56.4128C56.9691 56.9341 56.9238 57.3874 56.8331 57.7728H62.6131C62.7038 58.1354 62.7491 58.5888 62.7491 59.1328C62.7491 59.6541 62.7038 60.1074 62.6131 60.4928H55.8131C55.7225 60.1074 55.6771 59.6541 55.6771 59.1328C55.6771 58.5888 55.7225 58.1354 55.8131 57.7728H54.1131C54.0225 57.3874 53.9771 56.9341 53.9771 56.4128C53.9771 55.8688 54.0225 55.4154 54.1131 55.0528H53.0931C53.0025 54.6674 52.9571 54.2141 52.9571 53.6928C52.9571 53.1488 53.0025 52.6954 53.0931 52.3328H54.1131C54.0225 51.9474 53.9771 51.4941 53.9771 50.9728C53.9771 50.4288 54.0225 49.9754 54.1131 49.6128H55.8131C55.7225 49.2274 55.6771 48.7741 55.6771 48.2528C55.6771 47.7088 55.7225 47.2554 55.8131 46.8928H62.6131C62.7038 47.2554 62.7491 47.7088 62.7491 48.2528C62.7491 48.7741 62.7038 49.2274 62.6131 49.6128H63.9731C64.0638 49.9754 64.1091 50.4288 64.1091 50.9728ZM61.2531 52.3328C61.1625 51.9474 61.1171 51.4941 61.1171 50.9728C61.1171 50.4288 61.1625 49.9754 61.2531 49.6128H56.8331C56.9238 49.9754 56.9691 50.4288 56.9691 50.9728C56.9691 51.4941 56.9238 51.9474 56.8331 52.3328H61.2531ZM77.0424 48.2528C77.0424 48.7741 76.9971 49.2274 76.9064 49.6128H75.8864C75.9771 49.9754 76.0224 50.4288 76.0224 50.9728C76.0224 51.4941 75.9771 51.9474 75.8864 52.3328H74.8664C74.9571 52.6954 75.0024 53.1488 75.0024 53.6928C75.0024 54.2141 74.9571 54.6674 74.8664 55.0528H74.1864C74.2771 55.4154 74.3224 55.8688 74.3224 56.4128C74.3224 56.9341 74.2771 57.3874 74.1864 57.7728H72.8264C72.9171 58.1354 72.9624 58.5888 72.9624 59.1328C72.9624 59.6541 72.9171 60.1074 72.8264 60.4928H70.1064C70.0157 60.1074 69.9704 59.6541 69.9704 59.1328C69.9704 58.5888 70.0157 58.1354 70.1064 57.7728H68.7464C68.6557 57.3874 68.6104 56.9341 68.6104 56.4128C68.6104 55.8688 68.6557 55.4154 68.7464 55.0528H68.0664C67.9757 54.6674 67.9304 54.2141 67.9304 53.6928C67.9304 53.1488 67.9757 52.6954 68.0664 52.3328H67.0464C66.9557 51.9474 66.9104 51.4941 66.9104 50.9728C66.9104 50.4288 66.9557 49.9754 67.0464 49.6128H66.0264C65.9357 49.2274 65.8904 48.7741 65.8904 48.2528C65.8904 47.7088 65.9357 47.2554 66.0264 46.8928H68.7464C68.8371 47.2554 68.8824 47.7088 68.8824 48.2528C68.8824 48.7741 68.8371 49.2274 68.7464 49.6128H69.7664C69.8571 49.9754 69.9024 50.4288 69.9024 50.9728C69.9024 51.4941 69.8571 51.9474 69.7664 52.3328H70.7864C70.8771 52.6954 70.9224 53.1488 70.9224 53.6928C70.9224 54.2141 70.8771 54.6674 70.7864 55.0528H72.1464C72.0557 54.6674 72.0104 54.2141 72.0104 53.6928C72.0104 53.1488 72.0557 52.6954 72.1464 52.3328H73.1664C73.0757 51.9474 73.0304 51.4941 73.0304 50.9728C73.0304 50.4288 73.0757 49.9754 73.1664 49.6128H74.1864C74.0957 49.2274 74.0504 48.7741 74.0504 48.2528C74.0504 47.7088 74.0957 47.2554 74.1864 46.8928H76.9064C76.9971 47.2554 77.0424 47.7088 77.0424 48.2528ZM89.9757 50.9728C89.9757 51.4941 89.9304 51.9474 89.8397 52.3328C89.9304 52.6954 89.9757 53.1488 89.9757 53.6928C89.9757 54.2141 89.9304 54.6674 89.8397 55.0528H82.6997C82.7904 55.4154 82.8357 55.8688 82.8357 56.4128C82.8357 56.9341 82.7904 57.3874 82.6997 57.7728H88.4797C88.5704 58.1354 88.6157 58.5888 88.6157 59.1328C88.6157 59.6541 88.5704 60.1074 88.4797 60.4928H81.6797C81.589 60.1074 81.5437 59.6541 81.5437 59.1328C81.5437 58.5888 81.589 58.1354 81.6797 57.7728H79.9797C79.889 57.3874 79.8437 56.9341 79.8437 56.4128C79.8437 55.8688 79.889 55.4154 79.9797 55.0528H78.9597C78.869 54.6674 78.8237 54.2141 78.8237 53.6928C78.8237 53.1488 78.869 52.6954 78.9597 52.3328H79.9797C79.889 51.9474 79.8437 51.4941 79.8437 50.9728C79.8437 50.4288 79.889 49.9754 79.9797 49.6128H81.6797C81.589 49.2274 81.5437 48.7741 81.5437 48.2528C81.5437 47.7088 81.589 47.2554 81.6797 46.8928H88.4797C88.5704 47.2554 88.6157 47.7088 88.6157 48.2528C88.6157 48.7741 88.5704 49.2274 88.4797 49.6128H89.8397C89.9304 49.9754 89.9757 50.4288 89.9757 50.9728ZM87.1197 52.3328C87.029 51.9474 86.9837 51.4941 86.9837 50.9728C86.9837 50.4288 87.029 49.9754 87.1197 49.6128H82.6997C82.7904 49.9754 82.8357 50.4288 82.8357 50.9728C82.8357 51.4941 82.7904 51.9474 82.6997 52.3328H87.1197ZM101.413 57.7728C101.504 58.1354 101.549 58.5888 101.549 59.1328C101.549 59.6541 101.504 60.1074 101.413 60.4928H93.253C93.1623 60.1074 93.117 59.6541 93.117 59.1328C93.117 58.5888 93.1623 58.1354 93.253 57.7728H95.973C95.8823 57.3874 95.837 56.9341 95.837 56.4128C95.837 55.8688 95.8823 55.4154 95.973 55.0528C95.8823 54.6674 95.837 54.2141 95.837 53.6928C95.837 53.1488 95.8823 52.6954 95.973 52.3328C95.8823 51.9474 95.837 51.4941 95.837 50.9728C95.837 50.4288 95.8823 49.9754 95.973 49.6128C95.8823 49.2274 95.837 48.7741 95.837 48.2528C95.837 47.7088 95.8823 47.2554 95.973 46.8928C95.8823 46.5074 95.837 46.0541 95.837 45.5328C95.837 44.9888 95.8823 44.5354 95.973 44.1728H93.933C93.8423 43.7874 93.797 43.3341 93.797 42.8128C93.797 42.2688 93.8423 41.8154 93.933 41.4528H98.693C98.7836 41.8154 98.829 42.2688 98.829 42.8128C98.829 43.3341 98.7836 43.7874 98.693 44.1728C98.7836 44.5354 98.829 44.9888 98.829 45.5328C98.829 46.0541 98.7836 46.5074 98.693 46.8928C98.7836 47.2554 98.829 47.7088 98.829 48.2528C98.829 48.7741 98.7836 49.2274 98.693 49.6128C98.7836 49.9754 98.829 50.4288 98.829 50.9728C98.829 51.4941 98.7836 51.9474 98.693 52.3328C98.7836 52.6954 98.829 53.1488 98.829 53.6928C98.829 54.2141 98.7836 54.6674 98.693 55.0528C98.7836 55.4154 98.829 55.8688 98.829 56.4128C98.829 56.9341 98.7836 57.3874 98.693 57.7728H101.413ZM115.842 53.6928C115.842 54.2141 115.797 54.6674 115.706 55.0528H114.686C114.777 55.4154 114.822 55.8688 114.822 56.4128C114.822 56.9341 114.777 57.3874 114.686 57.7728H112.986C113.077 58.1354 113.122 58.5888 113.122 59.1328C113.122 59.6541 113.077 60.1074 112.986 60.4928H107.546C107.456 60.1074 107.41 59.6541 107.41 59.1328C107.41 58.5888 107.456 58.1354 107.546 57.7728H105.846C105.756 57.3874 105.71 56.9341 105.71 56.4128C105.71 55.8688 105.756 55.4154 105.846 55.0528H104.826C104.736 54.6674 104.69 54.2141 104.69 53.6928C104.69 53.1488 104.736 52.6954 104.826 52.3328H105.846C105.756 51.9474 105.71 51.4941 105.71 50.9728C105.71 50.4288 105.756 49.9754 105.846 49.6128H107.546C107.456 49.2274 107.41 48.7741 107.41 48.2528C107.41 47.7088 107.456 47.2554 107.546 46.8928H112.986C113.077 47.2554 113.122 47.7088 113.122 48.2528C113.122 48.7741 113.077 49.2274 112.986 49.6128H114.686C114.777 49.9754 114.822 50.4288 114.822 50.9728C114.822 51.4941 114.777 51.9474 114.686 52.3328H115.706C115.797 52.6954 115.842 53.1488 115.842 53.6928ZM112.986 55.0528C112.896 54.6674 112.85 54.2141 112.85 53.6928C112.85 53.1488 112.896 52.6954 112.986 52.3328H111.966C111.876 51.9474 111.83 51.4941 111.83 50.9728C111.83 50.4288 111.876 49.9754 111.966 49.6128H108.566C108.657 49.9754 108.702 50.4288 108.702 50.9728C108.702 51.4941 108.657 51.9474 108.566 52.3328H107.546C107.637 52.6954 107.682 53.1488 107.682 53.6928C107.682 54.2141 107.637 54.6674 107.546 55.0528H108.566C108.657 55.4154 108.702 55.8688 108.702 56.4128C108.702 56.9341 108.657 57.3874 108.566 57.7728H111.966C111.876 57.3874 111.83 56.9341 111.83 56.4128C111.83 55.8688 111.876 55.4154 111.966 55.0528H112.986ZM128.776 53.6928C128.776 54.2141 128.73 54.6674 128.64 55.0528H127.28C127.37 55.4154 127.416 55.8688 127.416 56.4128C127.416 56.9341 127.37 57.3874 127.28 57.7728H125.92C126.01 58.1354 126.056 58.5888 126.056 59.1328C126.056 59.6541 126.01 60.1074 125.92 60.4928H120.48C120.57 60.8554 120.616 61.3088 120.616 61.8528C120.616 62.3741 120.57 62.8274 120.48 63.2128C120.57 63.5754 120.616 64.0288 120.616 64.5728C120.616 65.0941 120.57 65.5474 120.48 65.9328H117.76C117.669 65.5474 117.624 65.0941 117.624 64.5728C117.624 64.0288 117.669 63.5754 117.76 63.2128C117.669 62.8274 117.624 62.3741 117.624 61.8528C117.624 61.3088 117.669 60.8554 117.76 60.4928C117.669 60.1074 117.624 59.6541 117.624 59.1328C117.624 58.5888 117.669 58.1354 117.76 57.7728C117.669 57.3874 117.624 56.9341 117.624 56.4128C117.624 55.8688 117.669 55.4154 117.76 55.0528C117.669 54.6674 117.624 54.2141 117.624 53.6928C117.624 53.1488 117.669 52.6954 117.76 52.3328C117.669 51.9474 117.624 51.4941 117.624 50.9728C117.624 50.4288 117.669 49.9754 117.76 49.6128C117.669 49.2274 117.624 48.7741 117.624 48.2528C117.624 47.7088 117.669 47.2554 117.76 46.8928H120.48C120.57 47.2554 120.616 47.7088 120.616 48.2528C120.616 48.7741 120.57 49.2274 120.48 49.6128H121.84C121.93 49.9754 121.976 50.4288 121.976 50.9728C121.976 51.4941 121.93 51.9474 121.84 52.3328H120.48C120.57 52.6954 120.616 53.1488 120.616 53.6928C120.616 54.2141 120.57 54.6674 120.48 55.0528C120.57 55.4154 120.616 55.8688 120.616 56.4128C120.616 56.9341 120.57 57.3874 120.48 57.7728H124.56C124.469 57.3874 124.424 56.9341 124.424 56.4128C124.424 55.8688 124.469 55.4154 124.56 55.0528H125.92C125.829 54.6674 125.784 54.2141 125.784 53.6928C125.784 53.1488 125.829 52.6954 125.92 52.3328H124.56C124.469 51.9474 124.424 51.4941 124.424 50.9728C124.424 50.4288 124.469 49.9754 124.56 49.6128H121.84C121.749 49.2274 121.704 48.7741 121.704 48.2528C121.704 47.7088 121.749 47.2554 121.84 46.8928H125.92C126.01 47.2554 126.056 47.7088 126.056 48.2528C126.056 48.7741 126.01 49.2274 125.92 49.6128H127.28C127.37 49.9754 127.416 50.4288 127.416 50.9728C127.416 51.4941 127.37 51.9474 127.28 52.3328H128.64C128.73 52.6954 128.776 53.1488 128.776 53.6928ZM132.529 48.2528C132.529 48.7741 132.483 49.2274 132.393 49.6128H133.413C133.503 49.9754 133.549 50.4288 133.549 50.9728C133.549 51.4941 133.503 51.9474 133.413 52.3328C133.503 52.6954 133.549 53.1488 133.549 53.6928C133.549 54.2141 133.503 54.6674 133.413 55.0528C133.503 55.4154 133.549 55.8688 133.549 56.4128C133.549 56.9341 133.503 57.3874 133.413 57.7728C133.503 58.1354 133.549 58.5888 133.549 59.1328C133.549 59.6541 133.503 60.1074 133.413 60.4928H130.693C130.602 60.1074 130.557 59.6541 130.557 59.1328C130.557 58.5888 130.602 58.1354 130.693 57.7728C130.602 57.3874 130.557 56.9341 130.557 56.4128C130.557 55.8688 130.602 55.4154 130.693 55.0528C130.602 54.6674 130.557 54.2141 130.557 53.6928C130.557 53.1488 130.602 52.6954 130.693 52.3328C130.602 51.9474 130.557 51.4941 130.557 50.9728C130.557 50.4288 130.602 49.9754 130.693 49.6128C130.602 49.2274 130.557 48.7741 130.557 48.2528C130.557 47.7088 130.602 47.2554 130.693 46.8928H132.393C132.483 47.2554 132.529 47.7088 132.529 48.2528ZM136.269 48.2528C136.269 48.7741 136.223 49.2274 136.133 49.6128H137.153C137.243 49.9754 137.289 50.4288 137.289 50.9728C137.289 51.4941 137.243 51.9474 137.153 52.3328C137.243 52.6954 137.289 53.1488 137.289 53.6928C137.289 54.2141 137.243 54.6674 137.153 55.0528C137.243 55.4154 137.289 55.8688 137.289 56.4128C137.289 56.9341 137.243 57.3874 137.153 57.7728C137.243 58.1354 137.289 58.5888 137.289 59.1328C137.289 59.6541 137.243 60.1074 137.153 60.4928H135.113C135.022 60.1074 134.977 59.6541 134.977 59.1328C134.977 58.5888 135.022 58.1354 135.113 57.7728C135.022 57.3874 134.977 56.9341 134.977 56.4128C134.977 55.8688 135.022 55.4154 135.113 55.0528C135.022 54.6674 134.977 54.2141 134.977 53.6928C134.977 53.1488 135.022 52.6954 135.113 52.3328C135.022 51.9474 134.977 51.4941 134.977 50.9728C134.977 50.4288 135.022 49.9754 135.113 49.6128H133.413C133.322 49.2274 133.277 48.7741 133.277 48.2528C133.277 47.7088 133.322 47.2554 133.413 46.8928H136.133C136.223 47.2554 136.269 47.7088 136.269 48.2528ZM141.573 52.3328C141.663 52.6954 141.709 53.1488 141.709 53.6928C141.709 54.2141 141.663 54.6674 141.573 55.0528C141.663 55.4154 141.709 55.8688 141.709 56.4128C141.709 56.9341 141.663 57.3874 141.573 57.7728C141.663 58.1354 141.709 58.5888 141.709 59.1328C141.709 59.6541 141.663 60.1074 141.573 60.4928H138.853C138.762 60.1074 138.717 59.6541 138.717 59.1328C138.717 58.5888 138.762 58.1354 138.853 57.7728C138.762 57.3874 138.717 56.9341 138.717 56.4128C138.717 55.8688 138.762 55.4154 138.853 55.0528C138.762 54.6674 138.717 54.2141 138.717 53.6928C138.717 53.1488 138.762 52.6954 138.853 52.3328C138.762 51.9474 138.717 51.4941 138.717 50.9728C138.717 50.4288 138.762 49.9754 138.853 49.6128H137.153C137.062 49.2274 137.017 48.7741 137.017 48.2528C137.017 47.7088 137.062 47.2554 137.153 46.8928H140.213C140.303 47.2554 140.349 47.7088 140.349 48.2528C140.349 48.7741 140.303 49.2274 140.213 49.6128H141.573C141.663 49.9754 141.709 50.4288 141.709 50.9728C141.709 51.4941 141.663 51.9474 141.573 52.3328ZM154.642 50.9728C154.642 51.4941 154.597 51.9474 154.506 52.3328C154.597 52.6954 154.642 53.1488 154.642 53.6928C154.642 54.2141 154.597 54.6674 154.506 55.0528H147.366C147.457 55.4154 147.502 55.8688 147.502 56.4128C147.502 56.9341 147.457 57.3874 147.366 57.7728H153.146C153.237 58.1354 153.282 58.5888 153.282 59.1328C153.282 59.6541 153.237 60.1074 153.146 60.4928H146.346C146.255 60.1074 146.21 59.6541 146.21 59.1328C146.21 58.5888 146.255 58.1354 146.346 57.7728H144.646C144.555 57.3874 144.51 56.9341 144.51 56.4128C144.51 55.8688 144.555 55.4154 144.646 55.0528H143.626C143.535 54.6674 143.49 54.2141 143.49 53.6928C143.49 53.1488 143.535 52.6954 143.626 52.3328H144.646C144.555 51.9474 144.51 51.4941 144.51 50.9728C144.51 50.4288 144.555 49.9754 144.646 49.6128H146.346C146.255 49.2274 146.21 48.7741 146.21 48.2528C146.21 47.7088 146.255 47.2554 146.346 46.8928H153.146C153.237 47.2554 153.282 47.7088 153.282 48.2528C153.282 48.7741 153.237 49.2274 153.146 49.6128H154.506C154.597 49.9754 154.642 50.4288 154.642 50.9728ZM151.786 52.3328C151.695 51.9474 151.65 51.4941 151.65 50.9728C151.65 50.4288 151.695 49.9754 151.786 49.6128H147.366C147.457 49.9754 147.502 50.4288 147.502 50.9728C147.502 51.4941 147.457 51.9474 147.366 52.3328H151.786ZM159.075 48.2528C159.075 48.7741 159.03 49.2274 158.939 49.6128H160.299C160.39 49.9754 160.435 50.4288 160.435 50.9728C160.435 51.4941 160.39 51.9474 160.299 52.3328H159.279C159.37 52.6954 159.415 53.1488 159.415 53.6928C159.415 54.2141 159.37 54.6674 159.279 55.0528C159.37 55.4154 159.415 55.8688 159.415 56.4128C159.415 56.9341 159.37 57.3874 159.279 57.7728C159.37 58.1354 159.415 58.5888 159.415 59.1328C159.415 59.6541 159.37 60.1074 159.279 60.4928H156.559C156.469 60.1074 156.423 59.6541 156.423 59.1328C156.423 58.5888 156.469 58.1354 156.559 57.7728C156.469 57.3874 156.423 56.9341 156.423 56.4128C156.423 55.8688 156.469 55.4154 156.559 55.0528C156.469 54.6674 156.423 54.2141 156.423 53.6928C156.423 53.1488 156.469 52.6954 156.559 52.3328C156.469 51.9474 156.423 51.4941 156.423 50.9728C156.423 50.4288 156.469 49.9754 156.559 49.6128C156.469 49.2274 156.423 48.7741 156.423 48.2528C156.423 47.7088 156.469 47.2554 156.559 46.8928H158.939C159.03 47.2554 159.075 47.7088 159.075 48.2528ZM167.439 52.3328C167.53 52.6954 167.575 53.1488 167.575 53.6928C167.575 54.2141 167.53 54.6674 167.439 55.0528C167.53 55.4154 167.575 55.8688 167.575 56.4128C167.575 56.9341 167.53 57.3874 167.439 57.7728C167.53 58.1354 167.575 58.5888 167.575 59.1328C167.575 59.6541 167.53 60.1074 167.439 60.4928H164.719C164.629 60.1074 164.583 59.6541 164.583 59.1328C164.583 58.5888 164.629 58.1354 164.719 57.7728C164.629 57.3874 164.583 56.9341 164.583 56.4128C164.583 55.8688 164.629 55.4154 164.719 55.0528C164.629 54.6674 164.583 54.2141 164.583 53.6928C164.583 53.1488 164.629 52.6954 164.719 52.3328C164.629 51.9474 164.583 51.4941 164.583 50.9728C164.583 50.4288 164.629 49.9754 164.719 49.6128H160.299C160.209 49.2274 160.163 48.7741 160.163 48.2528C160.163 47.7088 160.209 47.2554 160.299 46.8928H165.739C165.83 47.2554 165.875 47.7088 165.875 48.2528C165.875 48.7741 165.83 49.2274 165.739 49.6128H167.439C167.53 49.9754 167.575 50.4288 167.575 50.9728C167.575 51.4941 167.53 51.9474 167.439 52.3328ZM179.013 57.7728C179.103 58.1354 179.149 58.5888 179.149 59.1328C179.149 59.6541 179.103 60.1074 179.013 60.4928H173.573C173.482 60.1074 173.437 59.6541 173.437 59.1328C173.437 58.5888 173.482 58.1354 173.573 57.7728H172.213C172.122 57.3874 172.077 56.9341 172.077 56.4128C172.077 55.8688 172.122 55.4154 172.213 55.0528C172.122 54.6674 172.077 54.2141 172.077 53.6928C172.077 53.1488 172.122 52.6954 172.213 52.3328C172.122 51.9474 172.077 51.4941 172.077 50.9728C172.077 50.4288 172.122 49.9754 172.213 49.6128H169.493C169.402 49.2274 169.357 48.7741 169.357 48.2528C169.357 47.7088 169.402 47.2554 169.493 46.8928H172.213C172.122 46.5074 172.077 46.0541 172.077 45.5328C172.077 44.9888 172.122 44.5354 172.213 44.1728C172.122 43.7874 172.077 43.3341 172.077 42.8128C172.077 42.2688 172.122 41.8154 172.213 41.4528H174.933C175.023 41.8154 175.069 42.2688 175.069 42.8128C175.069 43.3341 175.023 43.7874 174.933 44.1728C175.023 44.5354 175.069 44.9888 175.069 45.5328C175.069 46.0541 175.023 46.5074 174.933 46.8928H179.013C179.103 47.2554 179.149 47.7088 179.149 48.2528C179.149 48.7741 179.103 49.2274 179.013 49.6128H174.933C175.023 49.9754 175.069 50.4288 175.069 50.9728C175.069 51.4941 175.023 51.9474 174.933 52.3328C175.023 52.6954 175.069 53.1488 175.069 53.6928C175.069 54.2141 175.023 54.6674 174.933 55.0528C175.023 55.4154 175.069 55.8688 175.069 56.4128C175.069 56.9341 175.023 57.3874 174.933 57.7728H179.013Z" fill="white"/>
</svg>
