<?xml version="1.0" standalone="no"?>
<!DOCTYPE svg PUBLIC "-//W3C//DTD SVG 20010904//EN"
 "http://www.w3.org/TR/2001/REC-SVG-20010904/DTD/svg10.dtd">
<svg version="1.0" xmlns="http://www.w3.org/2000/svg"
 width="1760.000000pt" height="1760.000000pt" viewBox="0 0 1760.000000 1760.000000"
 preserveAspectRatio="xMidYMid meet">
<metadata>
Created by potrace 1.14, written by Peter Selinger 2001-2017
</metadata>
<g transform="translate(0.000000,1760.000000) scale(0.100000,-0.100000)"
fill="#000000" stroke="none">
<path d="M1650 13600 c0 -6 -4 -9 -9 -6 -5 3 -17 -29 -26 -72 -10 -42 -23
-102 -31 -132 -7 -30 -15 -66 -18 -80 -2 -14 -28 -126 -56 -250 -28 -124 -53
-238 -56 -255 -2 -16 -9 -43 -14 -60 -5 -16 -12 -46 -14 -65 -3 -19 -13 -62
-22 -95 -9 -33 -18 -71 -20 -85 -3 -24 -10 -60 -14 -70 -1 -3 -3 -9 -5 -15 -1
-5 -3 -13 -5 -17 -4 -11 -5 -18 -15 -73 -9 -53 -11 -64 -14 -67 -2 -2 -4 -13
-7 -25 -3 -16 -115 -523 -128 -578 -4 -17 -28 -130 -30 -140 -1 -5 -5 -19 -9
-30 -7 -21 -15 -60 -23 -110 -3 -16 -7 -37 -10 -45 -6 -18 -35 -147 -39 -175
-1 -11 -8 -40 -15 -65 -7 -25 -15 -58 -17 -75 -7 -40 -11 -59 -13 -62 -4 -5
-7 -18 -15 -70 -4 -29 -11 -53 -16 -53 -5 0 -6 -7 -3 -15 3 -8 2 -20 -2 -27
-4 -7 -9 -19 -9 -28 -2 -20 -25 -121 -32 -140 -4 -8 -5 -19 -4 -23 1 -5 -3
-25 -8 -45 -6 -20 -12 -46 -14 -57 -2 -11 -9 -38 -15 -60 -6 -22 -13 -53 -15
-70 -3 -16 -13 -61 -22 -100 -10 -38 -19 -79 -20 -90 -2 -11 -17 -78 -33 -150
-17 -71 -28 -133 -26 -137 3 -5 0 -8 -7 -8 -7 0 -10 -2 -7 -6 3 -3 2 -22 -3
-42 -6 -20 -12 -46 -14 -57 -3 -11 -7 -31 -11 -45 -3 -14 -6 -32 -6 -40 0 -8
-5 -21 -11 -27 -5 -7 -7 -13 -4 -13 3 0 -1 -26 -9 -57 -8 -32 -16 -69 -19 -83
-2 -14 -7 -36 -10 -50 -16 -68 -16 -70 4 -70 11 0 22 -4 25 -9 3 -4 -6 -6 -19
-3 -23 4 -30 -4 -26 -30 0 -5 -2 -8 -7 -8 -4 0 -7 -12 -7 -27 -1 -33 -15 -145
-20 -153 -1 -3 -6 -30 -9 -60 -4 -30 -9 -68 -11 -85 -12 -71 -15 -93 -20 -140
-4 -27 -8 -57 -10 -65 -2 -8 -7 -42 -11 -75 -3 -33 -8 -62 -9 -65 -2 -3 -7
-33 -10 -65 -4 -33 -9 -69 -11 -80 -3 -11 -7 -36 -9 -55 -6 -45 -14 -97 -20
-135 -3 -16 -8 -48 -11 -70 -2 -22 -8 -60 -11 -85 -4 -25 -7 -57 -7 -72 -1
-16 -3 -28 -6 -28 -3 0 -7 -15 -8 -33 -3 -44 -9 -75 -18 -89 -5 -7 -3 -8 6 -3
9 5 11 4 6 -4 -5 -7 -10 -25 -12 -42 -2 -16 -6 -44 -9 -61 -3 -18 -8 -49 -10
-68 -2 -19 -6 -48 -9 -65 -3 -16 -8 -50 -11 -75 -7 -53 -13 -85 -15 -85 -1 0
-3 -18 -5 -40 -1 -22 -3 -40 -5 -40 -1 0 -3 -13 -5 -30 -1 -16 -6 -46 -9 -65
-4 -19 -9 -54 -11 -78 -2 -23 -6 -55 -9 -70 -3 -15 -8 -47 -11 -72 -5 -43 -9
-69 -20 -135 -3 -16 -7 -48 -10 -70 -3 -22 -7 -51 -10 -65 -2 -14 -7 -45 -10
-70 -4 -25 -8 -56 -10 -70 -7 -41 -33 -222 -40 -270 -3 -25 -8 -56 -10 -70 -6
-33 -17 -109 -20 -140 -3 -24 -11 -85 -20 -140 -10 -63 -14 -89 -20 -140 -4
-30 -9 -64 -11 -75 -3 -11 -7 -38 -9 -60 -3 -22 -7 -51 -10 -64 -2 -13 -7 -49
-11 -80 -3 -31 -8 -65 -11 -76 -2 -11 -6 -31 -8 -45 -4 -31 -15 -115 -20 -155
-2 -16 -6 -39 -8 -50 -3 -11 -8 -47 -12 -80 -8 -68 -12 -91 -18 -120 -3 -11
-8 -49 -12 -85 -4 -36 -8 -67 -10 -70 -2 -3 -6 -30 -10 -60 -8 -68 -11 -87
-24 -175 -18 -113 -19 -135 -7 -136 6 -1 25 -2 41 -4 17 -1 50 -5 75 -9 75
-13 104 -17 125 -20 12 -1 26 -5 32 -9 6 -4 16 -1 22 7 13 15 15 25 26 106 4
30 9 62 10 70 1 8 6 40 10 70 4 30 8 62 10 70 1 8 6 37 9 63 4 27 9 58 12 70
2 12 6 38 9 59 23 169 25 181 41 288 3 19 7 49 9 65 2 17 6 44 8 60 3 17 8 55
12 85 9 60 13 85 15 85 0 0 3 21 5 46 2 26 7 60 10 75 3 16 8 44 10 63 2 19 7
50 10 70 4 20 8 53 10 73 2 21 6 50 9 65 3 15 8 46 11 68 3 22 7 51 10 65 3
14 7 43 10 65 8 68 35 257 40 279 2 12 7 41 10 66 9 68 14 101 20 145 4 22 8
51 10 65 10 72 27 188 30 210 2 14 7 45 11 70 3 25 8 55 9 67 2 13 6 42 10 65
4 24 8 54 10 68 6 38 15 106 20 137 7 51 15 107 21 143 3 19 8 51 10 70 2 19
7 51 9 70 3 19 8 51 11 70 3 19 7 46 10 60 2 14 6 48 9 76 3 28 8 62 11 75 2
13 7 44 10 69 5 49 12 85 14 85 1 0 3 14 4 30 2 17 6 53 11 80 4 28 8 61 10
75 2 14 5 39 8 55 3 17 9 50 12 75 11 77 24 168 30 200 2 8 6 44 10 80 4 36 8
67 10 70 2 3 6 30 10 60 3 30 9 69 11 85 3 17 7 41 9 55 1 14 7 48 11 75 4 28
7 53 6 56 -1 4 31 7 71 8 40 1 79 1 87 1 8 1 32 -1 53 -2 20 -2 37 0 37 4 0 4
7 5 15 2 19 -8 735 -11 735 -3 0 3 15 4 33 2 17 -2 39 -4 47 -3 17 0 46 0 113
-3 26 -1 47 1 47 4 0 3 15 4 33 2 77 -8 97 -8 97 0 0 4 5 5 10 2 13 -8 100
-12 100 -4 0 6 59 3 67 -4 3 -3 16 -2 30 4 13 5 22 6 20 1 -3 -4 23 -6 56 -4
82 3 114 3 160 0 20 -2 37 0 37 5 0 4 5 5 10 2 13 -8 100 -12 100 -4 0 3 15 4
33 2 17 -2 39 -4 47 -3 17 0 46 0 113 -3 26 -1 47 2 47 6 0 5 5 5 11 2 8 -6
135 -6 669 -4 8 0 32 -2 53 -3 20 -2 37 0 37 5 0 4 5 5 10 2 13 -8 100 -12
100 -4 0 6 59 3 67 -4 3 -3 16 -2 30 4 13 5 22 6 20 1 -3 -4 23 -6 56 -4 82 3
114 3 160 0 20 -2 37 0 37 4 0 4 11 4 23 -1 13 -5 30 -5 37 -1 8 5 18 6 23 3
14 -9 77 -9 77 0 0 4 5 5 10 2 13 -8 100 -12 100 -4 0 6 59 3 67 -4 3 -3 16
-2 30 4 13 5 22 6 20 1 -3 -4 23 -6 56 -4 82 3 114 3 160 0 20 -2 37 0 37 5 0
4 5 5 10 2 13 -8 100 -12 100 -4 0 3 15 4 33 2 17 -2 39 -4 47 -3 17 0 46 0
113 -3 26 -1 47 1 47 4 0 3 15 4 33 2 77 -8 97 -8 97 0 0 4 5 5 10 2 13 -8
100 -12 100 -4 0 6 59 3 67 -4 3 -3 16 -2 30 4 13 5 22 6 20 1 -3 -4 23 -6 56
-4 82 3 114 3 160 0 20 -2 37 0 37 5 0 4 5 5 10 2 13 -8 100 -12 100 -4 0 3
15 4 33 2 17 -2 39 -4 47 -3 17 0 46 0 113 -3 26 -1 47 1 47 4 0 4 18 3 40 -1
22 -4 40 -4 40 -1 0 4 15 6 33 4 17 -2 39 -4 47 -3 17 0 46 0 113 -3 26 -1 47
1 47 4 0 11 50 -3 51 -15 0 -6 2 -18 4 -26 2 -8 6 -31 10 -50 3 -19 10 -53 15
-75 10 -42 49 -242 55 -285 3 -14 6 -32 8 -40 5 -21 26 -120 31 -150 3 -14 8
-38 11 -55 3 -16 8 -41 11 -55 3 -14 8 -43 11 -65 2 -21 6 -42 9 -46 2 -4 7
-24 10 -45 3 -22 7 -43 8 -49 1 -5 4 -14 7 -20 4 -5 5 -20 4 -32 -1 -13 1 -23
5 -23 4 0 6 -11 5 -25 -2 -14 0 -25 4 -25 4 0 7 -10 8 -22 0 -13 3 -36 7 -53
4 -16 9 -41 11 -55 2 -14 6 -32 8 -40 2 -8 7 -33 11 -55 4 -22 18 -94 31 -160
13 -66 27 -136 30 -155 3 -19 10 -51 15 -70 5 -19 11 -52 14 -72 3 -21 10 -56
15 -78 5 -22 7 -40 5 -40 -3 0 -1 -8 5 -17 5 -10 11 -36 15 -58 5 -39 18 -110
30 -170 15 -73 27 -134 32 -161 3 -16 10 -49 15 -74 6 -25 12 -56 14 -70 4
-27 12 -70 20 -110 13 -63 18 -86 20 -105 2 -11 4 -20 5 -20 1 0 3 -9 5 -20 4
-25 14 -73 20 -101 3 -12 7 -39 10 -60 4 -21 9 -48 12 -59 4 -11 7 -31 8 -45
1 -14 7 -35 13 -46 6 -12 9 -24 6 -27 -3 -2 2 -35 11 -73 9 -37 18 -83 20
-102 2 -19 7 -42 9 -51 3 -9 8 -29 11 -46 2 -16 7 -41 10 -55 3 -14 7 -36 10
-50 2 -14 10 -50 16 -80 6 -30 13 -68 15 -85 2 -16 7 -38 10 -47 3 -10 7 -30
10 -45 3 -16 11 -59 19 -98 8 -38 17 -86 20 -105 4 -19 8 -42 10 -50 2 -8 4
-21 4 -28 1 -9 16 -11 59 -7 123 11 198 17 226 19 20 1 30 7 32 20 1 10 5 20
8 23 3 3 1 14 -5 24 -5 11 -6 19 -2 19 10 0 9 52 -1 68 -4 6 -2 21 4 32 8 14
8 20 0 20 -8 0 -8 6 0 20 8 14 8 20 0 20 -8 0 -8 6 0 20 8 14 8 20 0 20 -6 0
-8 5 -4 11 10 17 11 60 2 87 -4 13 -5 21 0 19 4 -3 7 8 7 24 0 16 -3 29 -7 29
-4 0 -5 6 -3 13 9 22 11 107 3 107 -4 0 -3 11 2 24 6 16 5 28 -3 36 -9 10 -9
14 0 17 9 3 10 10 3 24 -8 13 -7 19 0 19 7 0 8 6 0 19 -7 14 -7 22 0 26 8 5 8
11 0 20 -6 7 -7 16 -2 19 10 6 9 36 -1 53 -4 6 -3 15 3 18 7 5 8 11 1 19 -6 7
-6 17 -1 26 5 8 5 21 -1 31 -6 11 -5 20 1 24 6 4 6 15 0 30 -5 14 -6 25 -2 25
4 0 7 11 7 25 0 14 -3 25 -7 25 -4 0 -3 11 2 24 5 15 5 27 -2 34 -7 7 -6 17 1
31 8 15 8 21 1 21 -8 0 -8 6 0 20 8 14 8 20 0 20 -8 0 -8 6 0 20 8 14 8 20 0
20 -6 0 -8 5 -4 11 10 17 11 60 2 87 -4 13 -5 21 0 19 4 -3 7 8 7 24 0 16 -3
29 -7 29 -4 0 -5 6 -3 13 9 22 11 107 3 107 -4 0 -3 11 2 24 6 16 5 28 -3 36
-9 10 -9 14 0 17 9 3 10 10 3 24 -8 13 -7 19 0 19 7 0 8 6 0 19 -7 14 -7 22 0
26 8 5 8 11 0 20 -6 7 -7 16 -2 19 10 6 9 36 -1 53 -4 6 -3 15 3 18 7 5 8 11
1 19 -6 7 -6 17 -1 26 5 8 5 21 -1 31 -6 11 -5 20 1 24 6 4 6 15 0 30 -5 14
-6 25 -2 25 4 0 7 11 7 25 0 14 -3 25 -7 25 -4 0 -3 11 2 24 5 15 5 27 -2 34
-7 7 -6 17 1 31 8 15 8 21 1 21 -8 0 -8 6 0 20 8 14 8 20 0 20 -8 0 -8 6 0 20
8 14 8 20 0 20 -6 0 -8 5 -4 11 10 17 11 60 2 87 -4 13 -5 21 0 19 4 -3 7 8 7
24 0 16 -3 29 -7 29 -4 0 -5 6 -3 13 9 22 11 107 3 107 -4 0 -3 11 2 24 6 16
5 28 -3 36 -9 10 -9 14 0 17 9 3 10 10 3 24 -8 13 -7 19 0 19 7 0 8 6 0 19 -7
14 -7 22 0 26 8 5 8 11 0 20 -6 7 -7 16 -2 19 10 6 9 36 -1 53 -4 6 -3 15 3
18 7 5 8 11 1 19 -6 7 -6 17 -1 26 5 8 5 21 -1 31 -6 11 -5 20 1 24 6 4 6 15
0 30 -5 14 -6 25 -2 25 4 0 7 11 7 25 0 14 -3 25 -7 25 -4 0 -3 11 2 24 5 15
5 27 -2 34 -7 7 -6 17 1 31 8 15 8 21 1 21 -8 0 -8 6 0 20 8 14 8 20 0 20 -8
0 -8 6 0 20 8 14 8 20 0 20 -6 0 -8 5 -4 11 10 17 11 60 2 87 -4 13 -5 21 0
19 4 -3 7 8 7 24 0 16 -3 29 -7 29 -4 0 -5 6 -3 13 9 22 11 107 3 107 -4 0 -3
11 2 24 6 16 5 28 -3 36 -9 10 -9 14 0 17 9 3 10 10 3 24 -8 13 -7 19 0 19 7
0 8 6 0 19 -7 14 -7 22 0 26 8 5 8 11 1 19 -6 7 -8 16 -4 19 8 9 8 69 0 90 -4
10 -2 17 3 17 5 0 5 12 0 29 -4 15 -5 33 -1 39 4 8 289 11 952 11 520 0 953 3
962 7 13 5 14 10 6 25 -7 13 -6 19 1 19 8 0 8 6 0 20 -8 14 -8 20 0 20 8 0 8
6 0 20 -8 14 -8 20 0 20 7 0 8 6 1 18 -6 11 -6 24 0 35 7 11 6 17 -1 17 -8 0
-8 6 0 20 8 14 8 20 0 20 -8 0 -8 6 0 20 8 14 8 20 0 20 -6 0 -8 5 -4 11 10
17 11 60 2 87 -4 13 -5 21 0 19 4 -3 7 8 7 24 0 16 -2 29 -5 29 -3 0 -5 16 -5
35 0 19 2 35 5 35 3 0 5 11 5 25 0 14 -3 25 -7 25 -4 0 -3 11 2 24 6 16 5 28
-3 36 -9 10 -9 14 0 17 9 3 10 10 3 24 -8 13 -7 19 0 19 8 0 8 6 0 20 -8 14
-8 20 0 20 8 0 8 6 0 20 -8 14 -8 20 0 20 7 0 8 6 1 18 -6 11 -6 24 0 35 7 11
6 17 -1 17 -8 0 -8 6 0 20 8 14 8 20 0 20 -8 0 -8 6 0 20 8 14 8 20 0 20 -6 0
-8 5 -4 11 10 17 11 60 2 87 -4 13 -5 21 0 19 4 -3 7 8 7 24 0 16 -2 29 -5 29
-3 0 -5 16 -5 35 0 19 2 35 5 35 3 0 5 11 5 25 0 14 -3 25 -7 25 -4 0 -3 11 2
24 6 16 5 28 -3 36 -9 10 -9 14 0 17 9 3 10 10 3 24 -8 13 -7 19 0 19 8 0 8 6
0 20 -8 14 -8 20 0 20 8 0 8 6 0 20 -8 14 -8 20 0 20 7 0 8 6 1 18 -6 11 -6
24 0 35 7 11 6 17 -1 17 -8 0 -8 6 0 20 8 14 8 20 0 20 -8 0 -8 6 0 20 8 14 8
20 0 20 -6 0 -8 5 -4 11 10 17 11 60 2 87 -4 13 -5 21 0 19 4 -3 7 8 7 24 0
16 -2 29 -5 29 -3 0 -5 16 -5 35 0 19 2 35 5 35 3 0 5 11 5 25 0 14 -3 25 -7
25 -4 0 -3 11 2 24 6 16 5 28 -3 36 -9 10 -9 14 0 17 9 3 10 10 3 24 -8 13 -7
19 0 19 8 0 8 6 0 20 -8 14 -8 20 0 20 8 0 8 6 0 20 -6 11 -7 20 -2 20 5 0 8
14 6 30 -2 17 -2 30 1 30 2 0 96 18 207 41 112 22 217 43 233 45 17 3 46 9 65
14 19 5 51 12 70 15 19 3 51 10 70 15 19 5 53 11 75 14 22 2 40 5 40 6 0 1 14
4 30 6 17 3 37 7 45 11 8 3 24 7 35 8 44 4 108 17 129 24 11 5 24 9 29 10 4 0
8 1 10 2 1 0 20 2 42 4 22 1 41 4 43 5 3 4 53 15 115 26 9 1 21 5 26 8 5 4 9
-13 9 -36 0 -24 1 -45 2 -48 4 -14 4 -80 0 -80 -3 0 -4 -17 -2 -37 4 -55 2
-124 -3 -133 -3 -5 -1 -11 4 -15 7 -3 7 -15 1 -29 -5 -13 -6 -27 -3 -30 8 -7
10 -76 3 -76 -3 0 -4 -19 -2 -42 1 -24 4 -58 5 -75 1 -18 0 -33 -3 -33 -3 0
-5 -16 -5 -35 0 -19 4 -35 8 -35 5 0 5 -5 1 -11 -8 -14 -8 -124 0 -137 3 -6 2
-13 -3 -17 -6 -3 -7 -15 -2 -28 5 -12 5 -32 0 -44 -5 -13 -4 -25 1 -28 6 -3 6
-15 0 -29 -5 -13 -6 -27 -3 -30 7 -7 10 -86 3 -86 -3 0 -5 -16 -5 -35 0 -19 4
-35 8 -35 5 0 5 -5 2 -10 -9 -14 -10 -108 -2 -116 3 -3 2 -16 -3 -29 -5 -13
-6 -26 -3 -29 7 -7 10 -76 3 -76 -3 0 -4 -17 -2 -37 4 -55 2 -124 -3 -133 -3
-5 -1 -11 4 -15 7 -3 7 -15 1 -29 -5 -13 -6 -27 -3 -30 8 -7 10 -76 3 -76 -3
0 -4 -19 -2 -42 1 -24 4 -58 5 -75 1 -18 0 -33 -3 -33 -3 0 -5 -16 -5 -35 0
-19 4 -35 8 -35 5 0 5 -5 1 -11 -8 -14 -8 -124 0 -137 3 -6 2 -13 -3 -17 -6
-3 -7 -15 -2 -28 5 -12 5 -32 0 -44 -5 -13 -4 -25 1 -28 6 -3 6 -15 0 -29 -5
-13 -6 -27 -3 -30 7 -7 10 -86 3 -86 -3 0 -5 -16 -5 -35 0 -19 4 -35 8 -35 5
0 5 -5 2 -10 -9 -14 -10 -108 -2 -116 3 -3 2 -16 -3 -29 -5 -13 -6 -26 -3 -29
7 -7 10 -76 3 -76 -3 0 -4 -17 -2 -37 4 -55 2 -124 -3 -133 -3 -5 -1 -11 4
-15 7 -3 7 -15 1 -29 -5 -13 -6 -27 -3 -30 8 -7 10 -76 3 -76 -3 0 -4 -19 -2
-42 1 -24 4 -58 5 -75 1 -18 0 -33 -3 -33 -3 0 -5 -16 -5 -35 0 -19 4 -35 8
-35 5 0 5 -5 1 -11 -8 -14 -8 -124 0 -137 3 -6 2 -13 -3 -17 -6 -3 -7 -15 -2
-28 5 -12 5 -32 0 -44 -5 -13 -4 -25 1 -28 6 -3 6 -15 0 -29 -5 -13 -6 -27 -3
-30 7 -7 10 -86 3 -86 -3 0 -5 -16 -5 -35 0 -19 4 -35 8 -35 5 0 5 -5 2 -10
-9 -14 -10 -108 -2 -116 3 -3 2 -16 -3 -29 -5 -13 -6 -26 -3 -29 8 -7 10 -76
3 -76 -3 0 -4 -19 -2 -42 1 -24 4 -58 5 -76 1 -19 -1 -36 -4 -38 -4 -2 -3 -20
1 -39 4 -19 5 -35 1 -35 -3 0 -6 -31 -6 -70 0 -38 3 -70 7 -70 4 0 3 -11 -2
-25 -6 -15 -6 -27 0 -30 6 -3 6 -15 0 -30 -6 -15 -6 -27 0 -30 6 -3 6 -15 0
-29 -5 -13 -6 -27 -3 -30 7 -7 10 -86 3 -86 -3 0 -5 -16 -5 -35 0 -19 3 -35 7
-35 4 0 4 -10 -1 -22 -5 -13 -5 -33 0 -45 4 -12 4 -25 0 -28 -5 -3 -5 -21 -1
-40 4 -19 5 -35 1 -35 -3 0 -6 -31 -6 -70 0 -38 3 -70 7 -70 4 0 3 -11 -2 -25
-6 -15 -6 -27 0 -30 6 -3 6 -15 0 -30 -6 -15 -6 -27 0 -30 6 -3 6 -15 0 -29
-5 -13 -6 -27 -3 -30 7 -7 10 -86 3 -86 -3 0 -5 -16 -5 -35 0 -19 3 -35 7 -35
4 0 3 -12 -3 -27 -11 -30 -11 -30 2 -55 6 -10 5 -19 -1 -23 -5 -3 -6 -15 -1
-28 5 -12 5 -32 0 -44 -5 -13 -4 -25 1 -28 6 -3 6 -15 0 -30 -6 -15 -6 -27 0
-30 6 -3 6 -15 0 -30 -5 -14 -5 -27 0 -30 5 -3 5 -18 0 -33 -4 -16 -4 -36 1
-45 6 -9 5 -18 0 -22 -6 -3 -7 -15 -2 -28 5 -12 5 -32 0 -44 -5 -13 -4 -25 1
-28 6 -3 6 -15 0 -30 -6 -15 -6 -27 0 -30 6 -3 6 -15 0 -30 -5 -13 -6 -26 -2
-29 5 -3 5 -30 2 -61 -3 -31 -3 -58 2 -61 4 -3 3 -16 -2 -29 -5 -14 -5 -27 0
-30 5 -3 5 -18 0 -35 -5 -17 -5 -30 0 -30 5 0 5 -12 1 -27 -4 -16 -6 -33 -4
-40 2 -7 52 -31 111 -53 59 -23 111 -46 117 -51 5 -5 15 -9 22 -9 13 0 220
-78 273 -102 14 -6 27 -12 30 -13 13 -4 47 -18 70 -27 14 -6 32 -13 41 -14 9
-2 38 -13 65 -25 27 -12 51 -23 54 -24 55 -16 90 -30 90 -35 0 -4 6 -7 13 -7
6 0 82 -28 167 -61 85 -33 207 -80 270 -104 63 -25 124 -49 135 -53 11 -5 22
-9 25 -10 3 -1 14 -5 25 -10 34 -14 378 -147 420 -162 22 -8 46 -19 52 -25 7
-6 13 -7 13 -3 0 4 6 3 13 -3 6 -6 15 -11 20 -11 4 0 23 -8 43 -16 20 -8 42
-15 48 -15 7 0 16 -4 22 -9 5 -4 41 -19 79 -32 39 -13 72 -27 73 -31 2 -5 12
-8 23 -8 10 0 34 -9 54 -20 20 -11 42 -20 50 -20 9 0 34 -9 58 -19 49 -23 273
-111 280 -111 2 0 22 -8 43 -17 22 -9 44 -18 51 -19 7 -1 27 -9 44 -18 18 -9
35 -16 39 -16 4 0 25 -8 46 -17 22 -9 41 -17 44 -18 3 0 41 -15 85 -32 98 -38
140 -50 132 -36 -7 11 -12 44 -23 142 -3 30 -8 64 -10 75 -2 12 -6 41 -9 66
-4 25 -10 81 -16 125 -5 44 -11 94 -14 110 -2 17 -7 53 -10 80 -3 28 -8 66
-11 85 -6 45 -12 92 -19 155 -3 28 -8 63 -11 78 -2 16 -7 50 -9 75 -3 26 -10
81 -15 122 -18 123 -19 133 -24 180 -3 25 -8 65 -11 90 -4 25 -8 59 -10 75 -2
17 -7 53 -11 80 -4 28 -8 67 -8 87 -1 21 -3 38 -6 38 -4 0 -6 10 -7 23 0 21
-9 103 -17 157 -2 14 -7 52 -10 84 -4 33 -9 74 -12 91 -5 33 -9 67 -19 145 -2
25 -7 61 -10 80 -2 19 -7 60 -10 90 -3 30 -8 66 -11 80 -3 14 -7 41 -9 60 -2
19 -7 55 -10 80 -3 25 -8 65 -10 90 -3 25 -8 61 -11 80 -7 50 -15 110 -19 145
-2 17 -7 57 -11 90 -5 33 -8 75 -9 93 0 17 -2 32 -5 32 -3 0 -7 15 -8 33 -1
17 -7 64 -12 102 -5 39 -12 93 -16 120 -9 83 -13 117 -18 149 -6 39 -18 141
-21 181 -2 17 -4 30 -5 30 -3 0 -9 40 -15 100 -3 33 -8 76 -10 95 -3 19 -7 53
-9 75 -2 22 -5 40 -6 40 -2 0 -6 28 -14 100 -3 28 -8 68 -11 90 -12 90 -17
132 -20 165 -2 19 -6 51 -9 70 -3 19 -8 60 -11 90 -4 30 -9 66 -11 80 -3 14
-7 45 -9 69 -2 24 -7 60 -10 80 -3 20 -7 56 -10 81 -10 81 -14 115 -19 150 -6
39 -23 171 -31 240 -3 25 -8 56 -10 70 -2 14 -7 50 -10 80 -3 30 -8 69 -10 85
-3 17 -9 68 -15 115 -15 117 -18 144 -30 228 -6 41 -8 78 -4 83 3 5 2 9 -3 9
-4 0 -9 19 -11 43 -4 52 -10 112 -12 112 -3 0 -11 60 -15 110 -2 28 -4 50 -5
50 -2 0 -6 26 -14 95 -2 25 -8 68 -11 95 -9 66 -15 112 -19 155 -2 19 -7 53
-10 75 -11 77 -19 140 -19 168 0 15 -3 27 -6 27 -3 0 -7 23 -9 50 -2 28 -5 63
-7 78 -2 15 -6 50 -10 77 -3 28 -8 66 -11 85 -3 19 -7 51 -9 70 -3 19 -7 51
-10 70 -3 19 -8 58 -11 85 -3 28 -7 63 -10 79 -2 15 -7 51 -9 79 -3 27 -7 58
-10 68 -5 14 0 22 17 28 13 5 26 7 30 4 5 -2 36 -4 70 -4 35 1 71 1 81 1 9 0
28 0 42 0 14 0 32 0 40 0 8 0 26 0 40 0 14 0 33 0 43 0 21 0 59 1 92 4 14 1
37 -2 53 -6 15 -3 27 -3 27 2 0 5 13 5 30 0 17 -5 30 -5 30 0 0 5 13 5 30 0
17 -5 30 -5 30 0 0 5 13 5 30 0 17 -5 30 -5 30 0 0 5 13 5 30 0 17 -5 30 -5
30 0 0 5 13 5 30 0 17 -5 30 -5 30 0 0 5 13 5 30 0 17 -5 30 -5 30 0 0 5 13 5
30 0 17 -5 30 -5 30 0 0 5 13 5 30 0 19 -5 30 -5 30 1 0 6 5 7 10 4 6 -4 34
-6 63 -6 69 1 82 1 112 1 14 0 32 0 40 0 8 0 26 0 40 0 31 0 51 0 68 0 6 -1
38 0 69 1 32 1 61 0 64 -4 4 -3 14 -2 23 3 10 5 23 5 31 0 8 -5 21 -5 30 0 9
5 22 5 30 0 8 -5 21 -5 30 0 9 5 22 5 29 0 8 -4 27 -4 42 0 16 5 29 5 29 0 0
-5 13 -5 30 0 17 5 30 5 30 0 0 -5 13 -5 30 0 17 5 30 5 30 0 0 -5 13 -5 30 0
17 5 30 5 30 0 0 -5 13 -5 30 0 16 5 30 6 30 2 0 -8 124 -6 146 2 8 3 14 2 14
-3 0 -5 18 -5 40 -1 33 6 40 4 45 -11 4 -10 3 -23 0 -29 -3 -5 -2 -10 4 -10 7
0 7 -8 1 -24 -5 -13 -6 -27 -3 -30 5 -5 8 -81 3 -88 -6 -10 -4 -138 2 -155 4
-13 4 -23 0 -23 -4 0 -6 -17 -5 -37 1 -21 2 -38 3 -38 1 0 2 -17 3 -38 1 -20
0 -37 -3 -37 -3 0 -4 -19 -2 -42 4 -56 4 -55 1 -113 -2 -28 0 -55 3 -61 4 -5
4 -15 0 -21 -8 -13 -7 -111 1 -120 4 -3 3 -13 -2 -22 -5 -9 -5 -25 -1 -36 4
-11 4 -32 -1 -47 -4 -16 -4 -28 1 -28 6 0 6 -10 0 -25 -6 -15 -6 -26 1 -30 5
-4 7 -10 4 -15 -5 -8 -9 -116 -5 -135 1 -5 1 -14 0 -20 -6 -25 -5 -52 1 -77 4
-16 5 -28 1 -28 -4 0 -6 -15 -5 -32 1 -18 2 -33 3 -33 1 0 2 -17 3 -38 1 -20
0 -37 -3 -37 -3 0 -4 -19 -2 -42 4 -56 4 -55 1 -113 -2 -28 0 -55 3 -61 4 -5
4 -15 0 -21 -8 -13 -7 -111 1 -120 4 -3 3 -13 -2 -22 -5 -9 -5 -25 -1 -36 4
-11 4 -32 -1 -47 -4 -16 -4 -28 1 -28 6 0 6 -10 0 -25 -6 -15 -6 -26 1 -30 5
-4 7 -10 4 -15 -5 -8 -9 -116 -5 -135 1 -5 1 -14 0 -20 -6 -25 -5 -52 1 -77 4
-16 5 -28 1 -28 -8 0 -8 -58 1 -66 3 -3 3 -12 0 -20 -4 -11 9 -14 63 -14 554
-3 1835 1 1847 6 13 5 14 10 6 25 -7 13 -6 19 1 19 8 0 8 6 0 20 -8 14 -8 20
0 20 8 0 8 6 0 20 -8 14 -8 20 0 20 7 0 8 6 1 18 -6 11 -6 24 0 35 7 11 6 17
-1 17 -8 0 -8 6 0 20 8 14 8 20 0 20 -8 0 -8 6 0 20 8 14 8 20 0 20 -6 0 -8 5
-4 11 10 17 11 60 2 87 -4 12 -4 22 0 22 4 0 7 11 7 25 0 14 -4 25 -8 25 -4 0
-3 8 2 18 6 11 6 24 0 35 -6 9 -6 17 -2 17 4 0 8 11 8 25 0 14 -3 25 -7 25 -4
0 -3 11 2 24 5 15 5 27 -2 34 -7 7 -6 17 1 31 8 15 8 21 1 21 -8 0 -8 6 0 20
8 14 8 20 0 20 -8 0 -8 6 0 20 8 14 8 20 0 20 -6 0 -8 5 -4 11 9 16 11 99 2
99 -4 0 -3 11 2 25 6 15 6 26 0 30 -6 4 -7 13 -1 23 6 11 6 24 0 35 -6 9 -6
17 -2 17 4 0 8 13 8 29 0 16 -3 27 -7 24 -5 -2 -4 7 1 20 6 16 6 28 -1 35 -7
7 -6 17 1 31 8 15 8 21 1 21 -8 0 -8 6 0 20 8 14 8 20 0 20 -8 0 -8 6 0 20 8
14 8 20 0 20 -6 0 -8 5 -4 11 10 17 11 60 2 87 -4 12 -4 22 0 22 4 0 7 11 7
25 0 14 -4 25 -8 25 -4 0 -3 8 2 18 6 11 6 24 0 35 -6 9 -6 17 -2 17 4 0 8 11
8 25 0 14 -3 25 -7 25 -4 0 -3 11 2 24 5 15 5 27 -2 34 -7 7 -6 17 1 31 8 15
8 21 1 21 -8 0 -8 6 0 20 8 14 8 20 0 20 -8 0 -8 6 0 20 8 14 8 20 0 20 -6 0
-8 5 -4 11 9 16 11 99 2 99 -4 0 -3 11 2 25 6 15 6 26 -1 30 -6 4 -6 13 0 23
6 10 6 23 0 34 -5 10 -6 18 -2 18 4 0 8 13 8 29 0 16 -3 27 -7 24 -5 -2 -4 7
2 21 5 15 6 28 0 31 -6 3 -6 15 0 30 6 15 6 27 0 30 -6 4 -7 13 -1 23 6 11 6
24 0 35 -7 11 -7 17 0 17 6 0 6 11 1 30 -5 19 -5 30 1 30 6 0 5 8 -1 20 -6 11
-7 20 -3 20 9 0 9 133 0 147 -3 5 -2 15 3 23 5 8 5 22 -1 32 -6 12 -6 18 0 18
6 0 6 11 1 30 -5 19 -5 30 1 30 6 0 5 8 -1 20 -6 11 -7 20 -3 20 4 0 8 38 8
85 0 47 -3 85 -7 85 -4 0 -3 11 2 25 6 15 6 26 0 30 -6 4 -7 13 -1 23 6 11 6
24 0 35 -6 9 -6 17 -2 17 4 0 8 13 8 29 0 16 -3 27 -7 24 -5 -2 -4 7 1 20 6
16 6 28 -1 35 -8 8 -8 15 1 26 8 10 9 16 1 21 -7 4 -7 12 0 26 8 13 7 19 0 19
-8 0 -8 6 0 20 8 14 8 20 0 20 -6 0 -8 5 -4 11 10 17 11 60 2 87 -4 12 -4 22
0 22 4 0 7 11 7 25 0 14 -4 25 -8 25 -4 0 -3 8 2 18 6 11 6 24 0 35 -6 9 -6
17 -2 17 4 0 8 11 8 25 0 14 -3 25 -7 25 -4 0 -3 11 2 24 5 15 5 27 -2 34 -7
7 -6 17 1 31 8 15 8 21 1 21 -8 0 -8 6 0 20 8 14 8 20 0 20 -8 0 -8 6 0 20 8
14 8 20 0 20 -6 0 -8 5 -4 11 9 16 11 99 2 99 -4 0 -3 11 2 25 6 15 6 26 0 30
-6 4 -7 13 -1 23 6 11 6 24 0 35 -6 9 -6 17 -2 17 4 0 8 13 8 29 0 16 -3 27
-7 24 -5 -2 -4 7 2 21 5 15 6 28 0 31 -6 3 -6 15 0 30 6 15 6 27 0 30 -6 4 -7
13 -1 23 6 11 6 24 0 35 -7 11 -7 17 0 17 6 0 6 11 1 30 -5 19 -5 30 1 30 6 0
5 8 -1 20 -6 11 -7 20 -3 20 9 0 8 138 -1 147 -3 3 -1 14 4 24 7 12 7 20 0 24
-8 5 -8 11 -1 19 8 9 7 18 -3 31 -11 15 -29 18 -128 19 -64 1 -114 -2 -111 -6
2 -5 -6 -4 -19 0 -27 9 -70 8 -87 -2 -6 -4 -11 -2 -11 4 0 8 -6 8 -20 0 -14
-8 -20 -8 -20 0 0 8 -6 8 -20 0 -14 -8 -20 -8 -20 0 0 6 -5 8 -11 5 -13 -9
-79 -12 -79 -5 0 3 -11 5 -25 5 -14 0 -25 -4 -25 -8 0 -4 -9 -3 -19 3 -13 6
-22 7 -26 0 -4 -6 -15 -6 -30 0 -16 6 -25 6 -25 0 0 -6 -9 -6 -24 0 -15 5 -27
5 -34 -2 -6 -6 -12 -6 -16 0 -3 5 -25 6 -51 2 -25 -4 -45 -4 -45 -1 0 3 -11 6
-25 6 -14 0 -25 -4 -25 -8 0 -4 -9 -3 -19 3 -13 7 -22 7 -26 0 -4 -7 -12 -7
-25 0 -13 7 -21 7 -25 0 -4 -6 -11 -7 -17 -4 -16 10 -68 11 -68 1 0 -5 -5 -5
-11 -2 -17 11 -59 13 -59 3 0 -5 -9 -4 -20 2 -14 8 -20 8 -20 0 0 -8 -6 -8
-20 0 -14 8 -20 8 -20 0 0 -7 -6 -8 -19 0 -14 7 -20 7 -23 -2 -3 -7 -10 -8
-17 -3 -17 10 -241 13 -234 3 2 -5 -6 -4 -19 0 -27 9 -70 8 -87 -2 -6 -4 -11
-2 -11 4 0 8 -6 8 -20 0 -14 -8 -20 -8 -20 0 0 8 -6 8 -20 0 -14 -8 -20 -8
-20 0 0 6 -5 8 -11 5 -13 -9 -79 -12 -79 -5 0 3 -11 5 -25 5 -14 0 -25 -4 -25
-8 0 -4 -9 -3 -19 3 -13 6 -22 7 -26 0 -4 -6 -15 -6 -30 0 -16 6 -25 6 -25 0
0 -6 -9 -6 -25 0 -15 6 -26 6 -30 -1 -4 -5 -11 -6 -17 -3 -16 10 -78 11 -78 1
0 -4 -9 -3 -20 3 -14 8 -20 8 -20 0 0 -8 -6 -8 -20 0 -14 8 -20 8 -20 0 0 -7
-6 -8 -19 0 -14 7 -20 7 -23 -2 -3 -7 -10 -8 -17 -3 -17 10 -241 13 -234 3 2
-5 -6 -4 -19 0 -27 9 -70 8 -87 -2 -6 -4 -11 -2 -11 4 0 8 -6 8 -20 0 -14 -8
-20 -8 -20 0 0 8 -6 8 -20 0 -14 -8 -20 -8 -20 0 0 6 -5 8 -11 5 -13 -9 -79
-12 -79 -5 0 3 -11 5 -25 5 -14 0 -25 -4 -25 -8 0 -4 -9 -3 -19 3 -13 7 -22 7
-26 0 -4 -7 -12 -7 -25 0 -13 7 -21 7 -25 0 -4 -6 -11 -7 -17 -4 -16 10 -68
11 -68 1 0 -5 -5 -5 -11 -2 -17 11 -59 13 -59 3 0 -5 -9 -4 -20 2 -14 8 -20 8
-20 0 0 -8 -6 -8 -20 0 -14 8 -20 8 -20 0 0 -7 -6 -8 -19 0 -14 7 -20 7 -23
-2 -3 -7 -10 -8 -17 -3 -17 10 -241 13 -234 3 2 -5 -6 -4 -19 0 -27 9 -70 8
-87 -2 -6 -4 -11 -2 -11 4 0 8 -6 8 -20 0 -14 -8 -20 -8 -20 0 0 8 -6 8 -20 0
-14 -8 -20 -8 -20 0 0 6 -5 8 -11 5 -13 -9 -79 -12 -79 -5 0 3 -11 5 -25 5
-14 0 -25 -4 -25 -8 0 -4 -9 -3 -19 3 -13 7 -22 7 -26 0 -4 -7 -12 -7 -25 0
-13 7 -21 7 -25 0 -4 -6 -11 -7 -17 -4 -16 10 -68 11 -68 1 0 -5 -5 -5 -11 -2
-17 11 -59 13 -59 3 0 -5 -9 -4 -20 2 -14 8 -20 8 -20 0 0 -8 -6 -8 -20 0 -14
8 -20 8 -20 0 0 -7 -6 -8 -19 0 -14 7 -20 7 -23 -2 -3 -7 -10 -8 -17 -3 -17
10 -241 13 -234 3 2 -5 -6 -4 -19 0 -27 9 -70 8 -87 -2 -6 -4 -11 -2 -11 4 0
8 -6 8 -20 0 -14 -8 -20 -8 -20 0 0 8 -6 8 -20 0 -14 -8 -20 -8 -20 0 0 8 -6
8 -20 0 -11 -6 -26 -8 -32 -4 -15 10 -67 11 -61 2 2 -5 -7 -4 -21 2 -16 6 -26
6 -26 0 0 -6 -9 -6 -23 -1 -14 5 -30 5 -40 0 -11 -7 -17 -6 -17 0 0 7 -8 7
-25 1 -16 -6 -25 -6 -25 1 0 6 -7 6 -19 -1 -14 -7 -22 -7 -26 0 -5 8 -11 8
-19 1 -7 -6 -16 -8 -19 -4 -10 9 -66 10 -60 1 2 -5 -7 -4 -21 2 -16 6 -26 6
-26 0 0 -6 -9 -6 -23 -1 -14 5 -30 5 -40 0 -11 -7 -17 -6 -17 0 0 7 -8 7 -25
1 -16 -6 -25 -6 -25 1 0 6 -7 6 -19 -1 -14 -7 -22 -7 -26 0 -5 8 -11 8 -19 1
-7 -6 -16 -8 -19 -4 -10 9 -66 10 -60 1 2 -5 -7 -4 -21 2 -16 6 -26 6 -26 0 0
-6 -9 -6 -23 -1 -14 5 -30 5 -40 0 -11 -7 -17 -6 -17 0 0 7 -8 7 -25 1 -16 -6
-25 -6 -25 1 0 6 -7 6 -19 -1 -14 -7 -22 -7 -26 0 -5 8 -11 8 -19 1 -7 -6 -16
-8 -19 -4 -10 9 -66 10 -60 1 2 -5 -7 -4 -21 2 -16 6 -26 6 -26 0 0 -6 -9 -6
-23 -1 -14 5 -30 5 -40 0 -11 -7 -17 -6 -17 0 0 7 -8 7 -25 1 -16 -6 -25 -6
-25 1 0 6 -6 6 -19 0 -10 -6 -21 -7 -25 -4 -9 10 -56 10 -56 0 0 -4 -9 -3 -20
3 -14 8 -20 8 -20 0 0 -8 -6 -8 -20 0 -14 8 -20 8 -20 0 0 -7 -6 -8 -19 0 -14
7 -20 7 -23 -2 -3 -7 -10 -8 -17 -3 -17 10 -241 13 -234 3 2 -5 -6 -4 -19 0
-27 9 -70 8 -87 -2 -6 -4 -11 -2 -11 4 0 8 -6 8 -20 0 -14 -8 -20 -8 -20 0 0
8 -6 8 -20 0 -14 -8 -20 -8 -20 0 0 6 -5 8 -11 5 -13 -9 -79 -12 -79 -5 0 3
-11 5 -25 5 -14 0 -25 -4 -25 -8 0 -4 -9 -3 -19 3 -13 7 -22 7 -26 0 -4 -7
-12 -7 -25 0 -13 7 -21 7 -25 0 -4 -6 -11 -7 -17 -4 -16 10 -68 11 -68 1 0 -5
-5 -5 -11 -2 -17 11 -59 13 -59 3 0 -5 -9 -4 -20 2 -14 8 -20 8 -20 0 0 -8 -6
-8 -20 0 -14 8 -20 8 -20 0 0 -7 -6 -8 -19 0 -14 7 -20 7 -23 -2 -3 -7 -10 -8
-17 -3 -17 10 -241 13 -234 3 2 -5 -6 -4 -19 0 -27 9 -70 8 -87 -2 -6 -4 -11
-2 -11 4 0 8 -6 8 -20 0 -14 -8 -20 -8 -20 0 0 8 -6 8 -20 0 -14 -8 -20 -8
-20 0 0 6 -5 8 -11 5 -13 -9 -79 -12 -79 -5 0 3 -11 5 -25 5 -14 0 -25 -4 -25
-8 0 -4 -9 -3 -19 3 -13 7 -22 7 -26 0 -4 -7 -12 -7 -25 0 -13 7 -21 7 -25 0
-4 -6 -11 -7 -17 -4 -16 10 -68 11 -68 1 0 -5 -5 -5 -11 -2 -17 11 -59 13 -59
3 0 -5 -9 -4 -20 2 -14 8 -20 8 -20 0 0 -8 -6 -8 -20 0 -14 8 -20 8 -20 0 0
-7 -6 -8 -19 0 -14 7 -20 7 -23 -2 -3 -7 -10 -8 -17 -3 -17 10 -241 13 -234 3
2 -5 -6 -4 -19 0 -27 9 -70 8 -87 -2 -6 -4 -11 -2 -11 4 0 8 -6 8 -20 0 -14
-8 -20 -8 -20 0 0 8 -6 8 -20 0 -14 -8 -20 -8 -20 0 0 8 -6 8 -20 0 -11 -6
-26 -8 -32 -4 -15 10 -67 11 -61 2 2 -5 -7 -4 -21 2 -16 6 -26 6 -26 0 0 -6
-9 -6 -23 -1 -14 5 -30 5 -40 0 -11 -7 -17 -6 -17 0 0 7 -8 7 -25 1 -16 -6
-25 -6 -25 1 0 6 -7 6 -19 -1 -14 -7 -22 -7 -26 0 -5 8 -11 8 -19 1 -7 -6 -16
-8 -19 -4 -10 9 -66 10 -60 1 2 -5 -7 -4 -21 2 -16 6 -26 6 -26 0 0 -6 -9 -6
-23 -1 -14 5 -30 5 -40 0 -11 -7 -17 -6 -17 0 0 7 -8 7 -25 1 -16 -6 -25 -6
-25 1 0 6 -7 6 -19 -1 -14 -7 -22 -7 -26 0 -5 8 -11 8 -19 1 -7 -6 -16 -8 -19
-4 -10 9 -66 10 -60 1 2 -5 -7 -4 -21 2 -16 6 -26 6 -26 0 0 -6 -9 -6 -23 -1
-14 5 -30 5 -40 0 -11 -7 -17 -6 -17 0 0 7 -8 7 -25 1 -16 -6 -25 -6 -25 1 0
6 -7 6 -19 -1 -14 -7 -22 -7 -26 0 -5 8 -11 8 -19 1 -7 -6 -16 -8 -19 -4 -10
9 -66 10 -60 1 2 -5 -7 -4 -21 2 -16 6 -26 6 -26 0 0 -6 -9 -6 -23 -1 -14 5
-30 5 -40 0 -11 -7 -17 -6 -17 0 0 7 -8 7 -25 1 -16 -6 -25 -6 -25 1 0 6 -7 6
-19 -1 -12 -6 -22 -6 -26 -1 -5 10 -37 7 -55 -4 -6 -3 -10 -1 -10 5 0 7 -6 8
-19 0 -14 -7 -22 -7 -26 0 -5 8 -11 8 -20 0 -10 -8 -15 -8 -20 0 -5 8 -10 8
-20 0 -16 -13 -26 -50 -14 -50 4 0 6 -6 3 -14 -8 -22 -10 -135 -2 -129 5 2 4
-6 -1 -19 -4 -13 -5 -32 -1 -43 4 -11 5 -24 3 -28 -8 -14 -9 -117 -1 -117 4 0
3 -11 -2 -25 -6 -15 -6 -26 0 -30 6 -4 7 -13 1 -23 -6 -11 -6 -24 0 -35 6 -9
6 -17 2 -17 -4 0 -8 -33 -8 -74 0 -41 3 -72 7 -69 5 2 4 -6 -1 -19 -4 -13 -5
-32 -1 -43 4 -11 3 -30 -1 -43 -6 -14 -5 -31 1 -43 7 -13 7 -19 1 -19 -7 0 -7
-9 -1 -25 6 -15 6 -27 0 -30 -6 -3 -6 -15 0 -30 5 -14 6 -25 2 -25 -8 0 -7
-172 1 -194 4 -9 2 -16 -3 -16 -6 0 -6 -9 0 -25 6 -15 6 -27 0 -30 -6 -3 -6
-15 0 -30 5 -14 6 -25 2 -25 -4 0 -7 -47 -7 -104 0 -57 3 -102 7 -99 5 2 4 -6
-1 -19 -4 -13 -5 -32 -1 -43 4 -11 5 -24 3 -28 -8 -14 -9 -117 -1 -117 4 0 3
-11 -2 -25 -6 -15 -6 -26 0 -30 6 -4 7 -13 1 -23 -6 -11 -6 -24 0 -35 6 -9 6
-17 2 -17 -4 0 -8 -33 -8 -74 0 -41 3 -72 7 -69 5 2 4 -6 -1 -19 -4 -13 -5
-32 -1 -43 4 -11 3 -30 -1 -43 -6 -14 -5 -31 1 -43 7 -13 7 -19 1 -19 -7 0 -7
-9 -1 -25 6 -15 6 -27 0 -30 -6 -3 -6 -15 0 -30 5 -14 6 -25 2 -25 -4 0 -7
-47 -7 -104 0 -57 3 -102 7 -99 5 2 4 -6 -1 -19 -4 -13 -5 -32 -1 -43 4 -11 5
-24 3 -28 -8 -14 -9 -117 -1 -117 4 0 3 -11 -2 -25 -6 -15 -6 -26 0 -30 6 -4
7 -13 1 -23 -6 -11 -6 -24 0 -35 6 -9 6 -17 2 -17 -4 0 -8 -33 -8 -74 0 -41 3
-72 7 -69 5 2 4 -6 -1 -19 -4 -13 -5 -32 -1 -43 4 -11 3 -30 -1 -43 -6 -14 -5
-31 1 -43 7 -13 7 -19 1 -19 -7 0 -7 -9 -1 -25 6 -15 6 -27 0 -30 -6 -3 -6
-15 0 -30 5 -14 6 -25 2 -25 -4 0 -7 -47 -7 -104 0 -57 3 -102 7 -99 5 2 4 -6
-1 -19 -4 -13 -5 -32 -1 -43 4 -11 5 -24 3 -28 -8 -14 -9 -117 -1 -117 4 0 3
-11 -2 -25 -6 -15 -6 -26 0 -30 6 -4 7 -13 1 -23 -6 -11 -6 -24 0 -35 6 -9 6
-17 2 -17 -4 0 -8 -33 -8 -74 0 -41 3 -72 7 -69 5 2 4 -6 -1 -19 -4 -13 -5
-32 -1 -43 4 -11 3 -30 -1 -43 -6 -14 -5 -31 1 -43 7 -13 7 -19 1 -19 -7 0 -7
-9 -1 -25 6 -15 6 -27 0 -30 -6 -3 -6 -15 0 -30 5 -14 6 -25 2 -25 -4 0 -7
-47 -7 -104 0 -57 3 -102 7 -99 5 2 4 -6 -1 -19 -4 -13 -5 -32 -1 -43 4 -11 5
-24 3 -28 -8 -14 -9 -117 -1 -117 4 0 3 -11 -2 -25 -6 -15 -6 -26 0 -30 6 -4
7 -13 1 -23 -6 -11 -6 -24 0 -35 6 -9 6 -17 2 -17 -4 0 -8 -33 -8 -74 0 -41 3
-72 7 -69 5 2 4 -6 -1 -19 -4 -13 -5 -32 -1 -43 4 -11 3 -30 -1 -43 -6 -14 -5
-31 1 -43 7 -13 7 -19 1 -19 -7 0 -7 -9 -1 -25 6 -15 6 -27 0 -30 -6 -3 -6
-15 0 -30 5 -14 6 -25 2 -25 -4 0 -7 -45 -7 -100 0 -55 3 -100 7 -100 4 0 4
-10 -1 -22 -5 -13 -5 -32 -1 -43 4 -11 5 -24 3 -28 -8 -14 -9 -117 -1 -117 4
0 3 -11 -2 -25 -6 -15 -6 -26 0 -30 6 -4 7 -13 1 -23 -6 -11 -6 -24 0 -35 6
-9 6 -17 2 -17 -4 0 -8 -33 -8 -74 0 -41 3 -72 7 -69 5 2 4 -6 -1 -19 -4 -13
-5 -32 -1 -43 4 -11 5 -24 3 -29 -9 -14 -9 -106 0 -106 4 0 3 -8 -2 -18 -6
-10 -6 -24 -1 -32 5 -8 6 -18 3 -23 -9 -15 -9 -216 -1 -210 5 2 4 -6 -1 -19
-4 -13 -5 -32 -1 -43 4 -11 3 -30 -1 -43 -5 -14 -5 -31 0 -40 6 -11 6 -24 0
-34 -6 -10 -6 -19 0 -22 6 -4 6 -18 1 -36 -5 -19 -5 -30 1 -30 6 0 6 -6 0 -18
-6 -11 -6 -24 0 -34 6 -11 6 -19 -1 -23 -5 -3 -10 -5 -11 -3 -3 15 -24 122
-35 185 -3 16 -7 35 -9 43 -3 8 -7 32 -11 54 -3 21 -8 47 -10 57 -12 53 -15
68 -24 119 -6 30 -12 64 -14 75 -2 11 -11 54 -20 95 -8 41 -18 90 -21 108 -3
18 -12 64 -20 103 -8 38 -17 84 -19 102 -2 18 -7 39 -10 47 -3 8 -8 32 -11 54
-3 21 -7 41 -9 45 -2 3 -7 27 -10 53 -4 26 -9 53 -11 60 -2 7 -6 25 -9 40 -3
15 -12 63 -20 105 -9 43 -18 92 -21 108 -3 17 -8 39 -10 50 -5 25 -12 62 -20
100 -3 17 -8 41 -11 55 -3 14 -7 39 -10 55 -3 17 -19 95 -34 175 -16 80 -31
156 -34 170 -2 14 -10 50 -16 80 -6 30 -13 69 -16 85 -2 17 -7 38 -10 48 -3
11 -8 31 -10 45 -2 15 -6 38 -9 52 -3 14 -7 34 -9 45 -4 20 -23 101 -33 140
-10 40 -25 110 -28 130 -2 11 -4 20 -5 20 -2 0 -5 14 -14 53 -3 13 -7 31 -10
40 -3 9 -8 31 -11 49 -3 18 -9 43 -15 57 -5 15 -8 26 -6 26 2 0 -2 20 -9 44
-8 24 -11 47 -8 50 4 3 2 6 -3 6 -5 0 -10 10 -10 23 -1 12 -9 51 -17 87 -59
245 -109 457 -112 470 -2 8 -8 35 -15 60 -7 25 -14 54 -16 65 -2 11 -8 40 -14
65 -6 25 -13 56 -16 70 -3 14 -10 43 -16 65 -5 22 -12 51 -15 65 -8 40 -11 55
-13 55 -1 0 -3 9 -5 20 -2 11 -6 31 -10 45 -4 14 -8 34 -10 45 -2 11 -4 20 -5
20 -1 0 -4 11 -6 25 -8 44 -11 55 -17 70 -3 8 -11 42 -18 75 -7 33 -13 62 -14
65 -5 17 -46 191 -51 215 -2 11 -11 49 -20 85 -9 36 -18 74 -20 85 -2 11 -20
85 -40 165 -19 80 -38 159 -41 175 -9 48 -11 60 -14 60 -1 0 -3 9 -5 20 -3 24
-11 61 -18 83 -3 9 -7 28 -10 42 -3 14 -9 41 -14 60 -5 19 -9 37 -10 40 0 3
-3 12 -5 20 -3 8 -10 40 -17 70 -6 30 -23 102 -36 160 -33 139 -64 270 -69
295 -3 11 -14 58 -26 105 -11 47 -22 93 -25 103 -2 10 -5 26 -8 35 -3 9 -8 28
-10 42 -3 14 -10 44 -16 68 -6 24 -8 47 -5 52 3 4 1 10 -4 12 -8 3 -16 33 -25
88 -1 9 -5 21 -10 28 -4 6 -5 12 -3 12 3 0 -1 19 -7 42 -11 35 -17 42 -40 43
-15 0 -30 -3 -32 -7 -3 -5 -14 -4 -24 2 -13 7 -21 7 -25 0 -4 -7 -12 -7 -25 0
-13 7 -21 7 -25 0 -4 -6 -11 -7 -17 -4 -16 10 -68 11 -68 1 0 -5 -5 -5 -11 -2
-17 11 -59 13 -59 3 0 -5 -9 -4 -20 2 -14 8 -20 8 -20 0 0 -8 -6 -8 -20 0 -14
8 -20 8 -20 0 0 -7 -6 -8 -19 0 -14 7 -20 7 -23 -2 -3 -7 -10 -8 -17 -3 -17
10 -241 13 -234 3 2 -5 -6 -4 -19 0 -27 9 -70 8 -87 -2 -6 -4 -11 -2 -11 4 0
8 -6 8 -20 0 -14 -8 -20 -8 -20 0 0 8 -6 8 -20 0 -14 -8 -20 -8 -20 0 0 6 -5
8 -11 5 -13 -9 -79 -12 -79 -5 0 3 -11 5 -25 5 -14 0 -25 -4 -25 -8 0 -4 -9
-3 -19 3 -13 7 -22 7 -26 0 -4 -7 -12 -7 -25 0 -13 7 -21 7 -25 0 -4 -6 -11
-7 -17 -4 -16 10 -68 11 -68 1 0 -5 -5 -5 -11 -2 -17 11 -59 13 -59 3 0 -5 -9
-4 -20 2 -14 8 -20 8 -20 0 0 -8 -6 -8 -20 0 -14 8 -20 8 -20 0 0 -7 -6 -8
-19 0 -14 7 -20 7 -23 -2 -3 -7 -10 -8 -17 -3 -17 10 -241 13 -234 3 2 -5 -6
-4 -19 0 -27 9 -70 8 -87 -2 -6 -4 -11 -2 -11 4 0 8 -6 8 -20 0 -14 -8 -20 -8
-20 0 0 8 -6 8 -20 0 -14 -8 -20 -8 -20 0 0 6 -5 8 -11 5 -13 -9 -79 -12 -79
-5 0 3 -11 5 -25 5 -14 0 -25 -4 -25 -8 0 -4 -9 -3 -19 3 -13 6 -22 7 -26 0
-4 -6 -15 -6 -30 0 -16 6 -25 6 -25 0 0 -6 -9 -6 -24 0 -15 5 -27 5 -34 -2 -6
-6 -12 -6 -16 0 -3 5 -25 6 -51 2 -25 -4 -45 -4 -45 -1 0 3 -11 6 -25 6 -14 0
-25 -4 -25 -8 0 -4 -9 -3 -19 3 -13 7 -22 7 -26 0 -4 -7 -12 -7 -25 0 -13 7
-21 7 -25 0 -4 -6 -11 -7 -17 -4 -16 10 -68 11 -68 1 0 -5 -5 -5 -11 -2 -17
11 -59 13 -59 3 0 -5 -9 -4 -20 2 -14 8 -20 8 -20 0 0 -8 -6 -8 -20 0 -14 8
-20 8 -20 0 0 -7 -6 -8 -19 0 -14 7 -20 7 -23 -2 -3 -7 -10 -8 -17 -3 -17 10
-241 13 -234 3 2 -5 -6 -4 -19 0 -27 9 -70 8 -87 -2 -6 -4 -11 -2 -11 4 0 8
-6 8 -20 0 -14 -8 -20 -8 -20 0 0 8 -6 8 -20 0 -14 -8 -20 -8 -20 0 0 6 -5 8
-11 5 -13 -9 -79 -12 -79 -5 0 3 -11 5 -25 5 -14 0 -25 -4 -25 -8 0 -4 -9 -3
-19 3 -13 6 -22 7 -26 0 -4 -6 -15 -6 -30 0 -16 6 -25 6 -25 0 0 -6 -9 -6 -24
0 -15 5 -27 5 -34 -2 -6 -6 -12 -6 -16 0 -3 5 -25 6 -51 2 -25 -4 -45 -4 -45
-1 0 3 -11 6 -25 6 -14 0 -25 -4 -25 -8 0 -4 -9 -3 -19 3 -13 7 -22 7 -26 0
-4 -7 -12 -7 -25 0 -13 7 -21 7 -25 0 -4 -6 -11 -7 -17 -4 -16 10 -68 11 -68
1 0 -5 -5 -5 -11 -2 -17 11 -59 13 -59 3 0 -5 -9 -4 -20 2 -14 8 -20 8 -20 0
0 -8 -6 -8 -20 0 -14 8 -20 8 -20 0 0 -7 -6 -8 -19 0 -14 7 -20 7 -23 -2 -3
-7 -10 -8 -18 -3 -17 10 -180 13 -180 2 0 -4 -9 -3 -19 3 -13 7 -22 7 -26 0
-4 -7 -12 -7 -25 0 -13 7 -21 7 -25 0 -4 -6 -12 -7 -18 -3 -17 10 -47 11 -47
1 0 -5 -9 -4 -20 2 -14 8 -20 8 -20 0 0 -8 -6 -8 -20 0 -14 8 -20 8 -20 0z
m410 -323 c14 -2 33 1 43 6 10 5 17 4 17 -3 0 -8 6 -8 20 0 14 8 20 8 20 0 0
-8 6 -8 20 0 14 8 20 8 20 0 0 -6 5 -8 11 -5 13 9 79 12 79 5 0 -3 11 -5 25
-5 14 0 25 4 25 8 0 4 9 3 19 -3 13 -6 22 -7 26 0 4 6 15 6 30 0 16 -6 25 -6
25 0 0 6 9 6 25 0 16 -6 26 -6 31 1 4 7 10 7 15 2 6 -6 30 -7 54 -3 25 4 45 4
45 1 0 -3 11 -6 25 -6 14 0 25 4 25 8 0 4 9 3 19 -3 13 -7 22 -7 26 0 4 7 12
7 25 0 13 -7 21 -7 25 0 4 6 11 7 17 4 16 -10 68 -11 68 -1 0 5 5 5 11 2 17
-11 59 -13 59 -3 0 5 9 4 20 -2 14 -8 20 -8 20 0 0 8 6 8 20 0 14 -8 20 -8 20
0 0 7 6 8 19 0 14 -7 21 -6 24 3 3 9 7 9 19 0 8 -7 18 -10 21 -7 6 6 201 7
262 1 17 -1 38 1 48 6 10 5 17 4 17 -3 0 -8 6 -8 20 0 14 8 20 8 20 0 0 -8 6
-8 20 0 14 8 20 8 20 0 0 -6 5 -8 11 -5 13 9 79 12 79 5 0 -3 11 -5 25 -5 14
0 25 4 25 8 0 4 9 3 19 -3 13 -6 22 -7 26 0 4 6 15 6 30 0 16 -6 25 -6 25 0 0
6 9 6 25 0 16 -6 26 -6 31 1 4 7 10 7 15 2 6 -6 30 -7 54 -3 25 4 45 4 45 1 0
-3 11 -6 25 -6 14 0 25 4 25 8 0 4 9 3 19 -3 13 -7 22 -7 26 0 4 7 12 7 25 0
13 -7 21 -7 25 0 4 6 11 7 17 4 16 -10 68 -11 68 -1 0 5 5 5 11 2 17 -11 59
-13 59 -3 0 5 9 4 20 -2 14 -8 20 -8 20 0 0 8 6 8 20 0 14 -8 20 -8 20 0 0 7
6 8 19 0 14 -7 21 -6 24 3 3 9 7 9 19 0 8 -7 18 -10 21 -7 6 6 201 7 262 1 17
-1 38 1 48 6 10 5 17 4 17 -3 0 -8 6 -8 20 0 14 8 20 8 20 0 0 -8 6 -8 20 0
14 8 20 8 20 0 0 -6 5 -8 11 -5 13 9 79 12 79 5 0 -3 11 -5 25 -5 14 0 25 4
25 8 0 4 9 3 19 -3 13 -6 22 -7 26 0 4 6 15 6 30 0 16 -6 25 -6 25 0 0 6 9 6
25 0 16 -6 26 -6 31 1 4 7 10 7 16 1 7 -7 19 -7 34 -2 14 6 26 6 29 0 3 -5 18
-5 33 -1 15 5 37 4 50 0 13 -5 22 -4 22 1 0 6 9 6 23 1 14 -5 30 -5 40 0 11 7
17 6 17 0 0 -7 8 -7 25 -1 16 6 25 6 25 -1 0 -6 7 -6 19 1 14 7 22 7 26 0 5
-8 11 -8 20 0 8 7 15 7 19 1 4 -5 18 -6 34 -2 15 5 37 4 50 0 13 -5 22 -4 22
1 0 6 9 6 23 1 14 -5 30 -5 40 0 11 7 17 6 17 0 0 -7 8 -7 25 -1 16 6 25 6 25
-1 0 -6 6 -6 19 0 10 6 21 7 25 4 4 -4 19 -7 33 -8 22 0 28 -6 34 -30 4 -16
14 -61 23 -100 9 -38 19 -81 22 -94 3 -13 12 -51 20 -85 9 -34 24 -99 35 -146
23 -102 27 -117 33 -138 3 -9 8 -30 10 -47 3 -16 10 -45 16 -64 5 -19 8 -37 5
-39 -3 -3 -1 -10 4 -16 5 -6 12 -24 14 -41 3 -16 8 -40 11 -52 3 -13 8 -32 11
-44 2 -11 6 -28 9 -37 3 -9 8 -32 11 -51 3 -19 10 -42 16 -52 5 -11 8 -19 5
-19 -2 0 0 -17 5 -37 13 -53 18 -75 24 -98 2 -11 6 -29 9 -40 2 -11 11 -49 20
-85 8 -36 19 -83 25 -105 5 -22 12 -54 16 -72 3 -18 9 -42 14 -55 5 -13 9 -26
9 -31 1 -18 25 -124 33 -147 5 -14 11 -37 13 -53 3 -15 7 -35 10 -45 3 -9 8
-29 11 -44 3 -16 8 -40 11 -55 3 -16 7 -35 8 -43 0 -8 4 -17 8 -20 3 -3 8 -23
10 -45 2 -22 8 -46 12 -53 4 -8 5 -16 2 -19 -3 -3 -2 -11 4 -17 5 -7 12 -27
15 -46 3 -19 8 -43 11 -52 3 -9 7 -26 9 -37 12 -51 14 -60 23 -94 6 -20 8 -38
5 -41 -3 -3 -1 -11 5 -18 5 -7 12 -29 15 -48 3 -19 7 -42 11 -50 3 -8 8 -26
10 -40 3 -14 7 -34 10 -45 2 -11 12 -51 21 -90 23 -100 52 -223 64 -270 5 -22
13 -55 16 -74 3 -19 8 -37 10 -41 2 -3 6 -17 9 -31 3 -13 12 -55 21 -94 9 -38
17 -78 18 -87 1 -10 5 -18 10 -18 4 0 6 -4 3 -9 -3 -5 -1 -22 4 -37 5 -16 11
-43 13 -59 2 -17 6 -36 10 -41 3 -6 9 -26 12 -45 9 -46 13 -64 15 -64 1 0 3
-9 5 -20 3 -21 5 -29 29 -128 l13 -57 -43 3 c-24 2 -44 0 -44 -3 0 -4 -20 -4
-45 0 -25 4 -48 3 -51 -2 -3 -4 -10 -6 -15 -2 -9 5 -120 8 -144 4 -5 -2 -14
-1 -20 0 -10 2 -67 2 -152 -2 -24 -1 -45 1 -49 5 -3 3 -16 2 -29 -3 -13 -5
-26 -6 -29 -3 -8 8 -106 10 -106 2 0 -3 -20 -3 -45 1 -25 4 -48 3 -51 -2 -3
-4 -10 -6 -15 -2 -9 5 -120 8 -144 4 -5 -2 -14 -1 -20 0 -10 2 -67 2 -152 -2
-24 -1 -45 1 -49 5 -3 3 -16 2 -29 -3 -13 -5 -26 -6 -29 -3 -8 8 -106 10 -106
2 0 -3 -20 -3 -45 1 -25 4 -48 3 -51 -1 -2 -5 -14 -5 -26 0 -11 4 -40 4 -64 1
-24 -4 -46 -5 -49 -2 -8 8 -65 8 -65 0 0 -4 -10 -4 -22 1 -13 5 -32 5 -43 1
-11 -4 -24 -5 -29 -2 -15 9 -66 8 -66 -1 0 -5 -5 -5 -10 -2 -10 6 -83 9 -105
5 -5 -1 -14 -1 -20 0 -10 2 -67 2 -152 -2 -24 -1 -45 1 -49 5 -3 3 -16 2 -29
-3 -13 -5 -26 -6 -29 -3 -8 8 -106 10 -106 2 0 -3 -20 -3 -45 1 -25 4 -48 3
-51 -1 -2 -5 -14 -5 -26 0 -11 4 -40 4 -64 1 -24 -4 -46 -5 -49 -2 -8 8 -65 8
-65 0 0 -4 -10 -4 -22 1 -13 5 -32 5 -43 1 -11 -4 -24 -5 -29 -2 -14 8 -66 8
-66 0 0 -4 -12 -3 -26 2 -14 6 -30 8 -35 5 -13 -8 -107 -10 -115 -3 -3 4 -16
3 -29 -2 -13 -5 -26 -6 -29 -3 -9 9 -106 9 -106 0 0 -4 -8 -3 -19 2 -10 6 -21
8 -24 5 -7 -8 -105 -9 -113 -2 -3 4 -16 3 -29 -2 -13 -5 -26 -6 -29 -3 -7 7
-106 10 -106 3 0 -3 -17 -4 -37 -3 -21 1 -38 2 -38 3 0 1 -15 2 -33 3 -17 1
-32 -1 -32 -5 0 -4 -10 -4 -22 1 -13 5 -32 5 -43 1 -11 -4 -24 -5 -29 -2 -15
9 -66 8 -66 -1 0 -5 -5 -5 -10 -2 -10 6 -83 9 -105 5 -5 -1 -14 -1 -20 0 -10
2 -67 2 -152 -2 -24 -1 -45 1 -49 5 -3 3 -16 2 -29 -3 -13 -5 -26 -6 -29 -3
-8 8 -106 10 -106 2 0 -3 -20 -3 -45 1 -25 4 -48 3 -51 -1 -2 -5 -14 -5 -26 0
-11 4 -40 4 -64 1 -24 -4 -46 -5 -49 -2 -8 8 -65 8 -65 0 0 -4 -10 -4 -22 1
-13 5 -32 5 -43 1 -11 -4 -24 -5 -29 -2 -14 8 -66 8 -66 0 0 -4 -12 -3 -26 2
-14 6 -30 8 -35 5 -13 -8 -107 -10 -115 -3 -3 4 -16 3 -29 -2 -13 -5 -26 -6
-29 -3 -9 9 -106 9 -106 0 0 -4 -8 -3 -19 2 -10 6 -21 8 -24 5 -7 -8 -105 -9
-113 -2 -3 4 -16 3 -29 -2 -13 -5 -26 -6 -29 -3 -7 7 -106 10 -106 3 0 -3 -17
-4 -37 -3 -21 1 -38 2 -38 3 0 1 -15 2 -33 3 -17 1 -32 -1 -32 -5 0 -4 -11 -4
-23 1 -13 5 -29 6 -36 2 -7 -5 -23 -6 -35 -4 -25 5 -26 18 -11 88 4 17 8 37
10 45 2 8 4 15 6 15 1 0 3 9 4 20 2 11 5 31 8 45 3 14 8 36 11 50 3 14 9 39
13 55 4 17 7 32 8 35 1 3 5 25 10 50 10 53 12 59 15 63 2 2 6 19 14 62 3 17 8
40 11 53 3 12 7 31 10 43 2 11 6 28 9 37 3 9 7 28 10 42 2 14 25 117 51 230
26 113 49 216 51 230 3 14 14 62 24 107 11 46 22 94 25 108 3 14 7 37 10 51 3
14 13 56 21 93 9 36 17 74 20 84 2 10 5 26 8 35 3 9 8 31 11 47 3 17 8 40 10
53 3 12 7 33 9 46 2 14 7 29 10 34 3 5 8 27 11 48 3 22 10 55 15 74 9 36 48
204 54 237 2 10 16 72 31 138 15 66 29 128 31 138 2 10 5 26 8 35 3 9 8 35 12
57 3 22 8 43 11 47 2 5 6 18 9 30 2 13 7 34 10 48 3 14 7 36 9 50 2 14 4 25 5
25 1 0 3 7 5 15 2 8 6 26 9 40 3 14 8 36 11 50 4 14 8 36 10 50 2 14 4 25 5
25 1 0 3 7 5 15 8 38 15 68 24 104 5 22 8 44 5 48 -3 4 -1 8 3 8 5 0 9 8 10
18 1 16 6 40 18 92 3 14 7 34 9 45 2 11 9 38 14 60 6 22 14 54 17 70 3 17 7
35 9 40 1 6 6 28 10 50 4 22 12 54 16 70 5 17 12 42 15 58 3 15 7 39 10 53 22
102 20 99 49 101 16 1 30 3 32 5 3 3 37 2 114 -5z m6075 0 c17 -1 38 1 48 6
10 5 17 4 17 -3 0 -8 6 -8 20 0 14 8 20 8 20 0 0 -7 6 -8 19 0 14 7 22 7 27
-1 4 -7 9 -8 17 0 7 7 16 7 29 0 12 -7 18 -6 18 1 0 8 6 8 20 0 14 -8 20 -8
20 0 0 8 6 8 20 0 14 -8 20 -8 20 0 0 7 6 8 19 0 14 -7 21 -6 24 3 3 9 7 9 19
0 8 -7 18 -10 21 -7 6 6 201 7 262 1 17 -1 38 1 48 6 10 5 17 4 17 -3 0 -8 6
-8 20 0 14 8 20 8 20 0 0 -8 6 -8 20 0 14 8 20 8 20 0 0 -7 6 -7 21 0 12 7 25
8 32 2 7 -5 23 -6 37 -2 14 4 35 3 48 -1 13 -5 22 -5 22 1 0 6 9 6 23 1 14 -5
30 -5 40 0 11 7 17 6 17 0 0 -7 8 -7 25 -1 16 6 25 6 25 -1 0 -6 7 -6 19 1 14
7 22 7 26 0 5 -8 11 -8 20 0 8 7 15 7 19 1 4 -5 18 -6 34 -2 15 5 37 4 50 0
13 -5 22 -4 22 1 0 6 9 6 23 1 14 -5 30 -5 40 0 11 7 17 6 17 0 0 -7 8 -7 25
-1 16 6 25 6 25 -1 0 -6 7 -6 19 1 12 6 22 6 25 1 3 -5 21 -5 41 -1 19 4 35 5
35 1 0 -3 11 -6 25 -6 14 0 25 4 25 8 0 4 9 3 19 -3 13 -7 22 -7 26 0 4 7 12
7 25 0 13 -7 21 -7 25 0 4 6 11 7 17 4 16 -10 68 -11 68 -1 0 5 5 5 11 2 17
-11 59 -13 59 -3 0 5 9 4 20 -2 14 -8 20 -8 20 0 0 8 6 8 20 0 14 -8 20 -8 20
0 0 7 6 8 19 0 14 -7 21 -6 24 3 3 9 7 9 19 0 8 -7 18 -10 21 -7 6 6 201 7
262 1 17 -1 38 1 48 6 10 5 17 4 17 -3 0 -8 6 -8 20 0 14 8 20 8 20 0 0 -8 6
-8 20 0 14 8 20 8 20 0 0 -6 5 -8 11 -5 13 9 79 12 79 5 0 -3 11 -5 25 -5 14
0 25 4 25 8 0 4 9 3 19 -3 13 -6 22 -7 26 0 4 6 15 6 30 0 16 -6 25 -6 25 0 0
6 9 6 25 0 16 -6 26 -6 31 1 4 7 10 7 16 1 7 -7 19 -7 34 -2 14 6 26 6 29 0 3
-5 18 -5 33 -1 15 5 37 4 50 0 13 -5 22 -4 22 1 0 6 9 6 23 1 14 -5 30 -5 40
0 11 7 17 6 17 0 0 -7 8 -7 25 -1 16 6 25 6 25 -1 0 -6 7 -6 19 1 14 7 22 7
26 0 5 -8 11 -8 20 0 8 7 15 7 19 1 4 -5 18 -6 34 -2 15 5 37 4 50 0 13 -5 22
-4 22 1 0 6 9 6 23 1 14 -5 30 -5 40 0 11 7 17 6 17 0 0 -7 8 -7 25 -1 16 6
25 6 25 -1 0 -6 6 -6 19 0 10 6 21 7 25 4 9 -10 56 -10 56 0 0 4 9 3 20 -3 14
-8 20 -8 20 0 0 8 6 8 20 0 14 -8 20 -8 20 0 0 7 6 8 19 0 14 -7 21 -6 24 3 3
9 7 9 19 0 8 -7 18 -10 21 -7 6 6 201 7 262 1 17 -1 38 1 48 6 10 5 17 4 17
-3 0 -8 6 -8 20 0 14 8 20 8 20 0 0 -7 6 -8 19 0 14 7 22 7 27 -1 4 -7 9 -8
17 0 7 7 16 7 29 0 12 -7 18 -6 18 1 0 8 6 8 20 0 14 -8 20 -8 20 0 0 8 6 8
20 0 14 -8 20 -8 20 0 0 7 6 8 19 0 14 -7 21 -6 24 3 3 9 7 9 19 0 8 -7 18
-10 21 -7 6 6 201 7 262 1 17 -1 38 1 48 6 10 5 17 4 17 -3 0 -8 6 -8 20 0 14
8 20 8 20 0 0 -8 6 -8 20 0 14 8 20 8 20 0 0 -7 6 -7 21 0 12 7 25 8 32 2 7
-5 23 -6 37 -2 14 4 35 3 48 -1 13 -5 22 -5 22 1 0 6 9 6 23 1 14 -5 30 -5 40
0 11 7 17 6 17 0 0 -7 8 -7 25 -1 16 6 25 6 25 -1 0 -6 7 -6 19 1 14 7 22 7
26 0 5 -8 11 -8 20 0 8 7 15 7 19 1 4 -5 18 -6 34 -2 15 5 37 4 50 0 13 -5 22
-4 22 1 0 6 9 6 23 1 14 -5 30 -5 40 0 11 7 17 6 17 0 0 -7 8 -7 25 -1 16 6
25 6 25 -1 0 -6 7 -6 19 1 12 6 22 6 25 1 3 -5 21 -5 41 -1 19 4 35 5 35 1 0
-3 11 -6 25 -6 14 0 25 4 25 8 0 4 9 3 19 -3 13 -7 22 -7 26 0 4 7 12 7 25 0
13 -7 21 -7 25 0 4 6 11 7 17 4 16 -10 68 -11 68 -1 0 5 5 5 11 2 17 -11 59
-13 59 -3 0 5 9 4 20 -2 14 -8 20 -8 20 0 0 8 6 8 20 0 14 -8 20 -8 20 0 0 7
6 8 19 0 14 -7 21 -6 24 3 3 9 7 9 19 0 8 -7 18 -10 21 -7 6 6 201 7 262 1 17
-1 38 1 48 6 10 5 17 4 17 -3 0 -8 6 -8 20 0 14 8 20 8 20 0 0 -8 6 -8 20 0
14 8 20 8 20 0 0 -6 5 -8 11 -5 13 9 79 12 79 5 0 -3 11 -5 25 -5 14 0 25 4
25 8 0 4 9 3 19 -3 13 -6 22 -7 26 0 4 6 15 6 30 0 16 -6 25 -6 25 0 0 6 9 6
25 0 16 -6 26 -6 31 1 4 7 10 7 16 1 7 -7 19 -7 34 -2 14 6 26 6 29 0 3 -5 18
-5 33 -1 15 5 37 4 50 0 13 -5 22 -4 22 1 0 6 9 6 23 1 14 -5 30 -5 40 0 11 7
17 6 17 0 0 -7 8 -7 25 -1 16 6 25 6 25 -1 0 -6 7 -6 19 1 14 7 22 7 26 0 5
-8 11 -8 20 0 8 7 15 7 19 1 4 -5 18 -6 34 -2 15 5 37 4 50 0 13 -5 22 -4 22
1 0 6 9 6 23 1 14 -5 30 -5 40 0 11 7 17 6 17 0 0 -7 8 -7 25 -1 16 6 25 6 25
-1 0 -6 7 -6 19 1 12 6 22 6 25 1 3 -5 21 -5 41 -1 19 4 35 5 35 1 0 -3 11 -6
25 -6 14 0 25 4 25 8 0 4 9 3 19 -3 13 -7 22 -7 26 0 4 7 12 7 25 0 13 -7 21
-7 25 0 4 6 11 7 17 4 16 -10 68 -11 68 -1 0 5 5 5 11 2 17 -11 59 -13 59 -3
0 5 9 4 20 -2 14 -8 20 -8 20 0 0 8 6 8 20 0 14 -8 20 -8 20 0 0 7 6 8 19 0
14 -7 21 -6 24 3 3 9 7 9 19 0 8 -7 18 -10 21 -7 6 6 201 7 262 1 17 -1 38 1
48 6 10 5 17 4 17 -3 0 -8 6 -8 20 0 14 8 20 8 20 0 0 -8 6 -8 20 0 14 8 20 8
20 0 0 -6 5 -8 11 -5 13 9 79 12 79 5 0 -3 11 -5 25 -5 14 0 25 4 25 8 0 4 9
3 19 -3 13 -6 22 -7 26 0 4 6 15 6 30 0 16 -6 25 -6 25 0 0 6 9 6 25 0 16 -6
26 -6 31 1 4 7 10 7 15 2 6 -6 30 -7 54 -3 25 4 45 4 45 1 0 -3 11 -6 25 -6
14 0 25 4 25 8 0 4 9 3 19 -3 13 -6 22 -7 26 0 4 6 15 6 30 0 16 -6 25 -6 25
0 0 6 9 6 25 0 15 -6 26 -6 30 1 4 5 12 6 18 2 16 -10 48 -10 70 0 10 5 17 4
17 -3 0 -7 6 -8 19 0 14 7 22 7 26 0 5 -8 11 -8 20 0 10 8 15 8 20 0 5 -8 11
-7 23 2 13 11 15 10 10 -9 -4 -13 -2 -26 3 -29 6 -4 6 -11 0 -18 -6 -7 -8 -16
-5 -19 6 -6 7 -59 1 -124 -2 -18 0 -33 5 -33 4 0 3 -11 -2 -25 -6 -15 -6 -26
0 -30 6 -4 7 -13 1 -23 -6 -11 -6 -24 0 -35 6 -9 6 -17 2 -17 -4 0 -8 -11 -8
-25 0 -14 3 -25 7 -25 4 0 3 -11 -2 -24 -5 -15 -5 -27 2 -34 7 -7 6 -17 -1
-31 -8 -15 -8 -21 -1 -21 8 0 8 -6 0 -20 -8 -14 -8 -20 0 -20 8 0 8 -6 0 -20
-8 -14 -8 -20 0 -20 6 0 8 -5 4 -11 -10 -17 -11 -60 -2 -86 4 -13 4 -23 0 -23
-4 0 -7 -11 -7 -25 0 -14 2 -25 5 -25 3 0 5 -16 5 -35 0 -19 -2 -35 -5 -35 -3
0 -5 -11 -5 -25 0 -14 3 -25 7 -25 4 0 3 -11 -2 -24 -6 -16 -5 -28 3 -36 9
-10 9 -14 0 -17 -9 -3 -10 -10 -3 -24 8 -13 7 -19 0 -19 -8 0 -8 -6 0 -20 8
-14 8 -20 0 -20 -8 0 -8 -6 0 -20 6 -11 7 -20 3 -20 -4 0 -8 -23 -8 -50 0 -28
3 -50 7 -50 4 0 3 -11 -2 -25 -6 -15 -6 -26 1 -30 6 -4 6 -13 0 -23 -6 -10 -6
-23 0 -34 5 -10 6 -18 2 -18 -4 0 -8 -11 -8 -25 0 -14 3 -25 7 -25 4 0 3 -11
-2 -25 -6 -15 -6 -27 0 -30 6 -3 6 -15 0 -30 -6 -15 -6 -27 1 -30 6 -4 6 -13
0 -23 -6 -10 -6 -23 0 -34 6 -12 6 -18 0 -18 -6 0 -6 -11 -1 -30 5 -19 5 -30
-1 -30 -6 0 -5 -8 1 -20 6 -12 7 -20 1 -20 -5 0 -6 -12 -2 -27 4 -15 4 -47 1
-70 -4 -24 -3 -46 2 -49 4 -3 4 -13 -1 -22 -6 -10 -6 -23 0 -34 6 -12 6 -18 0
-18 -6 0 -6 -11 -1 -30 5 -19 5 -30 -1 -30 -6 0 -5 -8 1 -20 8 -14 8 -20 0
-20 -6 0 -8 -5 -5 -10 9 -15 10 -104 1 -118 -4 -7 -2 -12 4 -12 8 0 8 -6 0
-20 -8 -14 -8 -20 0 -20 8 0 8 -6 0 -20 -8 -14 -8 -20 0 -20 6 0 8 -5 4 -11
-10 -17 -11 -60 -2 -86 4 -13 4 -23 0 -23 -4 0 -7 -11 -7 -25 0 -14 2 -25 5
-25 3 0 5 -16 5 -35 0 -19 -2 -35 -5 -35 -3 0 -5 -11 -5 -25 0 -14 3 -25 7
-25 4 0 3 -11 -2 -24 -6 -16 -5 -28 3 -36 9 -10 9 -14 0 -17 -9 -3 -10 -10 -3
-24 8 -13 7 -19 0 -19 -8 0 -8 -6 0 -20 8 -14 8 -20 0 -20 -8 0 -8 -6 0 -20 8
-14 8 -20 0 -20 -7 0 -8 -6 -1 -17 6 -11 6 -24 0 -35 -7 -12 -6 -18 1 -18 8 0
8 -6 0 -20 -8 -14 -8 -20 0 -20 8 0 8 -6 0 -20 -8 -14 -8 -20 0 -20 6 0 8 -5
4 -11 -10 -17 -11 -60 -2 -86 4 -13 4 -23 0 -23 -4 0 -7 -11 -7 -25 0 -14 2
-25 5 -25 3 0 5 -16 5 -35 0 -19 -2 -35 -5 -35 -3 0 -5 -11 -5 -25 0 -14 3
-25 7 -25 4 0 3 -11 -2 -24 -6 -16 -5 -28 3 -36 9 -10 9 -14 0 -17 -9 -3 -10
-10 -3 -24 8 -13 7 -19 0 -19 -8 0 -8 -6 0 -20 8 -14 8 -20 0 -20 -8 0 -8 -6
0 -20 6 -11 7 -20 3 -20 -4 0 -8 -23 -8 -50 0 -28 3 -50 7 -50 4 0 3 -11 -2
-25 -6 -15 -6 -26 1 -30 6 -4 6 -13 0 -23 -6 -10 -6 -23 0 -34 5 -10 6 -18 2
-18 -4 0 -8 -11 -8 -25 0 -14 3 -25 7 -25 4 0 3 -11 -2 -24 -5 -15 -5 -27 2
-34 7 -7 6 -17 -1 -31 -8 -15 -8 -21 -1 -21 8 0 8 -6 0 -20 -8 -14 -8 -20 0
-20 8 0 8 -6 0 -20 -8 -14 -8 -20 0 -20 8 0 8 -6 0 -20 -9 -17 -22 -19 -123
-20 -61 -1 -121 -1 -132 -1 -11 1 -245 2 -520 4 -469 2 -500 3 -499 20 1 9 -2
17 -6 17 -5 0 -5 14 0 30 5 17 5 30 1 30 -4 0 -5 22 -1 48 3 27 3 61 -1 75 -4
15 -4 27 1 27 5 0 5 12 1 28 -4 15 -4 39 0 55 4 15 4 27 -1 27 -5 0 -5 13 0
30 5 17 5 30 0 30 -4 0 -5 15 -1 33 5 18 5 41 1 52 -4 11 -5 24 -2 29 7 12 9
66 2 66 -3 0 -5 18 -5 40 0 22 2 40 5 40 7 0 4 69 -3 76 -3 3 -1 19 3 35 5 17
5 29 0 29 -6 0 -6 10 -1 23 5 12 5 32 0 45 -5 12 -5 22 -1 22 8 0 6 104 -2
126 -3 8 -1 14 5 14 6 0 7 5 3 11 -8 14 -8 215 1 229 3 5 2 10 -4 10 -7 0 -7
8 -2 23 5 12 5 31 1 42 -4 11 -5 24 -2 30 7 12 6 91 -2 104 -4 5 -2 12 3 16 7
4 7 15 1 30 -5 14 -6 25 -1 25 5 0 5 16 1 35 -4 19 -5 35 -1 35 7 0 6 68 -1
75 -3 3 -2 22 2 43 3 20 3 49 -1 65 -4 15 -4 27 1 27 5 0 5 12 1 28 -4 15 -4
39 0 55 4 15 4 27 -1 27 -5 0 -5 13 0 30 5 17 5 30 1 30 -4 0 -5 22 -1 48 3
27 3 61 -1 75 -4 15 -3 27 1 27 5 0 5 12 1 28 -4 15 -4 39 0 55 4 15 3 27 -1
27 -5 0 -5 14 0 30 5 17 5 30 0 30 -4 0 -6 14 -4 30 5 27 3 30 -23 31 -15 1
-32 0 -38 -1 -5 -1 -39 -1 -75 0 -36 1 -71 1 -77 1 -15 -1 -27 -1 -88 -1 -25
0 -51 0 -57 0 -7 0 -52 1 -101 2 -48 2 -87 0 -87 -4 0 -4 -13 -3 -29 2 -15 4
-34 4 -41 0 -7 -5 -23 -5 -34 0 -12 4 -30 4 -42 0 -11 -5 -27 -5 -34 0 -7 4
-26 4 -41 0 -16 -5 -29 -6 -29 -2 0 4 -16 7 -35 7 -19 0 -35 -3 -35 -7 0 -4
-13 -3 -29 2 -15 4 -34 4 -41 0 -7 -5 -23 -5 -34 0 -12 4 -30 4 -41 0 -11 -4
-27 -4 -35 0 -8 4 -26 4 -40 0 -14 -3 -44 -3 -67 0 -24 4 -43 4 -43 0 0 -4
-15 -4 -32 -1 -18 4 -48 4 -65 0 -18 -4 -33 -4 -33 0 0 7 -86 5 -106 -3 -8 -3
-14 -2 -14 2 0 8 -85 6 -106 -2 -8 -3 -14 -2 -14 2 0 8 -85 6 -106 -2 -8 -3
-14 -2 -14 2 0 8 -85 6 -106 -2 -8 -3 -14 -2 -14 2 0 8 -85 6 -106 -2 -8 -3
-14 -2 -14 2 0 8 -85 6 -106 -2 -8 -3 -14 -2 -14 2 0 8 -85 6 -106 -2 -8 -3
-14 -2 -14 2 0 8 -85 6 -106 -2 -8 -3 -14 -2 -14 2 0 4 -40 7 -90 7 -49 0 -90
-3 -90 -7 0 -4 -13 -3 -29 2 -15 4 -34 4 -41 0 -7 -5 -23 -5 -34 0 -12 4 -30
4 -41 0 -11 -4 -27 -4 -35 0 -8 4 -26 4 -40 0 -14 -4 -37 -3 -51 1 -15 4 -32
3 -39 -1 -7 -5 -23 -5 -34 0 -12 4 -30 4 -41 0 -11 -4 -26 -5 -33 -2 -12 4
-11 -58 3 -138 2 -14 7 -43 10 -65 2 -22 7 -58 10 -80 3 -22 7 -62 10 -90 3
-27 7 -61 10 -75 3 -14 7 -47 10 -75 4 -27 8 -61 10 -75 2 -14 7 -47 10 -75 3
-27 7 -66 10 -85 2 -19 7 -55 10 -80 3 -25 8 -61 10 -80 5 -33 14 -103 20
-160 2 -14 4 -25 5 -25 1 0 4 -22 6 -50 1 -27 3 -50 4 -50 1 0 3 -11 5 -25 2
-14 6 -50 10 -80 4 -30 9 -68 11 -85 2 -16 5 -46 8 -65 3 -19 7 -53 10 -75 13
-113 23 -180 26 -180 0 0 3 -28 5 -63 2 -34 6 -70 9 -80 3 -9 7 -42 11 -72 3
-30 7 -71 10 -90 2 -19 7 -60 11 -90 3 -30 8 -64 10 -75 3 -11 7 -40 9 -65 3
-25 8 -61 11 -80 3 -19 7 -55 10 -80 2 -25 7 -61 9 -80 6 -40 12 -86 20 -150
3 -25 7 -56 10 -70 3 -14 7 -51 9 -82 2 -31 6 -60 9 -65 5 -9 21 -151 21 -200
1 -18 4 -33 8 -33 4 0 6 -8 6 -17 0 -10 3 -43 6 -73 4 -30 9 -71 11 -90 2 -19
6 -46 9 -60 3 -14 7 -47 10 -75 6 -54 15 -131 21 -180 5 -30 12 -86 21 -160 6
-55 13 -103 19 -147 3 -21 7 -55 10 -75 2 -21 7 -60 11 -88 3 -27 7 -62 7 -77
1 -16 4 -28 7 -28 3 0 6 -17 6 -38 1 -20 5 -62 9 -92 4 -30 9 -66 11 -80 1
-14 3 -25 3 -25 1 0 4 -22 6 -50 3 -27 7 -65 10 -82 9 -59 14 -97 19 -143 3
-25 7 -61 10 -80 3 -19 7 -55 11 -80 3 -25 7 -58 10 -75 2 -16 7 -52 10 -80 2
-27 7 -61 9 -75 3 -14 7 -50 10 -80 4 -30 8 -65 10 -77 3 -12 7 -46 11 -75 3
-29 8 -69 10 -88 3 -19 7 -55 10 -80 3 -25 8 -63 11 -85 3 -22 7 -56 9 -75 3
-19 7 -51 10 -70 2 -19 7 -53 9 -75 2 -22 7 -56 10 -75 3 -19 8 -60 11 -90 2
-30 5 -55 5 -55 1 0 3 -9 5 -20 4 -18 6 -39 20 -150 2 -16 6 -52 10 -80 3 -27
9 -72 12 -100 8 -78 11 -100 13 -100 1 0 3 -16 5 -35 2 -35 9 -88 21 -170 4
-25 8 -58 9 -75 2 -16 3 -30 4 -30 1 0 4 -23 6 -52 3 -29 7 -65 10 -80 3 -15
8 -48 10 -73 7 -62 14 -121 19 -147 3 -12 7 -46 10 -75 4 -29 8 -66 10 -83 2
-16 7 -54 11 -84 4 -30 8 -62 10 -73 2 -10 1 -18 -2 -18 -3 0 -57 21 -121 46
-65 25 -146 57 -182 71 -36 14 -74 29 -85 34 -76 30 -257 99 -263 99 -4 0 -24
9 -45 20 -20 11 -39 20 -42 20 -9 1 -41 12 -125 45 -47 18 -116 45 -155 59
-38 15 -78 31 -89 37 -10 6 -27 12 -37 14 -10 2 -33 10 -51 18 -18 9 -71 29
-118 47 -47 17 -99 38 -117 46 -17 8 -34 14 -37 14 -3 0 -90 33 -193 74 -103
41 -235 92 -293 114 -58 22 -114 43 -125 47 -11 5 -23 7 -27 7 -5 -1 -8 2 -8
8 0 6 -3 9 -7 8 -5 0 -17 2 -28 7 -11 4 -78 30 -150 58 -71 27 -150 58 -175
67 -49 19 -63 49 -49 101 4 15 3 32 -1 40 -5 7 -6 17 -3 22 6 9 8 150 3 172
-1 6 -1 15 0 20 4 21 1 95 -4 104 -4 5 -2 12 3 15 4 3 5 23 1 44 -3 21 -3 47
0 58 4 10 4 29 -1 40 -4 12 -5 25 -2 28 8 7 6 164 -2 176 -4 6 -3 10 2 10 9 0
8 83 -1 106 -3 8 -2 14 2 14 8 0 6 166 -2 187 -3 7 -2 13 2 13 8 0 6 85 -2
106 -3 8 -2 14 2 14 8 0 6 166 -2 187 -3 7 -2 13 2 13 8 0 6 85 -2 106 -3 8
-2 14 2 14 8 0 6 166 -2 187 -3 7 -2 13 2 13 8 0 6 85 -2 106 -3 8 -2 14 2 14
6 0 6 63 1 236 -1 19 2 38 5 41 3 3 1 13 -4 22 -5 10 -5 23 0 30 4 8 4 27 -1
44 -5 16 -5 37 0 45 5 8 5 28 1 44 -5 15 -6 28 -2 28 4 0 7 41 7 90 0 50 -3
90 -6 90 -3 0 -3 20 1 44 3 24 3 53 -1 64 -5 12 -4 24 0 26 5 3 5 23 1 44 -3
21 -3 47 0 58 4 10 4 29 -1 40 -4 12 -5 25 -1 28 6 7 5 126 -2 133 -2 2 0 20
4 39 4 19 4 36 0 39 -5 3 -5 18 0 34 4 15 4 34 0 42 -5 7 -5 20 -1 28 5 8 5
27 1 42 -5 15 -6 30 -3 32 6 7 7 136 0 143 -3 3 -2 18 3 33 4 16 4 34 0 42 -5
7 -5 20 -1 28 5 8 5 28 0 44 -5 16 -5 37 0 45 5 8 5 28 1 44 -5 15 -6 28 -2
28 4 0 7 41 7 90 0 50 -3 90 -6 90 -3 0 -3 20 1 44 3 24 3 53 -1 64 -5 12 -4
24 0 26 5 3 5 23 1 44 -3 21 -3 47 0 58 4 10 4 29 -1 40 -4 12 -5 25 -1 28 6
7 5 126 -2 133 -2 2 0 20 4 39 4 19 4 36 0 39 -5 3 -5 18 0 34 4 15 4 34 0 42
-5 7 -5 20 -1 28 5 8 5 27 1 42 -5 15 -6 30 -3 33 3 3 5 35 5 71 0 36 -2 68
-5 71 -3 3 -2 18 3 33 4 16 4 34 0 42 -5 7 -5 20 -1 28 5 8 5 28 0 44 -5 16
-5 37 0 45 5 8 5 28 1 44 -5 15 -6 28 -2 28 4 0 7 41 7 90 0 50 -3 90 -6 90
-3 0 -3 20 1 44 3 24 3 53 -1 64 -5 12 -4 24 0 26 5 3 5 23 1 44 -3 21 -3 47
0 58 4 10 4 29 -1 40 -4 12 -5 25 -1 28 6 7 5 126 -2 133 -2 2 0 20 4 39 4 19
4 36 0 39 -5 3 -5 18 0 34 4 15 4 34 0 42 -5 7 -5 20 -1 28 5 8 5 27 1 42 -5
15 -6 30 -3 32 6 7 7 136 0 143 -3 3 -2 18 3 33 4 16 4 34 0 42 -5 7 -5 20 -1
28 5 8 5 28 0 44 -5 16 -5 37 0 45 5 8 5 28 1 44 -5 15 -6 28 -2 28 4 0 7 41
7 90 0 50 -2 90 -5 90 -3 0 -4 18 -2 40 5 48 12 48 -149 14 -68 -14 -133 -27
-144 -29 -11 -1 -36 -6 -55 -9 -19 -4 -44 -9 -55 -11 -11 -2 -21 -4 -22 -5 -2
-2 -11 -3 -20 -4 -10 -1 -31 -5 -48 -9 -16 -4 -41 -9 -55 -12 -28 -5 -122 -24
-160 -31 -14 -3 -59 -12 -100 -21 -41 -8 -86 -17 -100 -20 -14 -2 -79 -15
-145 -29 -66 -13 -132 -27 -148 -29 -15 -3 -59 -12 -97 -20 -38 -8 -82 -17
-97 -20 -36 -6 -71 -13 -103 -20 -14 -3 -36 -7 -49 -10 -14 -3 -95 -19 -180
-36 -86 -18 -164 -32 -173 -33 -16 0 -33 -46 -17 -46 5 0 4 -11 -1 -25 -6 -16
-6 -26 1 -31 7 -4 7 -10 1 -16 -7 -7 -7 -19 -2 -34 5 -13 6 -24 2 -24 -4 0 -7
-11 -7 -25 0 -14 3 -25 7 -25 4 0 3 -11 -2 -25 -6 -15 -6 -26 1 -30 5 -4 6
-11 3 -17 -10 -15 -11 -68 -2 -68 4 0 3 -11 -2 -25 -6 -16 -6 -26 1 -31 7 -4
7 -10 1 -16 -7 -7 -7 -19 -2 -34 5 -13 6 -24 2 -24 -4 0 -7 -11 -7 -25 0 -14
3 -25 7 -25 4 0 3 -11 -2 -24 -5 -15 -5 -27 2 -34 7 -7 6 -17 -1 -31 -8 -15
-8 -21 -1 -21 8 0 8 -6 0 -20 -8 -14 -8 -20 0 -20 8 0 8 -6 0 -20 -8 -14 -8
-20 0 -20 7 0 8 -7 2 -17 -8 -18 -8 -81 1 -90 3 -2 1 -18 -3 -34 -5 -16 -6
-29 -2 -29 4 0 7 -16 7 -35 0 -19 -2 -35 -5 -35 -3 0 -5 -11 -5 -25 0 -14 3
-25 7 -25 4 0 3 -11 -2 -24 -6 -16 -5 -28 3 -36 9 -10 9 -14 0 -17 -9 -3 -10
-10 -3 -24 8 -13 7 -19 0 -19 -8 0 -8 -6 0 -20 8 -14 8 -20 0 -20 -8 0 -8 -6
0 -20 6 -11 7 -20 3 -20 -4 0 -8 -22 -8 -50 0 -27 3 -50 7 -50 4 0 3 -11 -2
-25 -6 -16 -6 -26 1 -31 7 -4 7 -10 1 -16 -7 -7 -7 -19 -2 -34 5 -13 6 -24 2
-24 -4 0 -7 -11 -7 -25 0 -14 3 -25 7 -25 4 0 3 -11 -2 -25 -6 -15 -6 -26 1
-30 5 -4 6 -11 3 -17 -10 -15 -11 -68 -2 -68 4 0 3 -11 -2 -25 -6 -16 -6 -26
1 -31 7 -4 7 -10 1 -16 -7 -7 -7 -19 -2 -34 5 -13 6 -24 2 -24 -4 0 -7 -11 -7
-25 0 -14 3 -25 7 -25 4 0 3 -11 -2 -24 -5 -15 -5 -27 2 -34 7 -7 6 -17 -1
-31 -8 -15 -8 -21 -1 -21 8 0 8 -6 0 -20 -8 -14 -8 -20 0 -20 8 0 8 -6 0 -20
-8 -14 -8 -20 0 -20 8 0 8 -6 0 -20 -9 -17 -22 -19 -123 -20 -61 -1 -119 -1
-127 -1 -8 0 -315 0 -682 1 l-668 1 4 22 c2 12 0 30 -5 39 -6 10 -5 19 1 23 6
4 6 15 0 30 -5 14 -6 25 -1 25 5 0 6 12 2 28 -4 15 -4 39 0 55 4 15 4 27 -1
27 -6 0 -6 10 0 24 6 16 5 28 -3 36 -9 10 -9 14 0 17 9 3 10 10 3 24 -8 13 -7
19 0 19 7 0 8 6 0 19 -7 14 -7 22 1 27 8 4 8 9 0 17 -7 7 -7 14 0 23 7 8 7 14
-1 19 -7 4 -7 12 0 26 8 13 7 19 0 19 -8 0 -8 6 0 20 8 14 8 20 0 20 -8 0 -8
6 0 20 8 14 8 20 0 20 -7 0 -8 7 -2 18 8 17 8 80 -1 89 -3 2 -1 18 3 34 5 16
6 29 2 29 -8 0 -6 85 2 106 3 8 1 14 -4 14 -6 0 -6 9 0 24 6 16 5 28 -3 36 -9
10 -9 14 0 17 9 3 10 10 3 24 -8 13 -7 19 0 19 7 0 8 6 0 19 -7 14 -7 22 0 26
8 5 8 11 0 20 -6 7 -7 16 -2 19 10 6 9 36 -1 53 -4 6 -3 15 3 18 7 5 8 11 1
19 -6 7 -6 17 -1 26 5 8 5 21 -1 31 -6 11 -5 20 1 24 6 4 6 15 0 30 -5 14 -6
25 -2 25 4 0 7 11 7 25 0 14 -3 25 -7 25 -4 0 -3 11 2 24 5 15 5 27 -2 34 -7
7 -6 17 1 31 8 15 8 21 1 21 -8 0 -8 6 0 20 8 14 8 20 0 20 -8 0 -8 6 0 20 8
14 8 20 0 20 -7 0 -8 7 -2 18 8 17 8 80 -1 89 -3 2 -1 18 3 34 5 16 6 29 2 29
-8 0 -6 85 2 106 3 8 1 14 -4 14 -6 0 -6 9 0 24 6 16 5 28 -3 36 -9 10 -9 14
0 17 9 3 10 10 3 24 -8 13 -7 19 0 19 7 0 8 6 0 19 -7 14 -7 22 0 26 8 5 8 11
0 20 -6 7 -7 16 -2 19 10 6 9 36 -1 53 -4 6 -3 15 3 18 7 5 8 11 1 19 -6 7 -6
17 -1 26 5 8 5 21 -1 31 -6 11 -5 20 1 24 6 4 6 15 0 30 -5 14 -6 25 -2 25 4
0 7 11 7 25 0 14 -3 25 -7 25 -4 0 -3 11 2 24 5 15 5 27 -2 34 -7 7 -6 17 1
31 8 15 8 21 1 21 -8 0 -8 6 0 20 8 14 8 20 0 20 -8 0 -8 6 0 20 8 14 8 20 0
20 -7 0 -8 7 -2 18 8 17 8 80 -1 89 -3 2 -1 18 3 34 5 16 6 29 2 29 -8 0 -6
85 2 106 3 8 1 14 -4 14 -6 0 -6 9 0 24 6 16 5 28 -3 36 -9 10 -9 14 0 17 9 3
10 10 3 24 -8 13 -7 19 0 19 7 0 8 6 0 19 -7 14 -7 22 1 27 8 4 8 9 0 17 -7 7
-7 14 0 23 7 8 7 14 -1 19 -7 4 -7 12 0 26 8 13 7 19 0 19 -8 0 -8 6 0 20 8
14 8 20 0 20 -8 0 -8 6 0 20 8 14 8 20 0 20 -7 0 -8 7 -2 18 8 17 8 80 -1 89
-3 2 -1 18 3 34 5 16 6 29 2 29 -8 0 -6 85 2 106 3 8 1 14 -4 14 -6 0 -6 9 0
24 6 16 5 28 -3 36 -9 10 -9 14 0 17 9 3 10 10 3 24 -8 13 -7 19 0 19 7 0 8 6
0 19 -7 14 -7 22 0 26 8 5 8 11 1 19 -6 7 -8 16 -4 20 11 10 9 96 -2 96 -7 0
-7 3 0 8 6 4 10 16 10 27 0 11 -4 23 -10 27 -6 5 -5 8 2 8 7 0 10 6 8 13 -4 9
25 11 127 9 73 -1 147 -4 163 -5z"/>
</g>
</svg>
